STARTFONT 2.1
COMMENT
COMMENT Converted from OpenType font "c:\windows\fonts\timesbi.ttf" by "otf2bdf 3.0".
COMMENT
FONT -FreeType-Times New Roman-Bold-I-Normal--24-240-72-72-P-135-ISO10646-1
SIZE 24 72 72
FONTBOUNDINGBOX 47 33 -13 -8
STARTPROPERTIES 19
FOUNDRY "FreeType"
FAMILY_NAME "Times New Roman"
WEIGHT_NAME "Bold"
SLANT "I"
SETWIDTH_NAME "Normal"
ADD_STYLE_NAME ""
PIXEL_SIZE 24
POINT_SIZE 240
RESOLUTION_X 72
RESOLUTION_Y 72
SPACING "P"
AVERAGE_WIDTH 135
CHARSET_REGISTRY "ISO10646"
CHARSET_ENCODING "1"
FONT_ASCENT 21
FONT_DESCENT 5
COPYRIGHT "© 2017 The Monotype Corporation. All Rights Reserved.     Hebrew OpenType Layout logic copyright © 2003 & 2007, Ralph Hancock & John Hudson. This layout logic for Biblical Hebrew is open source software under the MIT License; see embedded license description for details."
_OTF_FONTFILE "c:\windows\fonts\timesbi.ttf"
_OTF_PSNAME "TimesNewRomanPS-BoldItalicMT"
ENDPROPERTIES
CHARS 2928
STARTCHAR 0020
ENCODING 32
SWIDTH 250 0
DWIDTH 6 0
BBX 0 0 0 0
BITMAP
ENDCHAR
STARTCHAR 0021
ENCODING 33
SWIDTH 375 0
DWIDTH 9 0
BBX 7 16 1 0
BITMAP
06
0E
0E
0E
0C
0C
08
18
10
10
10
00
60
F0
F0
60
ENDCHAR
STARTCHAR 0022
ENCODING 34
SWIDTH 541 0
DWIDTH 13 0
BBX 9 8 4 8
BITMAP
6180
F380
E380
E380
C300
C300
8200
8000
ENDCHAR
STARTCHAR 0023
ENCODING 35
SWIDTH 500 0
DWIDTH 12 0
BBX 11 16 1 0
BITMAP
0840
0840
18C0
18C0
1080
FFE0
FFE0
3180
3180
FFE0
FFE0
6300
6300
6300
4200
4200
ENDCHAR
STARTCHAR 0024
ENCODING 36
SWIDTH 500 0
DWIDTH 12 0
BBX 11 20 1 -2
BITMAP
0080
0100
0FC0
1960
3960
3A40
3A40
3E00
1E00
1F00
0F80
0780
0BC0
09C0
49C0
D180
D380
7E00
2000
2000
ENDCHAR
STARTCHAR 0025
ENCODING 37
SWIDTH 833 0
DWIDTH 20 0
BBX 16 16 3 0
BITMAP
3C02
6604
E608
CE18
CE30
CC60
D8C0
719C
0332
0273
0467
08E7
10E6
20C6
404C
C078
ENDCHAR
STARTCHAR 0026
ENCODING 38
SWIDTH 791 0
DWIDTH 19 0
BBX 16 16 1 0
BITMAP
0070
0198
0398
0398
03B0
03E0
0380
07DF
1BCC
31C8
71F8
F1F0
F0F0
F8F8
7FFE
3E3C
ENDCHAR
STARTCHAR 0027
ENCODING 39
SWIDTH 291 0
DWIDTH 7 0
BBX 4 8 4 8
BITMAP
60
F0
E0
E0
C0
C0
80
80
ENDCHAR
STARTCHAR 0028
ENCODING 40
SWIDTH 333 0
DWIDTH 8 0
BBX 9 20 1 -4
BITMAP
0180
0300
0600
0C00
1C00
3800
3800
7000
7000
F000
E000
E000
E000
E000
E000
6000
6000
6000
2000
2000
ENDCHAR
STARTCHAR 0029
ENCODING 41
SWIDTH 333 0
DWIDTH 8 0
BBX 10 21 -3 -4
BITMAP
0200
0100
0100
0180
0180
0180
0180
0180
01C0
0380
0380
0380
0380
0700
0700
0E00
0C00
1800
3000
6000
8000
ENDCHAR
STARTCHAR 002A
ENCODING 42
SWIDTH 500 0
DWIDTH 12 0
BBX 9 9 3 7
BITMAP
0800
1C00
0800
EB80
FF80
1800
3600
7700
6300
ENDCHAR
STARTCHAR 002B
ENCODING 43
SWIDTH 583 0
DWIDTH 14 0
BBX 13 13 1 2
BITMAP
0200
0200
0200
0200
0200
0200
FFF8
FFF8
0200
0200
0200
0200
0200
ENDCHAR
STARTCHAR 002C
ENCODING 44
SWIDTH 250 0
DWIDTH 6 0
BBX 4 7 0 -4
BITMAP
60
F0
F0
70
30
20
C0
ENDCHAR
STARTCHAR 002D
ENCODING 45
SWIDTH 333 0
DWIDTH 8 0
BBX 8 2 0 5
BITMAP
7F
FE
ENDCHAR
STARTCHAR 002E
ENCODING 46
SWIDTH 250 0
DWIDTH 6 0
BBX 3 4 0 0
BITMAP
E0
E0
E0
E0
ENDCHAR
STARTCHAR 002F
ENCODING 47
SWIDTH 291 0
DWIDTH 7 0
BBX 12 16 -2 0
BITMAP
0030
0060
0040
00C0
0180
0100
0300
0600
0600
0C00
0800
1800
3000
2000
6000
C000
ENDCHAR
STARTCHAR 0030
ENCODING 48
SWIDTH 500 0
DWIDTH 12 0
BBX 11 16 1 0
BITMAP
0380
0C40
1C60
1CE0
38E0
38E0
78E0
71E0
71C0
F1C0
E3C0
E380
E380
6700
6600
3C00
ENDCHAR
STARTCHAR 0031
ENCODING 49
SWIDTH 500 0
DWIDTH 12 0
BBX 10 16 1 0
BITMAP
01C0
1F80
0380
0380
0700
0700
0700
0E00
0E00
0E00
1E00
1C00
1C00
1C00
3C00
FF00
ENDCHAR
STARTCHAR 0032
ENCODING 50
SWIDTH 500 0
DWIDTH 12 0
BBX 12 16 0 0
BITMAP
03C0
0FE0
19E0
10F0
0060
00E0
00E0
00C0
0180
0300
0600
0C00
1040
3FC0
7F80
FF80
ENDCHAR
STARTCHAR 0033
ENCODING 51
SWIDTH 500 0
DWIDTH 12 0
BBX 11 16 0 0
BITMAP
03C0
0CE0
00E0
00E0
00E0
0180
0F00
0F80
03C0
01C0
01C0
01C0
0180
4180
F300
7C00
ENDCHAR
STARTCHAR 0034
ENCODING 52
SWIDTH 500 0
DWIDTH 12 0
BBX 11 16 1 0
BITMAP
0060
00E0
01C0
03C0
05C0
0980
1380
3380
2300
4700
FFC0
FF80
0E00
0E00
0E00
0C00
ENDCHAR
STARTCHAR 0035
ENCODING 53
SWIDTH 500 0
DWIDTH 12 0
BBX 11 16 1 0
BITMAP
07E0
0FE0
0FC0
1000
1800
3E00
3F00
0780
0380
0380
0180
0180
0100
C300
F600
7800
ENDCHAR
STARTCHAR 0036
ENCODING 54
SWIDTH 500 0
DWIDTH 12 0
BBX 11 17 1 0
BITMAP
0060
0180
0700
0E00
1C00
1C00
3800
7F80
71C0
71C0
71C0
F1C0
E1C0
6380
6380
6300
1E00
ENDCHAR
STARTCHAR 0037
ENCODING 55
SWIDTH 500 0
DWIDTH 12 0
BBX 10 16 3 -1
BITMAP
3FC0
7FC0
7F80
8180
0100
0200
0200
0400
0C00
0800
1000
1000
2000
6000
4000
C000
ENDCHAR
STARTCHAR 0038
ENCODING 56
SWIDTH 500 0
DWIDTH 12 0
BBX 11 16 1 0
BITMAP
0780
1CC0
1CE0
38E0
3CE0
1CC0
1F80
0F00
3780
6780
E380
E380
E380
E380
6700
3E00
ENDCHAR
STARTCHAR 0039
ENCODING 57
SWIDTH 500 0
DWIDTH 12 0
BBX 11 17 1 -2
BITMAP
0780
1CC0
38C0
38E0
78E0
70E0
71E0
71E0
71C0
3BC0
1F80
0380
0700
0E00
1C00
3800
E000
ENDCHAR
STARTCHAR 003A
ENCODING 58
SWIDTH 333 0
DWIDTH 8 0
BBX 6 11 1 0
BITMAP
18
3C
3C
18
00
00
00
60
F0
F0
60
ENDCHAR
STARTCHAR 003B
ENCODING 59
SWIDTH 333 0
DWIDTH 8 0
BBX 7 15 0 -5
BITMAP
0C
1E
1E
0C
00
00
00
00
78
78
78
30
30
20
C0
ENDCHAR
STARTCHAR 003C
ENCODING 60
SWIDTH 583 0
DWIDTH 14 0
BBX 13 12 1 2
BITMAP
0008
0038
01E0
0780
3C00
F000
F000
3C00
0780
01E0
0038
0008
ENDCHAR
STARTCHAR 003D
ENCODING 61
SWIDTH 583 0
DWIDTH 14 0
BBX 13 6 1 5
BITMAP
FFF8
FFF8
0000
0000
FFF8
FFF8
ENDCHAR
STARTCHAR 003E
ENCODING 62
SWIDTH 583 0
DWIDTH 14 0
BBX 13 12 1 2
BITMAP
8000
E000
7C00
0F00
03C0
0078
0078
03C0
0F00
7800
E000
8000
ENDCHAR
STARTCHAR 003F
ENCODING 63
SWIDTH 500 0
DWIDTH 12 0
BBX 9 16 2 0
BITMAP
1F00
3380
7180
7380
0380
0700
0E00
0C00
1000
2000
2000
0000
6000
F000
F000
6000
ENDCHAR
STARTCHAR 0040
ENCODING 64
SWIDTH 833 0
DWIDTH 20 0
BBX 20 21 0 -5
BITMAP
00FC00
070380
0C0040
100040
200020
607620
40CE10
C18E10
C38E10
871C10
871C20
873C20
873840
877840
C7B880
471F10
600020
200020
1000C0
0C0100
03FE00
ENDCHAR
STARTCHAR 0041
ENCODING 65
SWIDTH 666 0
DWIDTH 16 0
BBX 15 16 -1 0
BITMAP
0002
0006
000C
001C
003C
007C
00DC
009C
011C
021C
07FC
081C
101C
101C
203C
F07E
ENDCHAR
STARTCHAR 0042
ENCODING 66
SWIDTH 666 0
DWIDTH 16 0
BBX 14 16 1 0
BITMAP
1FF8
0F3C
0F1C
0E1C
0E1C
1E3C
1E70
1F80
1C70
3C78
3838
3878
7878
7078
70F0
FFC0
ENDCHAR
STARTCHAR 0043
ENCODING 67
SWIDTH 666 0
DWIDTH 16 0
BBX 15 16 2 0
BITMAP
01FE
0706
1E06
3C00
7800
7800
F000
F000
F000
E000
E000
E000
F000
7030
3840
1F80
ENDCHAR
STARTCHAR 0044
ENCODING 68
SWIDTH 708 0
DWIDTH 17 0
BBX 18 16 -1 0
BITMAP
0FFC00
03DF00
03C780
038380
0383C0
0783C0
0783C0
0703C0
0F03C0
0F0780
0E0780
0E0700
1E0F00
1C1E00
3C3800
FFE000
ENDCHAR
STARTCHAR 0045
ENCODING 69
SWIDTH 666 0
DWIDTH 16 0
BBX 16 16 0 0
BITMAP
0FFF
0783
0781
0700
0F00
0F08
0E10
0FF0
1E30
1E10
1C00
3C00
3C04
380C
7838
FFF8
ENDCHAR
STARTCHAR 0046
ENCODING 70
SWIDTH 666 0
DWIDTH 16 0
BBX 17 16 0 0
BITMAP
0FFF80
03C180
038080
038080
078000
078000
070800
0FF800
0F1000
0E1000
1E1000
1E0000
1C0000
1C0000
3C0000
FF0000
ENDCHAR
STARTCHAR 0047
ENCODING 71
SWIDTH 708 0
DWIDTH 17 0
BBX 16 16 2 0
BITMAP
01FF
0707
1E02
3C02
7802
7800
F000
F0FE
F03C
E038
E038
E078
F078
7070
38F0
0FC0
ENDCHAR
STARTCHAR 0048
ENCODING 72
SWIDTH 791 0
DWIDTH 19 0
BBX 22 16 -1 0
BITMAP
0FF3FC
03C1F0
03C1E0
0381E0
0781C0
0783C0
0703C0
07FF80
0F0780
0E0780
0E0780
1E0700
1E0F00
1C0F00
3C0F00
FF3F80
ENDCHAR
STARTCHAR 0049
ENCODING 73
SWIDTH 375 0
DWIDTH 9 0
BBX 12 16 -1 0
BITMAP
0FF0
03C0
03C0
0380
0780
0780
0700
0700
0F00
0F00
0E00
1E00
1E00
1C00
3C00
FF00
ENDCHAR
STARTCHAR 004A
ENCODING 74
SWIDTH 500 0
DWIDTH 12 0
BBX 14 16 0 0
BITMAP
03FC
00F0
00F0
00E0
00E0
01E0
01E0
01C0
03C0
03C0
0380
0780
E780
E700
CE00
7C00
ENDCHAR
STARTCHAR 004B
ENCODING 75
SWIDTH 666 0
DWIDTH 16 0
BBX 18 16 0 0
BITMAP
1FEFC0
078600
078400
071800
073000
0F6000
0FC000
0FE000
1EE000
1EE000
1CF000
3C7000
3C7000
387800
387800
FEFC00
ENDCHAR
STARTCHAR 004C
ENCODING 76
SWIDTH 625 0
DWIDTH 15 0
BBX 13 16 0 0
BITMAP
1FE0
0780
0780
0700
0F00
0F00
0E00
0E00
1E00
1E00
1C00
3C00
3C08
3818
7878
FFF0
ENDCHAR
STARTCHAR 004D
ENCODING 77
SWIDTH 875 0
DWIDTH 21 0
BBX 24 16 -1 0
BITMAP
0FC03F
03C03C
03C07C
03C0F8
05E0B8
05E178
05E370
04E270
08E4F0
08E8F0
08F8E0
10F1E0
10E1E0
10E1C0
30C3C0
FC8FF0
ENDCHAR
STARTCHAR 004E
ENCODING 78
SWIDTH 708 0
DWIDTH 17 0
BBX 20 16 -1 0
BITMAP
0FC1F0
03C040
03E040
03E040
04F080
04F080
047880
047900
083D00
083D00
081F00
101E00
100E00
100E00
300400
F80400
ENDCHAR
STARTCHAR 004F
ENCODING 79
SWIDTH 708 0
DWIDTH 17 0
BBX 16 16 1 0
BITMAP
00F8
030E
0E0E
1E0F
3C0F
3C0F
780F
780F
780F
F01E
F01E
F03C
7038
7070
38E0
1F80
ENDCHAR
STARTCHAR 0050
ENCODING 80
SWIDTH 625 0
DWIDTH 15 0
BBX 16 16 -1 0
BITMAP
07FC
03CF
03C7
0387
0387
078F
078F
071E
0FF8
0F00
0E00
1E00
1E00
1C00
3C00
FF00
ENDCHAR
STARTCHAR 0051
ENCODING 81
SWIDTH 708 0
DWIDTH 17 0
BBX 16 21 1 -5
BITMAP
00F8
030E
0E0E
1E0F
1C0F
3C0F
780F
780F
780F
F01E
F01E
F01C
F038
7070
70E0
1F80
0400
0800
3F82
7FFC
07F0
ENDCHAR
STARTCHAR 0052
ENCODING 82
SWIDTH 666 0
DWIDTH 16 0
BBX 16 16 -1 0
BITMAP
07FC
03CF
0387
0387
078F
078F
071E
07F0
0F70
0E78
0E78
1E38
1E38
1C3C
3C1C
FF1F
ENDCHAR
STARTCHAR 0053
ENCODING 83
SWIDTH 541 0
DWIDTH 13 0
BBX 14 16 0 0
BITMAP
03FC
0E1C
0E08
1E08
1E08
1F00
0F80
07C0
07C0
03E0
01E0
40F0
C0E0
C0E0
E1C0
FF80
ENDCHAR
STARTCHAR 0054
ENCODING 84
SWIDTH 625 0
DWIDTH 15 0
BBX 14 16 2 0
BITMAP
3FFC
63CC
4384
0384
0780
0780
0700
0F00
0F00
0E00
1E00
1E00
1C00
1C00
3C00
FF00
ENDCHAR
STARTCHAR 0055
ENCODING 85
SWIDTH 708 0
DWIDTH 17 0
BBX 17 16 2 0
BITMAP
7F8F80
1E0200
1C0200
1C0400
3C0400
3C0400
380400
780800
780800
700800
701000
F01000
F01000
702000
78C000
1F0000
ENDCHAR
STARTCHAR 0056
ENCODING 86
SWIDTH 666 0
DWIDTH 16 0
BBX 16 16 3 0
BITMAP
FE1F
780C
7808
7810
7830
7860
7840
7880
7900
7200
7400
7800
7000
7000
6000
4000
ENDCHAR
STARTCHAR 0057
ENCODING 87
SWIDTH 875 0
DWIDTH 21 0
BBX 21 16 3 0
BITMAP
FCFC78
787820
787020
787040
70F080
70F100
717100
727200
76F400
74F800
78F800
F0F000
F0E000
E0C000
C0C000
808000
ENDCHAR
STARTCHAR 0058
ENCODING 88
SWIDTH 666 0
DWIDTH 16 0
BBX 19 16 -1 0
BITMAP
1FC3E0
078180
078100
03C200
03C400
01E800
01F000
00E000
00F000
01F000
037800
047800
083C00
103C00
301E00
F87F00
ENDCHAR
STARTCHAR 0059
ENCODING 89
SWIDTH 625 0
DWIDTH 15 0
BBX 15 16 2 0
BITMAP
7FBE
3E0C
1C18
1E10
1E20
0E20
0E40
0E80
0F00
0F00
0E00
0E00
1E00
1E00
3C00
FF00
ENDCHAR
STARTCHAR 005A
ENCODING 90
SWIDTH 625 0
DWIDTH 15 0
BBX 17 16 -1 0
BITMAP
07FF80
060F00
081F00
083E00
007C00
007800
00F000
01E000
03E000
07C000
078000
0F0000
1E0400
3E0C00
7C3800
FFF800
ENDCHAR
STARTCHAR 005B
ENCODING 91
SWIDTH 333 0
DWIDTH 8 0
BBX 11 21 -1 -5
BITMAP
03E0
0380
0700
0700
0700
0600
0E00
0E00
0E00
0C00
1C00
1C00
1800
3800
3800
3800
3000
7000
7000
7000
F800
ENDCHAR
STARTCHAR 005C
ENCODING 92
SWIDTH 291 0
DWIDTH 7 0
BBX 3 16 2 0
BITMAP
80
80
C0
C0
C0
C0
40
40
40
40
40
40
60
60
60
60
ENDCHAR
STARTCHAR 005D
ENCODING 93
SWIDTH 333 0
DWIDTH 8 0
BBX 11 21 -3 -5
BITMAP
03E0
00E0
00E0
00C0
01C0
01C0
01C0
0380
0380
0380
0300
0700
0700
0700
0E00
0E00
0E00
0C00
1C00
1C00
FC00
ENDCHAR
STARTCHAR 005E
ENCODING 94
SWIDTH 583 0
DWIDTH 14 0
BBX 11 9 2 7
BITMAP
0600
0E00
0F00
1B00
1180
3180
20C0
6040
C060
ENDCHAR
STARTCHAR 005F
ENCODING 95
SWIDTH 500 0
DWIDTH 12 0
BBX 12 2 -2 -5
BITMAP
FFF0
FFF0
ENDCHAR
STARTCHAR 0060
ENCODING 96
SWIDTH 333 0
DWIDTH 8 0
BBX 4 4 3 12
BITMAP
E0
70
30
10
ENDCHAR
STARTCHAR 0061
ENCODING 97
SWIDTH 500 0
DWIDTH 12 0
BBX 11 11 0 0
BITMAP
0760
0CE0
18E0
38C0
71C0
71C0
73C0
F380
F7A0
7BC0
7380
ENDCHAR
STARTCHAR 0062
ENCODING 98
SWIDTH 500 0
DWIDTH 12 0
BBX 11 16 0 0
BITMAP
0E00
0E00
0E00
0E00
1C00
1DC0
1FE0
3CE0
38E0
38E0
30E0
70E0
71C0
7180
E300
3E00
ENDCHAR
STARTCHAR 0063
ENCODING 99
SWIDTH 458 0
DWIDTH 11 0
BBX 9 11 1 0
BITMAP
0780
1880
3180
6180
E000
E000
E000
E000
E100
FE00
7800
ENDCHAR
STARTCHAR 0064
ENCODING 100
SWIDTH 500 0
DWIDTH 12 0
BBX 13 16 0 0
BITMAP
0038
0078
0070
0070
0070
0760
0CE0
18E0
38E0
71C0
71C0
73C0
7580
F7A0
7BC0
7380
ENDCHAR
STARTCHAR 0065
ENCODING 101
SWIDTH 458 0
DWIDTH 11 0
BBX 10 11 1 0
BITMAP
0780
19C0
3180
7380
E700
FC00
E000
E000
E100
FE00
7800
ENDCHAR
STARTCHAR 0066
ENCODING 102
SWIDTH 333 0
DWIDTH 8 0
BBX 16 21 -4 -5
BITMAP
000F
003B
0072
00E0
00E0
03F0
01C0
01C0
01C0
0380
0380
0380
0380
0700
0700
0700
0600
0E00
4C00
EC00
7000
ENDCHAR
STARTCHAR 0067
ENCODING 103
SWIDTH 500 0
DWIDTH 12 0
BBX 13 16 -1 -5
BITMAP
07C0
1C78
1C70
3C70
18F0
18E0
0F80
1000
3C00
3F80
1FC0
67C0
C0C0
C0C0
E080
3F00
ENDCHAR
STARTCHAR 0068
ENCODING 104
SWIDTH 541 0
DWIDTH 13 0
BBX 12 16 0 0
BITMAP
0F00
0E00
0E00
0E00
0E00
1C60
1CF0
1D70
3A70
3CE0
38E0
38E0
71C0
71D0
71E0
E1C0
ENDCHAR
STARTCHAR 0069
ENCODING 105
SWIDTH 291 0
DWIDTH 7 0
BBX 7 16 0 0
BITMAP
0C
0E
0E
0E
00
3C
3C
38
38
38
30
70
70
78
F8
70
ENDCHAR
STARTCHAR 006A
ENCODING 106
SWIDTH 291 0
DWIDTH 7 0
BBX 11 21 -4 -5
BITMAP
00E0
00E0
00E0
00E0
0000
01C0
01C0
01C0
0380
0380
0380
0380
0700
0700
0700
0700
0E00
0E00
4C00
FC00
7000
ENDCHAR
STARTCHAR 006B
ENCODING 107
SWIDTH 500 0
DWIDTH 12 0
BBX 12 16 0 0
BITMAP
0F00
0E00
0E00
0E00
0C00
1DF0
1C40
1C80
3900
3B00
3F00
7B80
7380
73A0
73C0
E180
ENDCHAR
STARTCHAR 006C
ENCODING 108
SWIDTH 291 0
DWIDTH 7 0
BBX 7 16 0 0
BITMAP
0E
0E
0E
0E
1C
1C
1C
38
38
38
70
70
70
74
F8
70
ENDCHAR
STARTCHAR 006D
ENCODING 109
SWIDTH 791 0
DWIDTH 19 0
BBX 17 11 0 0
BITMAP
1C6380
1DF780
1DEB80
3AF380
3CF380
38E700
39C700
71C700
71CE00
738F80
E38600
ENDCHAR
STARTCHAR 006E
ENCODING 110
SWIDTH 541 0
DWIDTH 13 0
BBX 12 11 0 0
BITMAP
1C70
1CF0
1D70
3A70
3CE0
38E0
38E0
71C0
71D0
71E0
E1C0
ENDCHAR
STARTCHAR 006F
ENCODING 111
SWIDTH 500 0
DWIDTH 12 0
BBX 10 11 1 0
BITMAP
0780
19C0
31C0
71C0
F1C0
E1C0
E380
E380
E700
E600
7800
ENDCHAR
STARTCHAR 0070
ENCODING 112
SWIDTH 500 0
DWIDTH 12 0
BBX 14 16 -3 -5
BITMAP
07B8
0FFC
079C
071C
071C
061C
0E1C
0E38
0E30
1C60
1FC0
1C00
3800
3800
3800
FC00
ENDCHAR
STARTCHAR 0071
ENCODING 113
SWIDTH 500 0
DWIDTH 12 0
BBX 11 16 0 -5
BITMAP
0760
0CE0
18E0
38E0
71C0
71C0
71C0
F380
F780
7B80
7380
0700
0700
0700
0700
1F80
ENDCHAR
STARTCHAR 0072
ENCODING 114
SWIDTH 375 0
DWIDTH 9 0
BBX 9 11 1 0
BITMAP
3B00
7380
7780
7900
7800
7000
7000
E000
E000
E000
C000
ENDCHAR
STARTCHAR 0073
ENCODING 115
SWIDTH 375 0
DWIDTH 9 0
BBX 9 11 0 0
BITMAP
1F80
3180
3080
3800
3C00
1E00
0F00
8700
C700
C600
FC00
ENDCHAR
STARTCHAR 0074
ENCODING 116
SWIDTH 291 0
DWIDTH 7 0
BBX 7 14 0 0
BITMAP
02
04
1C
7E
38
38
38
38
70
70
70
74
F8
70
ENDCHAR
STARTCHAR 0075
ENCODING 117
SWIDTH 541 0
DWIDTH 13 0
BBX 11 11 1 0
BITMAP
78E0
38E0
38E0
71C0
71C0
73C0
E5C0
E780
EBA0
F3C0
E380
ENDCHAR
STARTCHAR 0076
ENCODING 118
SWIDTH 458 0
DWIDTH 11 0
BBX 10 11 1 0
BITMAP
3180
F1C0
71C0
7080
3880
3900
3A00
3C00
3800
3000
2000
ENDCHAR
STARTCHAR 0077
ENCODING 119
SWIDTH 666 0
DWIDTH 16 0
BBX 15 11 1 0
BITMAP
308C
F08E
71CE
73C6
75C4
75C8
79C8
71D0
71E0
61C0
4180
ENDCHAR
STARTCHAR 0078
ENCODING 120
SWIDTH 500 0
DWIDTH 12 0
BBX 13 11 -1 0
BITMAP
1C38
2E78
0E78
0780
0700
0700
0780
0B80
CB90
F1E0
E1C0
ENDCHAR
STARTCHAR 0079
ENCODING 121
SWIDTH 458 0
DWIDTH 11 0
BBX 13 16 -2 -5
BITMAP
0E30
1E38
0E38
0E10
0E10
0620
0640
0740
0780
0700
0700
0600
0400
C800
F000
E000
ENDCHAR
STARTCHAR 007A
ENCODING 122
SWIDTH 375 0
DWIDTH 9 0
BBX 9 13 0 -2
BITMAP
3F80
3F00
3F00
4200
0400
0800
1000
1000
2000
7100
FB80
3B00
0E00
ENDCHAR
STARTCHAR 007B
ENCODING 123
SWIDTH 333 0
DWIDTH 8 0
BBX 10 21 1 -5
BITMAP
01C0
0300
0600
0E00
0E00
0E00
0C00
0C00
1800
3000
C000
2000
3000
3000
7000
7000
E000
E000
C000
E000
3000
ENDCHAR
STARTCHAR 007C
ENCODING 124
SWIDTH 208 0
DWIDTH 5 0
BBX 1 21 2 -5
BITMAP
80
80
80
80
80
80
80
80
80
80
80
80
80
80
80
80
80
80
80
80
80
ENDCHAR
STARTCHAR 007D
ENCODING 125
SWIDTH 333 0
DWIDTH 8 0
BBX 10 21 -2 -5
BITMAP
0300
0180
01C0
01C0
0180
0380
0300
0700
0300
0300
0080
0300
0600
0C00
1C00
1C00
1C00
1C00
1800
3000
E000
ENDCHAR
STARTCHAR 007E
ENCODING 126
SWIDTH 583 0
DWIDTH 14 0
BBX 13 4 0 5
BITMAP
3808
7F08
47F8
80F0
ENDCHAR
STARTCHAR 00A0
ENCODING 160
SWIDTH 250 0
DWIDTH 6 0
BBX 0 0 0 0
BITMAP
ENDCHAR
STARTCHAR 00A1
ENCODING 161
SWIDTH 375 0
DWIDTH 9 0
BBX 8 17 0 -5
BITMAP
0E
0F
0F
0E
00
08
08
08
18
10
30
30
70
70
70
E0
60
ENDCHAR
STARTCHAR 00A2
ENCODING 162
SWIDTH 500 0
DWIDTH 12 0
BBX 10 20 1 -4
BITMAP
0080
0100
0100
0100
0200
0F80
1EC0
3BC0
75C0
7400
6400
E800
E800
F880
7B00
3C00
1000
2000
2000
2000
ENDCHAR
STARTCHAR 00A3
ENCODING 163
SWIDTH 500 0
DWIDTH 12 0
BBX 12 16 1 0
BITMAP
01E0
0770
0660
0E00
0E00
1E00
1C00
7F80
7F00
1C00
1800
1800
7800
FE40
BF80
EF00
ENDCHAR
STARTCHAR 00A4
ENCODING 164
SWIDTH 500 0
DWIDTH 12 0
BBX 11 11 1 3
BITMAP
CE60
FFE0
71C0
40C0
C060
C060
C060
4040
60C0
FFC0
DE60
ENDCHAR
STARTCHAR 00A5
ENCODING 165
SWIDTH 500 0
DWIDTH 12 0
BBX 15 16 0 0
BITMAP
3F1E
0E08
0E08
0E10
0E20
0F20
0740
0780
7FF8
0700
0700
FFF0
0E00
0E00
1E00
7F80
ENDCHAR
STARTCHAR 00A6
ENCODING 166
SWIDTH 208 0
DWIDTH 5 0
BBX 1 21 2 -5
BITMAP
80
80
80
80
80
80
80
80
80
00
00
00
80
80
80
80
80
80
80
80
80
ENDCHAR
STARTCHAR 00A7
ENCODING 167
SWIDTH 500 0
DWIDTH 12 0
BBX 13 21 0 -5
BITMAP
03E0
0630
0C38
0C38
0E10
0F00
0F80
13C0
21E0
60E0
7060
7060
3C60
3E40
1F80
0700
0380
C380
C300
C300
3C00
ENDCHAR
STARTCHAR 00A8
ENCODING 168
SWIDTH 333 0
DWIDTH 8 0
BBX 8 3 2 13
BITMAP
66
E7
66
ENDCHAR
STARTCHAR 00A9
ENCODING 169
SWIDTH 750 0
DWIDTH 18 0
BBX 17 16 1 0
BITMAP
03E000
0C1800
100600
23FA00
461900
4C0900
8C0080
8C0080
8C0080
8C0080
4E0100
461100
23E300
100600
080800
07F000
ENDCHAR
STARTCHAR 00AA
ENCODING 170
SWIDTH 250 0
DWIDTH 6 0
BBX 7 6 2 10
BITMAP
36
6C
CC
CC
D8
FC
ENDCHAR
STARTCHAR 00AB
ENCODING 171
SWIDTH 500 0
DWIDTH 12 0
BBX 11 11 1 0
BITMAP
0420
0840
18C0
3180
6300
E700
E700
6300
2100
2100
1080
ENDCHAR
STARTCHAR 00AC
ENCODING 172
SWIDTH 625 0
DWIDTH 15 0
BBX 13 6 1 5
BITMAP
FFF8
FFF8
0018
0018
0018
0018
ENDCHAR
STARTCHAR 00AD
ENCODING 173
SWIDTH 333 0
DWIDTH 8 0
BBX 8 2 0 5
BITMAP
7F
FE
ENDCHAR
STARTCHAR 00AE
ENCODING 174
SWIDTH 750 0
DWIDTH 18 0
BBX 17 16 1 0
BITMAP
03E000
0C1800
1FE600
273200
473900
473900
873080
87E080
87E080
876080
477100
473100
2FBB00
100600
080800
07F000
ENDCHAR
STARTCHAR 00AF
ENCODING 175
SWIDTH 500 0
DWIDTH 12 0
BBX 12 2 3 17
BITMAP
FFF0
FFF0
ENDCHAR
STARTCHAR 00B0
ENCODING 176
SWIDTH 416 0
DWIDTH 10 0
BBX 8 9 2 7
BITMAP
3C
7E
E3
C1
C1
C3
63
7E
1C
ENDCHAR
STARTCHAR 00B1
ENCODING 177
SWIDTH 541 0
DWIDTH 13 0
BBX 13 13 0 2
BITMAP
0300
0300
0300
0300
0300
0300
FFF8
FFF8
0300
0300
0300
FFF8
FFF8
ENDCHAR
STARTCHAR 00B2
ENCODING 178
SWIDTH 291 0
DWIDTH 7 0
BBX 7 9 1 7
BITMAP
1C
26
06
06
0C
18
20
7C
FC
ENDCHAR
STARTCHAR 00B3
ENCODING 179
SWIDTH 291 0
DWIDTH 7 0
BBX 6 9 2 7
BITMAP
38
4C
0C
30
38
18
18
90
E0
ENDCHAR
STARTCHAR 00B4
ENCODING 180
SWIDTH 333 0
DWIDTH 8 0
BBX 4 4 5 12
BITMAP
70
60
C0
80
ENDCHAR
STARTCHAR 00B5
ENCODING 181
SWIDTH 583 0
DWIDTH 14 0
BBX 14 16 -1 -5
BITMAP
0E1C
0E38
0E38
0E38
1C70
1C70
1C70
38F0
39E0
3E68
7C70
4000
C000
C000
C000
C000
ENDCHAR
STARTCHAR 00B6
ENCODING 182
SWIDTH 500 0
DWIDTH 12 0
BBX 13 21 0 -5
BITMAP
1FF8
7E40
FE40
FE40
FE40
FE40
FE40
FE40
FE40
7E40
1E40
0240
0240
0240
0240
0240
0240
0240
0240
0240
0240
ENDCHAR
STARTCHAR 00B7
ENCODING 183
SWIDTH 250 0
DWIDTH 6 0
BBX 4 4 2 6
BITMAP
E0
F0
F0
E0
ENDCHAR
STARTCHAR 00B8
ENCODING 184
SWIDTH 333 0
DWIDTH 8 0
BBX 4 5 1 -5
BITMAP
20
70
30
30
E0
ENDCHAR
STARTCHAR 00B9
ENCODING 185
SWIDTH 291 0
DWIDTH 7 0
BBX 6 9 2 8
BITMAP
04
18
18
18
30
30
30
60
F8
ENDCHAR
STARTCHAR 00BA
ENCODING 186
SWIDTH 291 0
DWIDTH 7 0
BBX 7 7 2 9
BITMAP
1C
66
66
C6
CC
C8
70
ENDCHAR
STARTCHAR 00BB
ENCODING 187
SWIDTH 500 0
DWIDTH 12 0
BBX 11 11 0 0
BITMAP
2100
1080
1080
18C0
1CE0
1CE0
18C0
3180
2300
4200
8400
ENDCHAR
STARTCHAR 00BC
ENCODING 188
SWIDTH 750 0
DWIDTH 18 0
BBX 16 16 1 0
BITMAP
0E06
0C0C
0C08
1818
1830
1820
3040
F8C0
0183
0106
030E
0616
042C
087E
180C
3018
ENDCHAR
STARTCHAR 00BD
ENCODING 189
SWIDTH 750 0
DWIDTH 18 0
BBX 16 16 1 0
BITMAP
0E0C
0C08
0C18
1830
1820
1860
30C0
F89E
0127
0303
0606
0404
0C08
1812
103E
307C
ENDCHAR
STARTCHAR 00BE
ENCODING 190
SWIDTH 750 0
DWIDTH 18 0
BBX 15 16 2 0
BITMAP
3C0C
0C18
1810
7830
1860
18C0
9880
E180
0306
020C
061C
0C2C
0858
10FC
3018
6030
ENDCHAR
STARTCHAR 00BF
ENCODING 191
SWIDTH 500 0
DWIDTH 12 0
BBX 9 17 0 -5
BITMAP
0380
0380
0380
0380
0000
0000
0200
0200
0C00
1800
3800
7000
E300
E700
E700
6300
3E00
ENDCHAR
STARTCHAR 00C0
ENCODING 192
SWIDTH 666 0
DWIDTH 16 0
BBX 16 22 -1 0
BITMAP
001E
000E
0006
0003
0001
0000
0002
0006
000C
001C
003C
007C
00DC
009C
011C
021C
07FC
081C
101C
101C
203C
F07E
ENDCHAR
STARTCHAR 00C1
ENCODING 193
SWIDTH 666 0
DWIDTH 16 0
BBX 18 21 -1 0
BITMAP
0001C0
000180
000300
000200
000000
000200
000600
000C00
001C00
003C00
007C00
00DC00
009C00
011C00
021C00
07FC00
081C00
101C00
101C00
203C00
F07E00
ENDCHAR
STARTCHAR 00C2
ENCODING 194
SWIDTH 666 0
DWIDTH 16 0
BBX 17 22 -1 0
BITMAP
000300
000780
000D80
001880
002080
000000
000200
000600
000C00
001C00
003C00
007C00
00DC00
009C00
011C00
021C00
07FC00
081C00
101C00
101C00
203C00
F07E00
ENDCHAR
STARTCHAR 00C3
ENCODING 195
SWIDTH 666 0
DWIDTH 16 0
BBX 18 21 -1 0
BITMAP
000E40
001FC0
001780
000000
000000
000200
000600
000C00
001C00
003C00
007C00
00DC00
009C00
011C00
021C00
07FC00
081C00
101C00
101C00
203C00
F07E00
ENDCHAR
STARTCHAR 00C4
ENCODING 196
SWIDTH 666 0
DWIDTH 16 0
BBX 18 21 -1 0
BITMAP
001CC0
001DC0
001CC0
000000
000000
000200
000600
000C00
001C00
003C00
007C00
00DC00
009C00
011C00
021C00
07FC00
081C00
101C00
101C00
203C00
F07E00
ENDCHAR
STARTCHAR 00C5
ENCODING 197
SWIDTH 666 0
DWIDTH 16 0
BBX 17 21 -1 0
BITMAP
000700
000900
000880
000880
000900
000600
000600
000C00
001C00
003C00
007C00
00DC00
009C00
011C00
021C00
07FC00
081C00
101C00
101C00
203C00
F07E00
ENDCHAR
STARTCHAR 00C6
ENCODING 198
SWIDTH 958 0
DWIDTH 23 0
BBX 24 16 -1 0
BITMAP
003FFF
000B87
001F82
003702
002700
004F08
008F18
018FF0
030E30
021E10
07FC00
081C00
103C04
303808
203838
F0FFF8
ENDCHAR
STARTCHAR 00C7
ENCODING 199
SWIDTH 666 0
DWIDTH 16 0
BBX 15 20 2 -4
BITMAP
01FE
0706
1E06
3C00
7800
7800
F000
F000
F000
E000
E000
E000
F010
7020
3CC0
1F80
0E00
0700
0700
1E00
ENDCHAR
STARTCHAR 00C8
ENCODING 200
SWIDTH 666 0
DWIDTH 16 0
BBX 16 22 0 0
BITMAP
01E0
00E0
0070
0030
0010
0000
0FFF
0783
0781
0700
0F00
0F08
0E10
0FF0
1E30
1E10
1C00
3C00
3C04
380C
7838
FFF8
ENDCHAR
STARTCHAR 00C9
ENCODING 201
SWIDTH 666 0
DWIDTH 16 0
BBX 16 21 0 0
BITMAP
001C
0018
0030
0020
0000
0FFF
0783
0781
0700
0F00
0F08
0E10
0FF0
1E30
1E10
1C00
3C00
3C04
380C
7838
FFF8
ENDCHAR
STARTCHAR 00CA
ENCODING 202
SWIDTH 666 0
DWIDTH 16 0
BBX 16 22 0 0
BITMAP
0038
0038
006C
00CC
0104
0000
0FFF
0783
0781
0700
0F00
0F08
0E10
0FF0
1E30
1E10
1C00
3C00
3C04
380C
7838
FFF8
ENDCHAR
STARTCHAR 00CB
ENCODING 203
SWIDTH 666 0
DWIDTH 16 0
BBX 16 21 0 0
BITMAP
00CC
01EE
00CC
0000
0000
0FFF
0783
0781
0700
0F00
0F08
0E10
0FF0
1E30
1E10
1C00
3C00
3C04
380C
7838
FFF8
ENDCHAR
STARTCHAR 00CC
ENCODING 204
SWIDTH 375 0
DWIDTH 9 0
BBX 12 22 -1 0
BITMAP
0380
01C0
00C0
0040
0000
0000
0FF0
03C0
03C0
0380
0380
0780
0780
0700
0F00
0F00
0E00
1E00
1E00
1C00
3C00
FF00
ENDCHAR
STARTCHAR 00CD
ENCODING 205
SWIDTH 375 0
DWIDTH 9 0
BBX 13 21 -1 0
BITMAP
0078
0070
0060
00C0
0000
0FF0
03C0
03C0
0380
0780
0780
0700
0700
0F00
0F00
0E00
1E00
1E00
1C00
3C00
FF00
ENDCHAR
STARTCHAR 00CE
ENCODING 206
SWIDTH 375 0
DWIDTH 9 0
BBX 12 22 -1 0
BITMAP
00E0
01E0
01B0
0230
0410
0000
0FF0
03C0
03C0
0380
0780
0780
0700
0700
0F00
0F00
0E00
1E00
1E00
1C00
3C00
FF00
ENDCHAR
STARTCHAR 00CF
ENCODING 207
SWIDTH 375 0
DWIDTH 9 0
BBX 13 21 -1 0
BITMAP
0330
0738
0330
0000
0000
0FF0
03C0
03C0
0380
0780
0780
0700
0700
0F00
0F00
0E00
1E00
1E00
1C00
3C00
FF00
ENDCHAR
STARTCHAR 00D0
ENCODING 208
SWIDTH 708 0
DWIDTH 17 0
BBX 17 16 0 0
BITMAP
1FF800
07BE00
078F00
070F00
070780
0F0780
0E0780
3FE780
1E0780
1E0780
1C0F00
3C0E00
3C1E00
383C00
387000
FFC000
ENDCHAR
STARTCHAR 00D1
ENCODING 209
SWIDTH 708 0
DWIDTH 17 0
BBX 20 21 -1 0
BITMAP
003800
007D00
005F00
004600
000000
0FC1F0
03C040
03E040
03E040
04F080
04F080
047880
047900
083D00
083D00
081F00
101E00
100E00
100E00
300400
F80400
ENDCHAR
STARTCHAR 00D2
ENCODING 210
SWIDTH 708 0
DWIDTH 17 0
BBX 16 22 1 0
BITMAP
00E0
0060
0030
0010
0010
0000
00F8
030E
0E0E
1E0F
3C0F
3C0F
780F
780F
780F
F01E
F01E
F03C
7038
7070
38E0
1F80
ENDCHAR
STARTCHAR 00D3
ENCODING 211
SWIDTH 708 0
DWIDTH 17 0
BBX 16 22 1 0
BITMAP
001C
0038
0030
0020
0000
0000
00F8
030E
0E0E
1E0F
3C0F
3C0F
780F
780F
780F
F01E
F01E
F03C
7038
7070
38E0
1F80
ENDCHAR
STARTCHAR 00D4
ENCODING 212
SWIDTH 708 0
DWIDTH 17 0
BBX 16 22 1 0
BITMAP
0038
0078
00EC
008C
0104
0000
00F8
030E
0E0E
1E0F
3C0F
3C0F
780F
780F
780F
F01E
F01E
F03C
7038
7070
38E0
1F80
ENDCHAR
STARTCHAR 00D5
ENCODING 213
SWIDTH 708 0
DWIDTH 17 0
BBX 16 21 1 0
BITMAP
00F2
00FE
013C
0000
0000
00F8
030E
0E0E
1E0F
3C0F
3C0F
780F
780F
780F
F01E
F01E
F03C
7038
7070
38E0
1F80
ENDCHAR
STARTCHAR 00D6
ENCODING 214
SWIDTH 708 0
DWIDTH 17 0
BBX 16 21 1 0
BITMAP
00CC
01EE
00CC
0000
0000
00F8
030E
0E0E
1E0F
3C0F
3C0F
780F
780F
780F
F01E
F01E
F03C
7038
7070
38E0
1F80
ENDCHAR
STARTCHAR 00D7
ENCODING 215
SWIDTH 583 0
DWIDTH 14 0
BBX 10 10 2 3
BITMAP
C0C0
E180
7300
3E00
1C00
1E00
3700
6300
C1C0
8080
ENDCHAR
STARTCHAR 00D8
ENCODING 216
SWIDTH 708 0
DWIDTH 17 0
BBX 16 16 1 0
BITMAP
00F9
030E
0E0E
1E0F
3C1F
3C2F
784F
788F
790F
F21E
F41E
F83C
7038
7070
78E0
9F00
ENDCHAR
STARTCHAR 00D9
ENCODING 217
SWIDTH 708 0
DWIDTH 17 0
BBX 17 22 2 0
BITMAP
01C000
00E000
006000
002000
000000
000000
7F8F80
1E0200
1C0200
1C0400
3C0400
3C0400
380400
780800
780800
700800
701000
F01000
F01000
702000
78C000
1F0000
ENDCHAR
STARTCHAR 00DA
ENCODING 218
SWIDTH 708 0
DWIDTH 17 0
BBX 17 22 2 0
BITMAP
007800
007000
006000
00C000
000000
000000
7F8F80
1E0200
1C0200
1C0400
3C0400
3C0400
380400
780800
780800
700800
701000
F01000
F01000
702000
78C000
1F0000
ENDCHAR
STARTCHAR 00DB
ENCODING 219
SWIDTH 708 0
DWIDTH 17 0
BBX 17 22 2 0
BITMAP
007000
00F000
01B000
031000
060800
000000
7F8F80
1E0200
1C0200
1C0400
3C0400
3C0400
380400
780800
780800
700800
701000
F01000
F01000
702000
78C000
1F0000
ENDCHAR
STARTCHAR 00DC
ENCODING 220
SWIDTH 708 0
DWIDTH 17 0
BBX 17 21 2 0
BITMAP
031800
03B800
031800
000000
000000
7F8F80
1E0200
1C0200
1C0400
3C0400
3C0400
380400
780800
780800
700800
701000
F01000
F01000
702000
78C000
1F0000
ENDCHAR
STARTCHAR 00DD
ENCODING 221
SWIDTH 625 0
DWIDTH 15 0
BBX 15 21 2 0
BITMAP
0038
0030
0060
0040
0000
7FBE
3E0C
1C18
1E10
1E20
0E20
0E40
0E80
0F00
0F00
0E00
0E00
1E00
1E00
3C00
FF00
ENDCHAR
STARTCHAR 00DE
ENCODING 222
SWIDTH 625 0
DWIDTH 15 0
BBX 15 16 -1 0
BITMAP
07F0
03C0
0380
03F8
039E
078E
070E
070E
0F1E
0E1E
0E3C
1FE0
1E00
1C00
3C00
FF00
ENDCHAR
STARTCHAR 00DF
ENCODING 223
SWIDTH 500 0
DWIDTH 12 0
BBX 16 21 -4 -5
BITMAP
001E
0073
00E3
00E3
00C7
01C6
01CC
01D8
038C
038E
038E
038E
071C
075C
07D8
0E70
0E00
0E00
1C00
D800
F000
ENDCHAR
STARTCHAR 00E0
ENCODING 224
SWIDTH 500 0
DWIDTH 12 0
BBX 11 16 0 0
BITMAP
0780
0180
0080
0040
0000
0760
0CE0
18E0
38C0
71C0
71C0
73C0
F380
F7A0
7BC0
7380
ENDCHAR
STARTCHAR 00E1
ENCODING 225
SWIDTH 500 0
DWIDTH 12 0
BBX 11 16 0 0
BITMAP
00E0
01C0
0180
0100
0000
0760
0CE0
18E0
38C0
71C0
71C0
73C0
F380
F7A0
7BC0
7380
ENDCHAR
STARTCHAR 00E2
ENCODING 226
SWIDTH 500 0
DWIDTH 12 0
BBX 11 16 0 0
BITMAP
01C0
03C0
0660
0820
0000
0760
0CE0
18E0
38C0
71C0
71C0
73C0
F380
F7A0
7BC0
7380
ENDCHAR
STARTCHAR 00E3
ENCODING 227
SWIDTH 500 0
DWIDTH 12 0
BBX 12 16 0 0
BITMAP
0790
0FE0
09E0
0000
0000
0760
0CE0
18E0
38C0
71C0
71C0
73C0
F380
F7A0
7BC0
7380
ENDCHAR
STARTCHAR 00E4
ENCODING 228
SWIDTH 500 0
DWIDTH 12 0
BBX 12 16 0 0
BITMAP
0660
0E70
0660
0000
0000
0760
0CE0
18E0
38C0
71C0
71C0
73C0
F380
F7A0
7BC0
7380
ENDCHAR
STARTCHAR 00E5
ENCODING 229
SWIDTH 500 0
DWIDTH 12 0
BBX 11 16 0 0
BITMAP
01C0
0220
0220
01C0
0000
0760
0CE0
18E0
38C0
71C0
71C0
73C0
F380
F7A0
7BC0
7380
ENDCHAR
STARTCHAR 00E6
ENCODING 230
SWIDTH 708 0
DWIDTH 17 0
BBX 17 11 0 0
BITMAP
077780
0CFB80
18F380
38E380
70E700
71DC00
71E000
F3C000
F5C100
79FE00
70F800
ENDCHAR
STARTCHAR 00E7
ENCODING 231
SWIDTH 458 0
DWIDTH 11 0
BBX 9 15 1 -4
BITMAP
0780
1880
3180
7180
E000
E000
E000
E000
E100
FE00
7C00
3000
1800
1800
F000
ENDCHAR
STARTCHAR 00E8
ENCODING 232
SWIDTH 458 0
DWIDTH 11 0
BBX 10 16 1 0
BITMAP
0E00
0600
0300
0100
0000
0780
19C0
3180
7380
E700
FC00
E000
E000
E100
FE00
7800
ENDCHAR
STARTCHAR 00E9
ENCODING 233
SWIDTH 458 0
DWIDTH 11 0
BBX 11 16 1 0
BITMAP
01E0
01C0
0180
0300
0000
0780
19C0
3180
7380
E700
FC00
E000
E000
E100
FE00
7800
ENDCHAR
STARTCHAR 00EA
ENCODING 234
SWIDTH 458 0
DWIDTH 11 0
BBX 10 16 1 0
BITMAP
0780
0F80
1880
30C0
0000
0780
19C0
3180
7380
E700
FC00
E000
E000
E100
FE00
7800
ENDCHAR
STARTCHAR 00EB
ENCODING 235
SWIDTH 458 0
DWIDTH 11 0
BBX 10 16 1 0
BITMAP
19C0
1DC0
19C0
0000
0000
0780
19C0
3180
7380
E700
FC00
E000
E000
E100
FE00
7800
ENDCHAR
STARTCHAR 00EC
ENCODING 236
SWIDTH 291 0
DWIDTH 7 0
BBX 5 16 1 0
BITMAP
70
38
18
08
00
18
F8
30
70
70
70
E0
E0
E8
F0
E0
ENDCHAR
STARTCHAR 00ED
ENCODING 237
SWIDTH 291 0
DWIDTH 7 0
BBX 7 16 1 0
BITMAP
0E
1C
18
10
00
78
78
70
70
70
70
E0
E0
F0
F0
E0
ENDCHAR
STARTCHAR 00EE
ENCODING 238
SWIDTH 291 0
DWIDTH 7 0
BBX 7 16 1 0
BITMAP
1C
3C
66
82
00
78
78
70
70
70
70
E0
E0
F0
F0
E0
ENDCHAR
STARTCHAR 00EF
ENCODING 239
SWIDTH 291 0
DWIDTH 7 0
BBX 8 16 1 0
BITMAP
66
E7
66
00
00
78
78
70
70
70
70
E0
E0
F0
F0
E0
ENDCHAR
STARTCHAR 00F0
ENCODING 240
SWIDTH 500 0
DWIDTH 12 0
BBX 10 16 1 1
BITMAP
0240
0180
0780
0180
00C0
0EC0
39C0
71C0
71C0
E1C0
E1C0
E380
E380
C300
E600
7800
ENDCHAR
STARTCHAR 00F1
ENCODING 241
SWIDTH 541 0
DWIDTH 13 0
BBX 12 16 0 0
BITMAP
0790
0FE0
09E0
0000
0000
1C70
1CF0
1D70
3A70
3CE0
38E0
38E0
71C0
71D0
71E0
E1C0
ENDCHAR
STARTCHAR 00F2
ENCODING 242
SWIDTH 500 0
DWIDTH 12 0
BBX 10 16 1 0
BITMAP
0F00
0700
0300
0100
0000
0780
19C0
31C0
71C0
F1C0
E1C0
E380
E380
E700
E600
7800
ENDCHAR
STARTCHAR 00F3
ENCODING 243
SWIDTH 500 0
DWIDTH 12 0
BBX 11 16 1 0
BITMAP
01E0
0180
0300
0200
0000
0780
19C0
31C0
71C0
F1C0
E1C0
E380
E380
E700
E600
7800
ENDCHAR
STARTCHAR 00F4
ENCODING 244
SWIDTH 500 0
DWIDTH 12 0
BBX 10 16 1 0
BITMAP
0380
0780
0CC0
1040
0000
0780
19C0
31C0
71C0
F1C0
E1C0
E380
E380
E700
E600
7800
ENDCHAR
STARTCHAR 00F5
ENCODING 245
SWIDTH 500 0
DWIDTH 12 0
BBX 11 16 1 0
BITMAP
0F20
1FC0
13C0
0000
0000
0780
19C0
31C0
71C0
F1C0
E1C0
E380
E380
E700
E600
7800
ENDCHAR
STARTCHAR 00F6
ENCODING 246
SWIDTH 500 0
DWIDTH 12 0
BBX 11 16 1 0
BITMAP
0CC0
1CE0
0CC0
0000
0000
0780
19C0
31C0
71C0
F1C0
E1C0
E380
E380
E700
E600
7800
ENDCHAR
STARTCHAR 00F7
ENCODING 247
SWIDTH 541 0
DWIDTH 13 0
BBX 12 10 1 4
BITMAP
0600
0600
0000
0000
FFF0
FFF0
0000
0000
0600
0600
ENDCHAR
STARTCHAR 00F8
ENCODING 248
SWIDTH 500 0
DWIDTH 12 0
BBX 11 11 0 0
BITMAP
03C0
0CE0
18E0
38E0
79E0
76E0
7DC0
71C0
7180
7300
BC00
ENDCHAR
STARTCHAR 00F9
ENCODING 249
SWIDTH 541 0
DWIDTH 13 0
BBX 11 16 1 0
BITMAP
0700
0300
0100
0080
0000
78E0
38E0
38E0
71C0
71C0
73C0
E5C0
E780
EBA0
F3C0
E380
ENDCHAR
STARTCHAR 00FA
ENCODING 250
SWIDTH 541 0
DWIDTH 13 0
BBX 11 16 1 0
BITMAP
01C0
0380
0300
0200
0000
78E0
38E0
38E0
71C0
71C0
73C0
E5C0
E780
EBA0
F3C0
E380
ENDCHAR
STARTCHAR 00FB
ENCODING 251
SWIDTH 541 0
DWIDTH 13 0
BBX 11 16 1 0
BITMAP
0380
07C0
0CC0
1840
0000
78E0
38E0
38E0
71C0
71C0
73C0
E5C0
E780
EBA0
F3C0
E380
ENDCHAR
STARTCHAR 00FC
ENCODING 252
SWIDTH 541 0
DWIDTH 13 0
BBX 11 16 1 0
BITMAP
1CC0
1DC0
1CC0
0000
0000
78E0
38E0
38E0
71C0
71C0
73C0
E5C0
E780
EBA0
F3C0
E380
ENDCHAR
STARTCHAR 00FD
ENCODING 253
SWIDTH 458 0
DWIDTH 11 0
BBX 13 21 -2 -5
BITMAP
0078
0070
0060
00C0
0000
0E30
1E38
0E38
0E10
0E10
0620
0640
0740
0780
0700
0700
0600
0400
C800
F000
E000
ENDCHAR
STARTCHAR 00FE
ENCODING 254
SWIDTH 500 0
DWIDTH 12 0
BBX 14 22 -3 -5
BITMAP
0020
03C0
01C0
01C0
0180
0380
03B8
03FC
079C
071C
071C
0E1C
0E1C
0E38
0E30
1C60
1FC0
1C00
3800
3800
3800
FC00
ENDCHAR
STARTCHAR 00FF
ENCODING 255
SWIDTH 458 0
DWIDTH 11 0
BBX 13 21 -2 -5
BITMAP
0330
0738
0330
0000
0000
0E30
1E38
0E38
0E10
0E10
0620
0640
0740
0780
0700
0700
0600
0400
C800
F000
E000
ENDCHAR
STARTCHAR 0100
ENCODING 256
SWIDTH 666 0
DWIDTH 16 0
BBX 19 20 -1 0
BITMAP
001FE0
003FE0
000000
000000
000200
000600
000C00
001C00
003C00
007C00
00DC00
009C00
011C00
021C00
07FC00
081C00
101C00
101C00
203C00
F07E00
ENDCHAR
STARTCHAR 0101
ENCODING 257
SWIDTH 500 0
DWIDTH 12 0
BBX 13 15 0 0
BITMAP
0FF8
0FF0
0000
0000
0760
0CE0
18E0
38C0
71C0
71C0
73C0
F380
F7A0
7BC0
7380
ENDCHAR
STARTCHAR 0102
ENCODING 258
SWIDTH 666 0
DWIDTH 16 0
BBX 19 22 -1 0
BITMAP
000820
000840
000CC0
000F80
000700
000000
000200
000600
000C00
001C00
003C00
007C00
00DC00
009C00
011C00
021C00
07FC00
081C00
101C00
101C00
203C00
F07E00
ENDCHAR
STARTCHAR 0103
ENCODING 259
SWIDTH 500 0
DWIDTH 12 0
BBX 11 16 0 0
BITMAP
0420
07C0
0780
0000
0000
0760
0CE0
18E0
38C0
71C0
71C0
73C0
F380
F7A0
7BC0
7380
ENDCHAR
STARTCHAR 0104
ENCODING 260
SWIDTH 666 0
DWIDTH 16 0
BBX 15 21 -1 -5
BITMAP
0002
0006
000C
001C
003C
007C
00DC
009C
011C
021C
07FC
081C
101C
101C
203C
F07E
0010
0020
0060
0068
0070
ENDCHAR
STARTCHAR 0105
ENCODING 261
SWIDTH 500 0
DWIDTH 12 0
BBX 11 16 0 -5
BITMAP
0760
0CE0
18E0
38C0
71C0
71C0
73C0
F580
F7A0
7BC0
7380
0300
0600
0C00
0E80
0700
ENDCHAR
STARTCHAR 0106
ENCODING 262
SWIDTH 666 0
DWIDTH 16 0
BBX 15 22 2 0
BITMAP
003C
0038
0030
0060
0040
0000
01FE
0706
1E06
3C00
7800
7800
F000
F000
F000
E000
E000
E000
F000
7030
3840
1F80
ENDCHAR
STARTCHAR 0107
ENCODING 263
SWIDTH 458 0
DWIDTH 11 0
BBX 10 16 1 0
BITMAP
01C0
0380
0300
0600
0000
0780
1880
3180
6180
E000
E000
E000
E000
E100
FE00
7800
ENDCHAR
STARTCHAR 0108
ENCODING 264
SWIDTH 666 0
DWIDTH 16 0
BBX 15 22 2 0
BITMAP
0078
00F8
00C8
010C
0000
0000
01FE
0706
1E06
3C00
7800
7800
F000
F000
F000
E000
E000
E000
F000
7030
3840
1F80
ENDCHAR
STARTCHAR 0109
ENCODING 265
SWIDTH 458 0
DWIDTH 11 0
BBX 10 16 1 0
BITMAP
0780
0F80
1880
30C0
0000
0780
1880
3180
6180
E000
E000
E000
E000
E100
FE00
7800
ENDCHAR
STARTCHAR 010A
ENCODING 266
SWIDTH 666 0
DWIDTH 16 0
BBX 15 22 2 0
BITMAP
0060
0070
0070
0060
0000
0000
01FE
0706
1E06
3C00
7800
7800
F000
F000
F000
E000
E000
E000
F000
7030
3840
1F80
ENDCHAR
STARTCHAR 010B
ENCODING 267
SWIDTH 458 0
DWIDTH 11 0
BBX 9 16 1 0
BITMAP
0300
0780
0780
0300
0000
0780
1880
3180
6180
E000
E000
E000
E000
E100
FE00
7800
ENDCHAR
STARTCHAR 010C
ENCODING 268
SWIDTH 666 0
DWIDTH 16 0
BBX 15 22 2 0
BITMAP
010C
0198
01F0
00E0
0000
0000
01FE
0706
1E06
3C00
7800
7800
F000
F000
F000
E000
E000
E000
F000
7030
3840
1F80
ENDCHAR
STARTCHAR 010D
ENCODING 269
SWIDTH 458 0
DWIDTH 11 0
BBX 11 16 1 0
BITMAP
0C60
0CC0
0780
0780
0000
0780
1880
3180
6180
E000
E000
E000
E000
E100
FE00
7800
ENDCHAR
STARTCHAR 010E
ENCODING 270
SWIDTH 708 0
DWIDTH 17 0
BBX 18 21 -1 0
BITMAP
008600
00CC00
00F800
007000
000000
0FFC00
03DF00
03C780
038380
0383C0
0783C0
0783C0
0703C0
0F03C0
0F0780
0E0780
0E0700
1E0F00
1C1E00
3C3800
FFE000
ENDCHAR
STARTCHAR 010F
ENCODING 271
SWIDTH 750 0
DWIDTH 18 0
BBX 18 16 0 0
BITMAP
003980
007BC0
0073C0
0071C0
007080
076100
0CE600
18E000
38E000
71C000
71C000
73C000
758000
F7A000
7BC000
738000
ENDCHAR
STARTCHAR 0110
ENCODING 272
SWIDTH 708 0
DWIDTH 17 0
BBX 17 16 0 0
BITMAP
1FF800
07BE00
078F00
070F00
070780
0F0780
0E0780
3FE780
1E0780
1E0780
1C0F00
3C0E00
3C1E00
383C00
387000
FFC000
ENDCHAR
STARTCHAR 0111
ENCODING 273
SWIDTH 500 0
DWIDTH 12 0
BBX 14 16 0 0
BITMAP
0078
0038
07FC
0070
0070
0760
0CE0
18E0
38C0
71C0
71C0
73C0
7580
F7A0
7BC0
7380
ENDCHAR
STARTCHAR 0112
ENCODING 274
SWIDTH 666 0
DWIDTH 16 0
BBX 16 20 0 0
BITMAP
01FF
01FE
0000
0000
0FFF
0783
0781
0700
0F00
0F08
0E10
0FF0
1E30
1E10
1C00
3C00
3C04
380C
7838
FFF8
ENDCHAR
STARTCHAR 0113
ENCODING 275
SWIDTH 458 0
DWIDTH 11 0
BBX 11 15 1 0
BITMAP
1FE0
3FE0
0000
0000
0780
19C0
3180
7380
E700
FC00
E000
E000
E100
FE00
7800
ENDCHAR
STARTCHAR 0114
ENCODING 276
SWIDTH 666 0
DWIDTH 16 0
BBX 16 22 0 0
BITMAP
0002
00C4
007C
0078
0000
0000
0FFF
0783
0781
0700
0F00
0F08
0E10
0FF0
1E30
1E10
1C00
3C00
3C04
380C
7838
FFF8
ENDCHAR
STARTCHAR 0115
ENCODING 277
SWIDTH 458 0
DWIDTH 11 0
BBX 11 16 1 0
BITMAP
0820
0FC0
0780
0000
0000
0780
19C0
3180
7380
E700
FC00
E000
E000
E100
FE00
7800
ENDCHAR
STARTCHAR 0116
ENCODING 278
SWIDTH 666 0
DWIDTH 16 0
BBX 16 21 0 0
BITMAP
0030
0078
0078
0030
0000
0FFF
0783
0781
0700
0F00
0F08
0E10
0FF0
1E30
1E10
1C00
3C00
3C04
380C
7838
FFF8
ENDCHAR
STARTCHAR 0117
ENCODING 279
SWIDTH 458 0
DWIDTH 11 0
BBX 10 16 1 0
BITMAP
0300
0700
0700
0300
0000
0780
19C0
3180
7380
E700
FC00
E000
E000
E100
FE00
7800
ENDCHAR
STARTCHAR 0118
ENCODING 280
SWIDTH 666 0
DWIDTH 16 0
BBX 16 21 0 -5
BITMAP
0FFF
0783
0781
0700
0F00
0F08
0E10
0FF0
1E30
1E10
1C00
3C00
3C04
380C
7838
FFF8
0020
0040
00C0
01D0
00E0
ENDCHAR
STARTCHAR 0119
ENCODING 281
SWIDTH 458 0
DWIDTH 11 0
BBX 10 16 1 -5
BITMAP
0780
19C0
3180
7380
E700
FC00
E000
E000
E100
FE00
7800
1000
2000
6000
7800
7000
ENDCHAR
STARTCHAR 011A
ENCODING 282
SWIDTH 666 0
DWIDTH 16 0
BBX 16 21 0 0
BITMAP
0184
00DC
00F8
00F0
0000
0FFF
0783
0781
0700
0F00
0F08
0E10
0FF0
1E30
1E10
1C00
3C00
3C04
380C
7838
FFF8
ENDCHAR
STARTCHAR 011B
ENCODING 283
SWIDTH 458 0
DWIDTH 11 0
BBX 11 16 1 0
BITMAP
0860
0CC0
0F80
0700
0000
0780
19C0
3180
7380
E700
FC00
E000
E000
E100
FE00
7800
ENDCHAR
STARTCHAR 011C
ENCODING 284
SWIDTH 708 0
DWIDTH 17 0
BBX 16 22 2 0
BITMAP
0038
007C
00CC
0184
0000
0000
01FF
0707
1E02
3C02
7802
7800
F000
F0FE
F03C
E038
E038
E078
F078
7070
38F0
0FC0
ENDCHAR
STARTCHAR 011D
ENCODING 285
SWIDTH 500 0
DWIDTH 12 0
BBX 13 21 -1 -5
BITMAP
00E0
01F0
0330
0610
0000
07C0
1C78
1C70
3C70
18F0
18E0
0F80
1000
3C00
3F80
1FC0
67C0
C0C0
C0C0
E080
3F00
ENDCHAR
STARTCHAR 011E
ENCODING 286
SWIDTH 708 0
DWIDTH 17 0
BBX 16 22 2 0
BITMAP
0082
00C4
007C
0078
0000
0000
01FF
0707
1E02
3C02
7802
7800
F000
F0FE
F03C
E038
E038
E078
F078
7070
38F0
0FC0
ENDCHAR
STARTCHAR 011F
ENCODING 287
SWIDTH 500 0
DWIDTH 12 0
BBX 13 21 -1 -5
BITMAP
0210
03F0
03C0
0000
0000
07C0
1C78
1C70
3C70
18F0
18E0
0F80
1000
3C00
3F80
1FC0
67C0
C0C0
C0C0
C080
3F00
ENDCHAR
STARTCHAR 0120
ENCODING 288
SWIDTH 708 0
DWIDTH 17 0
BBX 16 22 2 0
BITMAP
0030
0078
0078
0030
0000
0000
01FF
0707
1E02
3C02
7802
7800
F000
F0FE
F03C
E038
E038
E078
F078
7070
38F0
0FC0
ENDCHAR
STARTCHAR 0121
ENCODING 289
SWIDTH 500 0
DWIDTH 12 0
BBX 13 21 -1 -5
BITMAP
00C0
01E0
01E0
00C0
0000
07C0
1C78
1C70
3C70
18F0
18E0
0F80
1000
3C00
3F80
1FC0
67C0
C0C0
C0C0
E080
3F00
ENDCHAR
STARTCHAR 0122
ENCODING 290
SWIDTH 708 0
DWIDTH 17 0
BBX 16 22 2 -7
BITMAP
01FF
0707
1E02
3C02
7802
7800
F000
F0FE
F03C
E038
E038
E078
F078
7070
38F0
0FC0
0000
0600
0700
0600
0200
0C00
ENDCHAR
STARTCHAR 0123
ENCODING 291
SWIDTH 500 0
DWIDTH 12 0
BBX 13 22 -1 -4
BITMAP
0040
0080
00C0
00C0
0000
0000
07C0
1C78
1C70
3870
38F0
18E0
0F80
1000
3800
3F80
1FC0
67C0
C0C0
C0C0
E080
3F00
ENDCHAR
STARTCHAR 0124
ENCODING 292
SWIDTH 791 0
DWIDTH 19 0
BBX 22 22 -1 0
BITMAP
000700
000F00
000D80
001180
002080
000000
0FF3FC
03C1F0
03C1E0
0381E0
0781C0
0783C0
0703C0
07FF80
0F0780
0E0780
0E0780
1E0700
1E0F00
1C0F00
3C0F00
FF3F80
ENDCHAR
STARTCHAR 0125
ENCODING 293
SWIDTH 541 0
DWIDTH 13 0
BBX 14 22 0 0
BITMAP
0078
0078
00C8
010C
0000
0000
0F00
0E00
0E00
0E00
0E00
1C60
1CF0
1D70
3A70
3CE0
38E0
38E0
71C0
71D0
71E0
E1C0
ENDCHAR
STARTCHAR 0126
ENCODING 294
SWIDTH 791 0
DWIDTH 19 0
BBX 22 16 -1 0
BITMAP
0FF3FC
03C1E0
0FFFF8
0381E0
0781C0
0783C0
0703C0
0FFF80
0F0780
0E0780
0E0780
1E0700
1E0F00
1C0F00
3C0F00
FF3F80
ENDCHAR
STARTCHAR 0127
ENCODING 295
SWIDTH 541 0
DWIDTH 13 0
BBX 12 16 0 0
BITMAP
1F00
0E00
1FE0
0E00
0C00
1C70
1CF0
1D70
3A70
3CE0
38E0
38E0
71C0
71D0
71E0
E1C0
ENDCHAR
STARTCHAR 0128
ENCODING 296
SWIDTH 375 0
DWIDTH 9 0
BBX 13 21 -1 0
BITMAP
03C8
03F8
04F0
0000
0000
0FF0
03C0
03C0
0380
0780
0780
0700
0700
0F00
0F00
0E00
1E00
1E00
1C00
3C00
FF00
ENDCHAR
STARTCHAR 0129
ENCODING 297
SWIDTH 291 0
DWIDTH 7 0
BBX 8 16 1 0
BITMAP
39
7F
1E
00
00
78
78
70
70
70
70
E0
E0
F0
F0
E0
ENDCHAR
STARTCHAR 012A
ENCODING 298
SWIDTH 375 0
DWIDTH 9 0
BBX 13 20 -1 0
BITMAP
07F8
07F8
0000
0000
0FF0
03C0
03C0
0380
0780
0780
0700
0700
0F00
0F00
0E00
1E00
1E00
1C00
3C00
FF00
ENDCHAR
STARTCHAR 012B
ENCODING 299
SWIDTH 291 0
DWIDTH 7 0
BBX 8 15 1 0
BITMAP
FF
FF
00
00
78
78
70
70
70
70
E0
E0
F0
F0
E0
ENDCHAR
STARTCHAR 012C
ENCODING 300
SWIDTH 375 0
DWIDTH 9 0
BBX 13 22 -1 0
BITMAP
0208
0310
01F0
01E0
0000
0000
0FF0
03C0
03C0
0380
0380
0780
0780
0700
0F00
0F00
0E00
1E00
1E00
1C00
3C00
FF00
ENDCHAR
STARTCHAR 012D
ENCODING 301
SWIDTH 291 0
DWIDTH 7 0
BBX 8 16 1 0
BITMAP
01
3E
3C
00
00
78
78
70
70
70
70
E0
E0
E8
F0
E0
ENDCHAR
STARTCHAR 012E
ENCODING 302
SWIDTH 375 0
DWIDTH 9 0
BBX 12 21 -1 -5
BITMAP
0FF0
03C0
03C0
0380
0380
0780
0780
0700
0F00
0F00
0E00
1E00
1E00
1C00
3C00
FF00
0800
3000
2000
7400
3800
ENDCHAR
STARTCHAR 012F
ENCODING 303
SWIDTH 291 0
DWIDTH 7 0
BBX 8 21 -1 -5
BITMAP
06
07
07
07
00
1E
1E
1C
1C
1C
1C
38
38
3A
7C
38
20
60
C0
F8
E0
ENDCHAR
STARTCHAR 0130
ENCODING 304
SWIDTH 375 0
DWIDTH 9 0
BBX 12 21 -1 0
BITMAP
00C0
01C0
01C0
00C0
0000
0FF0
03C0
03C0
0380
0780
0780
0700
0700
0F00
0F00
0E00
1E00
1E00
1C00
3C00
FF00
ENDCHAR
STARTCHAR 0131
ENCODING 305
SWIDTH 291 0
DWIDTH 7 0
BBX 5 11 1 0
BITMAP
78
78
70
70
70
70
E0
E0
F0
F0
E0
ENDCHAR
STARTCHAR 0132
ENCODING 306
SWIDTH 833 0
DWIDTH 20 0
BBX 23 16 -1 0
BITMAP
0FF1FE
03C078
03C078
038070
0380F0
0780F0
0780E0
0700E0
0F01E0
0F01E0
0E01C0
1E03C0
1E7380
1C7380
3C6700
FF3E00
ENDCHAR
STARTCHAR 0133
ENCODING 307
SWIDTH 541 0
DWIDTH 13 0
BBX 12 21 1 -5
BITMAP
0C70
1C70
1C70
0C70
0000
38E0
38E0
38E0
30E0
71C0
71C0
71C0
E1C0
EB80
F380
E380
0300
0700
2600
7600
3800
ENDCHAR
STARTCHAR 0134
ENCODING 308
SWIDTH 500 0
DWIDTH 12 0
BBX 14 22 0 0
BITMAP
0038
007C
00CC
0184
0000
0000
03FC
00F0
00F0
00E0
00E0
01E0
01E0
01C0
03C0
03C0
0380
0780
E780
E700
CE00
7C00
ENDCHAR
STARTCHAR 0135
ENCODING 309
SWIDTH 291 0
DWIDTH 7 0
BBX 12 21 -4 -5
BITMAP
00E0
01F0
0330
0410
0000
01C0
01C0
01C0
0380
0380
0380
0380
0700
0700
0700
0700
0E00
0E00
4C00
FC00
7000
ENDCHAR
STARTCHAR 0136
ENCODING 310
SWIDTH 666 0
DWIDTH 16 0
BBX 18 22 0 -7
BITMAP
1FEFC0
078600
078400
071800
073000
0F6000
0FC000
0FE000
1EE000
1EE000
1CF000
3C7000
3C7000
387800
387800
FEFC00
000200
030000
030000
030000
020000
040000
ENDCHAR
STARTCHAR 0137
ENCODING 311
SWIDTH 500 0
DWIDTH 12 0
BBX 12 22 0 -7
BITMAP
0F00
0E00
0E00
0E00
0C00
1DF0
1C40
1C80
3900
3B00
3F00
7B80
7380
73A0
73C0
E180
0000
0C00
1C00
0C00
0800
1000
ENDCHAR
STARTCHAR 0138
ENCODING 312
SWIDTH 500 0
DWIDTH 12 0
BBX 12 11 0 0
BITMAP
1DF0
3C40
1C80
3900
3B00
3F00
7B80
7380
73A0
73C0
E180
ENDCHAR
STARTCHAR 0139
ENCODING 313
SWIDTH 625 0
DWIDTH 15 0
BBX 13 21 0 0
BITMAP
0070
00E0
00C0
0080
0000
1FE0
0780
0780
0700
0F00
0F00
0E00
0E00
1E00
1E00
1C00
3C00
3C08
3818
7878
FFF0
ENDCHAR
STARTCHAR 013A
ENCODING 314
SWIDTH 291 0
DWIDTH 7 0
BBX 10 22 0 0
BITMAP
03C0
0380
0300
0600
0400
0000
0E00
0E00
0E00
0E00
1C00
1C00
1C00
3800
3800
3800
7000
7000
7000
7400
F800
7000
ENDCHAR
STARTCHAR 013B
ENCODING 315
SWIDTH 625 0
DWIDTH 15 0
BBX 13 22 0 -7
BITMAP
1FE0
0780
0780
0700
0F00
0F00
0E00
0E00
1E00
1E00
1C00
3C00
3C08
3818
7878
FFF0
0000
0600
0700
0600
0200
0C00
ENDCHAR
STARTCHAR 013C
ENCODING 316
SWIDTH 291 0
DWIDTH 7 0
BBX 8 22 -1 -7
BITMAP
07
07
07
07
0E
0E
0E
1C
1C
1C
38
38
38
3A
7C
38
00
60
70
30
20
C0
ENDCHAR
STARTCHAR 013D
ENCODING 317
SWIDTH 625 0
DWIDTH 15 0
BBX 16 16 0 0
BITMAP
0FE6
078F
078F
0707
0702
0F04
0F08
0E00
1E00
1E00
1C00
1C00
3C00
3C18
3838
FFF0
ENDCHAR
STARTCHAR 013E
ENCODING 318
SWIDTH 541 0
DWIDTH 13 0
BBX 13 16 0 0
BITMAP
0E70
0E70
0E78
0E30
1C30
1C20
1CC0
3800
3800
3800
7000
7000
7000
7400
F800
7000
ENDCHAR
STARTCHAR 013F
ENCODING 319
SWIDTH 625 0
DWIDTH 15 0
BBX 14 16 0 0
BITMAP
1FE0
0780
0780
0700
0F00
0F00
0E60
0EE0
1E60
1E00
1C00
3C04
3C08
3818
7878
FFF0
ENDCHAR
STARTCHAR 0140
ENCODING 320
SWIDTH 375 0
DWIDTH 9 0
BBX 9 16 0 0
BITMAP
0E00
0E00
0E00
0E00
1C00
1C00
1F00
3B80
3B00
3800
7000
7000
7000
6000
F800
7000
ENDCHAR
STARTCHAR 0141
ENCODING 321
SWIDTH 625 0
DWIDTH 15 0
BBX 13 16 0 0
BITMAP
0FE0
0780
0780
0700
0720
0FC0
0F80
0E00
1E00
3E00
5C00
9C00
3C08
3C18
3878
FFF0
ENDCHAR
STARTCHAR 0142
ENCODING 322
SWIDTH 291 0
DWIDTH 7 0
BBX 7 16 0 0
BITMAP
0E
0E
0E
0E
1C
1C
1E
38
38
F8
70
70
70
74
F8
70
ENDCHAR
STARTCHAR 0143
ENCODING 323
SWIDTH 708 0
DWIDTH 17 0
BBX 20 22 -1 0
BITMAP
000700
000E00
000C00
000C00
001800
000000
0FC1F0
03C040
03E040
03E040
04F080
04F080
047880
047900
083D00
083D00
081F00
101E00
100E00
100E00
300400
F80400
ENDCHAR
STARTCHAR 0144
ENCODING 324
SWIDTH 541 0
DWIDTH 13 0
BBX 12 16 0 0
BITMAP
00E0
01C0
0180
0100
0000
0C70
3CF0
1DF0
1E70
3CE0
3CE0
38E0
70C0
71D0
71E0
E1C0
ENDCHAR
STARTCHAR 0145
ENCODING 325
SWIDTH 708 0
DWIDTH 17 0
BBX 20 22 -1 -7
BITMAP
0FC1F0
03C040
03E040
03E040
04F080
04F080
047880
047900
083D00
083D00
081F00
101E00
100E00
100E00
300400
F80400
000000
018000
018000
018000
010000
020000
ENDCHAR
STARTCHAR 0146
ENCODING 326
SWIDTH 541 0
DWIDTH 13 0
BBX 12 17 0 -7
BITMAP
1C70
1CF0
1D70
3A70
3CE0
38E0
38E0
71C0
71D0
71E0
E1C0
0000
0C00
1C00
0C00
0800
1000
ENDCHAR
STARTCHAR 0147
ENCODING 327
SWIDTH 708 0
DWIDTH 17 0
BBX 20 21 -1 0
BITMAP
002100
003700
003E00
003C00
000000
0FC1F0
03C040
03E040
03E040
04F080
04F080
047880
047900
083D00
083D00
081F00
101E00
100E00
100E00
300400
F80400
ENDCHAR
STARTCHAR 0148
ENCODING 328
SWIDTH 541 0
DWIDTH 13 0
BBX 12 16 0 0
BITMAP
0630
0660
03C0
0380
0000
1C70
1CF0
1D70
3A70
3CE0
38E0
38E0
71C0
71D0
71E0
E1C0
ENDCHAR
STARTCHAR 0149
ENCODING 329
SWIDTH 708 0
DWIDTH 17 0
BBX 15 16 1 0
BITMAP
3000
7800
7800
3800
1000
238C
C39E
03AE
074E
079C
071C
071C
0E38
0E3A
0E3C
1C38
ENDCHAR
STARTCHAR 014A
ENCODING 330
SWIDTH 791 0
DWIDTH 19 0
BBX 20 16 -1 0
BITMAP
0FC780
03D8C0
03E0E0
03C0E0
0380F0
0780F0
0700E0
0701E0
0F01E0
0F01E0
0E03C0
1E03C0
1E2380
1C7300
3C7600
FF3800
ENDCHAR
STARTCHAR 014B
ENCODING 331
SWIDTH 541 0
DWIDTH 13 0
BBX 12 16 0 -5
BITMAP
1C60
1CF0
1D70
3A70
3CE0
38E0
38E0
71C0
71C0
71C0
E380
0380
0380
0700
3600
3C00
ENDCHAR
STARTCHAR 014C
ENCODING 332
SWIDTH 708 0
DWIDTH 17 0
BBX 16 20 1 0
BITMAP
01FF
01FE
0000
0000
00F8
030E
0E0E
1E0F
3C0F
3C0F
780F
780F
780F
F01E
F01E
F03C
7038
7070
38E0
1F80
ENDCHAR
STARTCHAR 014D
ENCODING 333
SWIDTH 500 0
DWIDTH 12 0
BBX 12 15 1 0
BITMAP
1FF0
1FE0
0000
0000
0780
19C0
31C0
71C0
F1C0
E1C0
E380
E380
E700
E600
7800
ENDCHAR
STARTCHAR 014E
ENCODING 334
SWIDTH 708 0
DWIDTH 17 0
BBX 16 22 1 0
BITMAP
0082
00C4
00FC
0078
0000
0000
00F8
030E
0E0E
1E0F
3C0F
3C0F
780F
780F
780F
F01E
F01E
F03C
7038
7070
38E0
1F80
ENDCHAR
STARTCHAR 014F
ENCODING 335
SWIDTH 500 0
DWIDTH 12 0
BBX 10 16 1 0
BITMAP
0840
0FC0
0780
0000
0000
0780
19C0
31C0
71C0
F1C0
E1C0
E380
E380
E300
E600
7800
ENDCHAR
STARTCHAR 0150
ENCODING 336
SWIDTH 708 0
DWIDTH 17 0
BBX 17 22 1 0
BITMAP
007F80
007700
006600
00CC00
000000
000000
00F800
030E00
0E0E00
1E0F00
3C0F00
3C0F00
780F00
780F00
780F00
F01E00
F01E00
F03C00
703800
707000
38E000
1F8000
ENDCHAR
STARTCHAR 0151
ENCODING 337
SWIDTH 500 0
DWIDTH 12 0
BBX 13 16 1 0
BITMAP
03B8
0370
0660
0440
0000
0780
19C0
31C0
71C0
F1C0
E1C0
E380
E380
E700
E600
7800
ENDCHAR
STARTCHAR 0152
ENCODING 338
SWIDTH 958 0
DWIDTH 23 0
BBX 22 16 1 0
BITMAP
00FFFC
030F1C
0F0F08
1E0E00
3C0E00
3C1E20
781C60
781FC0
783C40
703C40
F03800
703800
707810
707020
38F0E0
0FFFE0
ENDCHAR
STARTCHAR 0153
ENCODING 339
SWIDTH 708 0
DWIDTH 17 0
BBX 16 11 1 0
BITMAP
078F
19F3
31E7
71C6
E1CE
E1F8
E380
E380
C7C4
C5F8
78F0
ENDCHAR
STARTCHAR 0154
ENCODING 340
SWIDTH 666 0
DWIDTH 16 0
BBX 16 21 -1 0
BITMAP
001C
0038
0030
0020
0000
07FC
03CF
0387
0387
078F
078F
071E
07F0
0F70
0E78
0E78
1E38
1E38
1C3C
3C1C
FF1F
ENDCHAR
STARTCHAR 0155
ENCODING 341
SWIDTH 375 0
DWIDTH 9 0
BBX 9 16 1 0
BITMAP
0380
0700
0600
0400
0000
3B00
7380
7780
7900
7800
7000
7000
E000
E000
E000
C000
ENDCHAR
STARTCHAR 0156
ENCODING 342
SWIDTH 666 0
DWIDTH 16 0
BBX 16 22 -1 -7
BITMAP
07FC
03CF
0387
0387
078F
078F
071E
07F0
0F70
0E78
0E78
1E38
1E38
1C3C
3C1C
FF1F
0000
0180
0180
0180
0100
0200
ENDCHAR
STARTCHAR 0157
ENCODING 343
SWIDTH 375 0
DWIDTH 9 0
BBX 10 17 0 -7
BITMAP
1D80
39C0
3BC0
3C80
3C00
3800
7800
7000
7000
7000
6000
0000
E000
E000
6000
4000
8000
ENDCHAR
STARTCHAR 0158
ENCODING 344
SWIDTH 666 0
DWIDTH 16 0
BBX 15 21 0 0
BITMAP
010C
0198
00F0
00E0
0000
0FF8
079E
070E
070E
0F1E
0F1E
0E3C
0FE0
1EE0
1CF0
1CF0
3C70
3C70
3878
7838
FE3E
ENDCHAR
STARTCHAR 0159
ENCODING 345
SWIDTH 375 0
DWIDTH 9 0
BBX 9 16 1 0
BITMAP
2180
3300
3E00
1C00
0000
3B00
7380
7780
7900
7800
7000
7000
E000
E000
E000
C000
ENDCHAR
STARTCHAR 015A
ENCODING 346
SWIDTH 541 0
DWIDTH 13 0
BBX 14 22 0 0
BITMAP
0070
00E0
00E0
00C0
0180
0000
03FC
0E1C
0E08
1E08
1E08
1F00
0F80
07C0
07C0
03E0
01E0
40F0
C0E0
C0E0
E1C0
FF80
ENDCHAR
STARTCHAR 015B
ENCODING 347
SWIDTH 375 0
DWIDTH 9 0
BBX 10 16 0 0
BITMAP
03C0
0380
0300
0600
0000
1F80
3180
3080
3800
3C00
1E00
0F00
8700
C700
C600
FC00
ENDCHAR
STARTCHAR 015C
ENCODING 348
SWIDTH 541 0
DWIDTH 13 0
BBX 14 22 0 0
BITMAP
0070
00F8
0198
0308
0000
0000
03FC
0E1C
0E08
1E08
1E08
1F00
0F80
07C0
07C0
03E0
01E0
40F0
C0E0
C0E0
E1C0
FF80
ENDCHAR
STARTCHAR 015D
ENCODING 349
SWIDTH 375 0
DWIDTH 9 0
BBX 10 16 0 0
BITMAP
0380
0780
0CC0
1040
0000
1F80
3180
3080
3800
3C00
1E00
0F00
8700
C700
C600
FC00
ENDCHAR
STARTCHAR 015E
ENCODING 350
SWIDTH 541 0
DWIDTH 13 0
BBX 14 20 0 -4
BITMAP
03FC
0E1C
0E08
1E08
1E08
1F00
0F80
07C0
03C0
01E0
01E0
40F0
C0E0
C0E0
F1C0
FF80
0C00
0600
0600
3C00
ENDCHAR
STARTCHAR 015F
ENCODING 351
SWIDTH 375 0
DWIDTH 9 0
BBX 9 15 0 -4
BITMAP
1F80
3180
3080
3800
3C00
1E00
0F00
8700
C700
C600
FC00
1800
1C00
1800
F000
ENDCHAR
STARTCHAR 0160
ENCODING 352
SWIDTH 541 0
DWIDTH 13 0
BBX 14 22 0 0
BITMAP
0218
0330
03E0
01C0
0000
0000
03FC
0E1C
0E08
1E08
1E08
1F00
0F80
07C0
07C0
03E0
01E0
40F0
C0E0
C0E0
E1C0
FF80
ENDCHAR
STARTCHAR 0161
ENCODING 353
SWIDTH 375 0
DWIDTH 9 0
BBX 10 16 0 0
BITMAP
10C0
1980
1F00
0E00
0000
1F80
3180
3080
3800
3C00
1E00
0F00
8700
C700
C600
FC00
ENDCHAR
STARTCHAR 0162
ENCODING 354
SWIDTH 625 0
DWIDTH 15 0
BBX 14 21 2 -5
BITMAP
3FFC
63CC
4384
0384
0780
0780
0700
0F00
0F00
0E00
1E00
1E00
1C00
1C00
3C00
FF00
1000
3800
1800
1800
F000
ENDCHAR
STARTCHAR 0163
ENCODING 355
SWIDTH 291 0
DWIDTH 7 0
BBX 8 18 -1 -4
BITMAP
01
02
0E
3F
1C
1C
1C
1C
38
38
38
32
7C
38
70
38
38
F0
ENDCHAR
STARTCHAR 0164
ENCODING 356
SWIDTH 625 0
DWIDTH 15 0
BBX 14 22 2 0
BITMAP
0208
0330
0360
01E0
01C0
0000
3FFC
73CC
4384
4384
0780
0780
0700
0F00
0F00
0E00
1E00
1E00
1C00
1C00
3C00
FF00
ENDCHAR
STARTCHAR 0165
ENCODING 357
SWIDTH 541 0
DWIDTH 13 0
BBX 13 16 0 0
BITMAP
0030
0078
0278
0438
1C10
7E60
1880
3800
3800
3800
7000
7000
7000
7400
F800
7000
ENDCHAR
STARTCHAR 0166
ENCODING 358
SWIDTH 625 0
DWIDTH 15 0
BBX 14 16 2 0
BITMAP
3FFC
63CC
4384
0384
0780
0780
0700
7FE0
0F00
0E00
1E00
1E00
1C00
1C00
3C00
FF00
ENDCHAR
STARTCHAR 0167
ENCODING 359
SWIDTH 291 0
DWIDTH 7 0
BBX 7 14 0 0
BITMAP
02
04
1C
7E
38
38
38
FC
70
70
70
74
E8
70
ENDCHAR
STARTCHAR 0168
ENCODING 360
SWIDTH 708 0
DWIDTH 17 0
BBX 17 21 2 1
BITMAP
00F400
01FC00
013800
000000
000000
7F8F80
1E0200
1C0200
1C0400
3C0400
3C0400
380400
780800
780800
700800
701000
F01000
F01000
702000
78C000
1F0000
ENDCHAR
STARTCHAR 0169
ENCODING 361
SWIDTH 541 0
DWIDTH 13 0
BBX 11 16 1 0
BITMAP
0720
0FE0
09C0
0000
0000
78E0
38E0
38E0
71C0
71C0
73C0
E5C0
E780
EBA0
F3C0
E380
ENDCHAR
STARTCHAR 016A
ENCODING 362
SWIDTH 708 0
DWIDTH 17 0
BBX 17 20 2 0
BITMAP
03FE00
03FC00
000000
000000
7F8F80
1E0200
1C0200
1C0400
3C0400
3C0400
380400
780800
780800
700800
701000
F01000
F01000
702000
78C000
1F0000
ENDCHAR
STARTCHAR 016B
ENCODING 363
SWIDTH 541 0
DWIDTH 13 0
BBX 12 15 1 0
BITMAP
0FF0
1FE0
0000
0000
78E0
38E0
38E0
71C0
71C0
73C0
E5C0
E780
EBA0
F3C0
E380
ENDCHAR
STARTCHAR 016C
ENCODING 364
SWIDTH 708 0
DWIDTH 17 0
BBX 17 22 2 0
BITMAP
008000
00CC00
00F800
007000
000000
000000
7F8F80
1E0200
1C0200
1C0400
3C0400
3C0400
380400
780800
780800
700800
701000
F01000
F01000
702000
78C000
1F0000
ENDCHAR
STARTCHAR 016D
ENCODING 365
SWIDTH 541 0
DWIDTH 13 0
BBX 11 16 1 0
BITMAP
0420
07C0
0780
0000
0000
78E0
38E0
38E0
71C0
71C0
73C0
E5C0
E780
EBA0
F3C0
E380
ENDCHAR
STARTCHAR 016E
ENCODING 366
SWIDTH 708 0
DWIDTH 17 0
BBX 17 22 2 0
BITMAP
006000
009000
008800
009000
006000
000000
7F8F80
1E0200
1C0200
1C0400
3C0400
3C0400
380400
780800
780800
700800
701000
F01000
F01000
702000
78C000
1F0000
ENDCHAR
STARTCHAR 016F
ENCODING 367
SWIDTH 541 0
DWIDTH 13 0
BBX 11 16 1 0
BITMAP
0780
0480
0480
0300
0000
78E0
38E0
38E0
71C0
71C0
73C0
E5C0
E780
EBA0
F3C0
E380
ENDCHAR
STARTCHAR 0170
ENCODING 368
SWIDTH 708 0
DWIDTH 17 0
BBX 17 22 2 0
BITMAP
01FE00
01DC00
01B800
033000
000000
000000
7F8F80
1E0200
1C0200
1C0400
3C0400
3C0400
380400
780800
780800
700800
701000
F01000
F01000
702000
78C000
1F0000
ENDCHAR
STARTCHAR 0171
ENCODING 369
SWIDTH 541 0
DWIDTH 13 0
BBX 13 16 1 0
BITMAP
03B8
0770
0660
0440
0000
78E0
38E0
38E0
71C0
71C0
73C0
E5C0
E780
EBA0
F3C0
E380
ENDCHAR
STARTCHAR 0172
ENCODING 370
SWIDTH 708 0
DWIDTH 17 0
BBX 17 21 2 -5
BITMAP
7F8F80
1E0200
1C0200
1C0400
3C0400
3C0400
380400
780800
780800
700800
701000
F01000
F01000
702000
78C000
1F0000
020000
040000
0C0000
0F0000
0E0000
ENDCHAR
STARTCHAR 0173
ENCODING 371
SWIDTH 541 0
DWIDTH 13 0
BBX 11 16 1 -5
BITMAP
78E0
38E0
38E0
71C0
71C0
73C0
E5C0
E780
EBA0
F3C0
E380
0200
0600
0C00
0E80
0700
ENDCHAR
STARTCHAR 0174
ENCODING 372
SWIDTH 875 0
DWIDTH 21 0
BBX 21 22 3 0
BITMAP
001C00
003C00
006600
00C600
000000
000000
FCFC78
787820
787020
787040
70F080
70F100
717100
727200
76F400
74F800
78F800
F0F000
F0E000
E0C000
C0C000
808000
ENDCHAR
STARTCHAR 0175
ENCODING 373
SWIDTH 666 0
DWIDTH 16 0
BBX 15 16 1 0
BITMAP
0070
00F8
0198
0208
0000
308C
F08E
71CE
73C6
75C4
75C8
79C8
71D0
71E0
61C0
4180
ENDCHAR
STARTCHAR 0176
ENCODING 374
SWIDTH 625 0
DWIDTH 15 0
BBX 15 22 2 0
BITMAP
0070
00F0
01F0
0318
0208
0000
7FBE
3E0C
1C18
1E10
1E20
0E20
0E40
0E80
0F00
0F00
0E00
0E00
1E00
1E00
3C00
FF00
ENDCHAR
STARTCHAR 0177
ENCODING 375
SWIDTH 458 0
DWIDTH 11 0
BBX 13 21 -2 -5
BITMAP
00E0
01F0
0330
0410
0000
0E30
1E38
0E38
0E10
0E10
0620
0640
0740
0780
0700
0700
0600
0400
C800
F000
E000
ENDCHAR
STARTCHAR 0178
ENCODING 376
SWIDTH 625 0
DWIDTH 15 0
BBX 15 21 2 0
BITMAP
0330
0738
0330
0000
0000
7FBE
3E0C
1C18
1E10
1E20
0E20
0E40
0E80
0F00
0F00
0E00
0E00
1E00
1E00
3C00
FF00
ENDCHAR
STARTCHAR 0179
ENCODING 377
SWIDTH 625 0
DWIDTH 15 0
BBX 17 21 -1 0
BITMAP
003C00
003800
003000
006000
000000
07FF80
060F00
081F00
083E00
007C00
007800
00F000
01E000
03E000
07C000
078000
0F0000
1E0400
3E0C00
7C3800
FFF800
ENDCHAR
STARTCHAR 017A
ENCODING 378
SWIDTH 375 0
DWIDTH 9 0
BBX 10 18 0 -2
BITMAP
03C0
0380
0200
0400
0000
3F80
3F00
3F00
4200
0400
0800
1000
1000
2000
7100
FB80
3B00
0E00
ENDCHAR
STARTCHAR 017B
ENCODING 379
SWIDTH 625 0
DWIDTH 15 0
BBX 17 21 -1 0
BITMAP
007000
007000
007000
007000
000000
07FF80
060F00
081F00
083E00
007C00
007800
00F000
01E000
03E000
07C000
078000
0F0000
1E0400
3E0C00
7C3800
FFF800
ENDCHAR
STARTCHAR 017C
ENCODING 380
SWIDTH 375 0
DWIDTH 9 0
BBX 9 18 0 -2
BITMAP
0600
0F00
0F00
0600
0000
3F80
3F00
3F00
4200
0400
0800
1000
1000
2000
7100
FB80
3B00
0E00
ENDCHAR
STARTCHAR 017D
ENCODING 381
SWIDTH 625 0
DWIDTH 15 0
BBX 17 22 -1 0
BITMAP
008200
00C600
007C00
007800
007000
000000
07FF80
060F00
0C1F00
083E00
003C00
007800
00F000
01F000
03E000
07C000
078000
0F0000
1E0400
3E0C00
7C3800
FFF800
ENDCHAR
STARTCHAR 017E
ENCODING 382
SWIDTH 375 0
DWIDTH 9 0
BBX 10 18 0 -2
BITMAP
10C0
1B80
0F00
0E00
0000
3F80
3F00
3100
4200
0400
0800
1000
1000
2000
7300
FB80
3B00
0E00
ENDCHAR
STARTCHAR 017F
ENCODING 383
SWIDTH 333 0
DWIDTH 8 0
BBX 16 21 -4 -5
BITMAP
000F
003B
0073
0060
00E0
00E0
01C0
01C0
01C0
01C0
0380
0380
0380
0380
0700
0700
0700
0E00
0E00
EC00
F000
ENDCHAR
STARTCHAR 0180
ENCODING 384
SWIDTH 500 0
DWIDTH 12 0
BBX 11 16 0 0
BITMAP
1E00
0E00
3FC0
1C00
1C00
1DC0
1FE0
3CE0
38E0
38E0
70E0
70E0
71C0
7180
E300
3E00
ENDCHAR
STARTCHAR 0181
ENCODING 385
SWIDTH 708 0
DWIDTH 17 0
BBX 16 16 1 0
BITMAP
3FFC
778E
678F
478F
070E
071E
0F38
0FE0
0E38
1E1C
1C1C
1C1C
1C3C
3C3C
3878
FFE0
ENDCHAR
STARTCHAR 0182
ENCODING 386
SWIDTH 625 0
DWIDTH 15 0
BBX 15 16 1 0
BITMAP
1FFE
0F0C
0E04
0E04
1E00
1E00
1C00
1FC0
3CF0
3870
3878
7878
7878
70F0
71E0
FFC0
ENDCHAR
STARTCHAR 0183
ENCODING 387
SWIDTH 500 0
DWIDTH 12 0
BBX 13 16 0 0
BITMAP
0FF8
0E18
0E08
0C00
1C00
1DC0
1FE0
3CE0
38E0
38E0
70E0
70E0
71C0
7180
E300
3E00
ENDCHAR
STARTCHAR 0184
ENCODING 388
SWIDTH 625 0
DWIDTH 15 0
BBX 14 16 0 0
BITMAP
0180
0780
1F80
1F00
1F00
0F00
0E00
0FE0
1E78
1C38
1C3C
3C3C
3C3C
3878
78F0
FFE0
ENDCHAR
STARTCHAR 0185
ENCODING 389
SWIDTH 500 0
DWIDTH 12 0
BBX 11 16 0 0
BITMAP
0200
0E00
3E00
3E00
1C00
1DC0
1FE0
3CE0
38E0
38E0
70E0
70E0
71C0
7180
E300
3E00
ENDCHAR
STARTCHAR 0186
ENCODING 390
SWIDTH 666 0
DWIDTH 16 0
BBX 16 16 0 0
BITMAP
01F0
063C
081E
100E
000F
000F
000F
000F
000F
001E
001E
003C
4038
4070
60E0
FF00
ENDCHAR
STARTCHAR 0187
ENCODING 391
SWIDTH 666 0
DWIDTH 16 0
BBX 20 20 2 0
BITMAP
0000E0
000130
000170
000260
01FE00
070600
1E0600
3C0000
780000
780000
F00000
F00000
F00000
E00000
E00000
E00000
F00000
703000
384000
1F8000
ENDCHAR
STARTCHAR 0188
ENCODING 392
SWIDTH 458 0
DWIDTH 11 0
BBX 15 15 1 0
BITMAP
000C
0036
002E
004C
07C0
1840
3040
6000
E000
E000
E000
E000
E100
FE00
7800
ENDCHAR
STARTCHAR 0189
ENCODING 393
SWIDTH 708 0
DWIDTH 17 0
BBX 17 16 0 0
BITMAP
1FF800
07BE00
078F00
070F00
070780
0F0780
0E0780
3FE780
1E0780
1E0780
1C0F00
3C0E00
3C1E00
383C00
387000
FFC000
ENDCHAR
STARTCHAR 018A
ENCODING 394
SWIDTH 791 0
DWIDTH 19 0
BBX 17 16 1 0
BITMAP
3FF800
778E00
678700
078780
070780
070780
0F0780
0F0780
0E0780
1E0780
1E0F00
1C0F00
1C1E00
3C1C00
3C7800
FFC000
ENDCHAR
STARTCHAR 018B
ENCODING 395
SWIDTH 625 0
DWIDTH 15 0
BBX 17 16 0 0
BITMAP
0FFF80
0C1E00
081C00
103C00
003C00
003800
003800
0FF800
387800
787000
F0F000
F0F000
F0F000
F0E000
71E000
3FE000
ENDCHAR
STARTCHAR 018C
ENCODING 396
SWIDTH 500 0
DWIDTH 12 0
BBX 13 16 0 0
BITMAP
0FF8
0C38
1870
1070
0070
0760
0CE0
18E0
38C0
71C0
71C0
73C0
F580
F7A0
7BC0
7380
ENDCHAR
STARTCHAR 018D
ENCODING 397
SWIDTH 500 0
DWIDTH 12 0
BBX 12 16 0 -5
BITMAP
07C0
0C60
1870
3870
78F0
70E0
70E0
71C0
7380
7600
3800
1C00
0C00
4600
E400
3C00
ENDCHAR
STARTCHAR 018E
ENCODING 398
SWIDTH 666 0
DWIDTH 16 0
BBX 18 16 0 0
BITMAP
07FFC0
070F00
040E00
081E00
001E00
021C00
021C00
07FC00
043C00
083800
087800
007800
807000
C07000
E0F000
FFF800
ENDCHAR
STARTCHAR 018F
ENCODING 399
SWIDTH 708 0
DWIDTH 17 0
BBX 16 16 1 0
BITMAP
07F8
061C
080E
080F
000F
000F
000F
7FFF
780F
F00F
F01E
F01E
703C
7038
38F0
1F80
ENDCHAR
STARTCHAR 0190
ENCODING 400
SWIDTH 500 0
DWIDTH 12 0
BBX 14 16 0 0
BITMAP
01FC
0788
0F08
0E08
0E00
0E00
0700
07C0
1E00
3800
7000
F000
F000
F000
F1C0
3E00
ENDCHAR
STARTCHAR 0191
ENCODING 401
SWIDTH 666 0
DWIDTH 16 0
BBX 19 21 -2 -5
BITMAP
03FFE0
00F0E0
00E060
00E020
01E000
01E000
01C200
03FE00
03C600
038400
038400
078000
078000
070000
0F0000
0F0000
0E0000
1E0000
1C0000
D80000
F00000
ENDCHAR
STARTCHAR 0192
ENCODING 402
SWIDTH 500 0
DWIDTH 12 0
BBX 12 21 0 -5
BITMAP
00F0
01B0
01A0
0380
0780
0FC0
0700
0700
0700
0F00
0F00
0E00
0E00
0E00
1E00
1C00
1C00
1C00
1800
D800
E000
ENDCHAR
STARTCHAR 0193
ENCODING 403
SWIDTH 708 0
DWIDTH 17 0
BBX 21 20 2 0
BITMAP
000070
0000B8
000138
000130
01FF00
070700
1E0200
3C0200
780200
780000
F00000
F0FE00
F03C00
E03800
E03800
E07800
F07800
707000
38F000
0FC000
ENDCHAR
STARTCHAR 0194
ENCODING 404
SWIDTH 708 0
DWIDTH 17 0
BBX 18 21 2 -5
BITMAP
FE07C0
3C0100
3C0200
3C0400
3C0400
1C0800
1C1000
1C2000
1C2000
1E4000
1E8000
1F0000
0F0000
0E0000
0E0000
0F0000
1F0000
370000
270000
2E0000
3C0000
ENDCHAR
STARTCHAR 0195
ENCODING 405
SWIDTH 791 0
DWIDTH 19 0
BBX 19 16 0 0
BITMAP
0F0000
0E0000
0E0000
0E0000
0E0000
1C70E0
1CF1C0
1F71C0
3AF1C0
3CE380
38E380
38E380
71C300
71C700
71C600
E0F800
ENDCHAR
STARTCHAR 0196
ENCODING 406
SWIDTH 291 0
DWIDTH 7 0
BBX 7 16 0 0
BITMAP
0E
0E
0E
0E
1C
1C
1C
38
38
38
70
70
70
74
F8
70
ENDCHAR
STARTCHAR 0197
ENCODING 407
SWIDTH 375 0
DWIDTH 9 0
BBX 12 16 -1 0
BITMAP
0FF0
03C0
03C0
0380
0780
0780
0700
3FC0
0F00
0F00
0E00
1E00
1E00
1C00
3C00
FF00
ENDCHAR
STARTCHAR 0198
ENCODING 408
SWIDTH 666 0
DWIDTH 16 0
BBX 18 16 0 0
BITMAP
00F7C0
03B300
07B600
070400
071800
0F2000
0F4000
0FE000
1EE000
1EE000
1CF000
3C7000
3C7000
387800
387800
FEFE00
ENDCHAR
STARTCHAR 0199
ENCODING 409
SWIDTH 500 0
DWIDTH 12 0
BBX 12 16 0 0
BITMAP
01E0
0330
0620
0E00
0E00
1DF0
1C40
1C80
3900
3B00
3F00
7B80
7380
73A0
73C0
E180
ENDCHAR
STARTCHAR 019A
ENCODING 410
SWIDTH 291 0
DWIDTH 7 0
BBX 7 16 0 0
BITMAP
0E
0E
0E
0E
1C
1C
1C
FE
38
38
70
70
70
60
F8
70
ENDCHAR
STARTCHAR 019B
ENCODING 411
SWIDTH 458 0
DWIDTH 11 0
BBX 11 16 -1 0
BITMAP
0300
07A0
04C0
0080
0380
0480
0980
0180
0300
0700
0F00
1F00
1D00
3920
70E0
F0C0
ENDCHAR
STARTCHAR 019C
ENCODING 412
SWIDTH 833 0
DWIDTH 20 0
BBX 21 16 1 0
BITMAP
3F7FF8
1E3CF0
1E38E0
1E78E0
1C79E0
3C71C0
3CF1C0
38F3C0
38E3C0
79E380
79E780
73CF80
F5D700
FBD700
FBEF00
E1CF00
ENDCHAR
STARTCHAR 019D
ENCODING 413
SWIDTH 708 0
DWIDTH 17 0
BBX 23 21 -4 -5
BITMAP
01F83E
00780C
007C08
007C08
005E10
009E10
008F10
008F20
0107A0
0107A0
0103A0
0203C0
0201C0
0201C0
020080
040080
040000
040000
080000
C80000
F00000
ENDCHAR
STARTCHAR 019E
ENCODING 414
SWIDTH 541 0
DWIDTH 13 0
BBX 11 16 1 -5
BITMAP
38E0
F9E0
3AE0
3CE0
78E0
79C0
71C0
71C0
E3C0
E380
E380
0380
0700
0700
0700
0F00
ENDCHAR
STARTCHAR 019F
ENCODING 415
SWIDTH 708 0
DWIDTH 17 0
BBX 16 16 1 0
BITMAP
00F8
030E
0E0E
1C0F
3C0F
380F
780F
7FFF
780F
F01E
F01E
F03C
7038
7070
38E0
1F80
ENDCHAR
STARTCHAR 01A0
ENCODING 416
SWIDTH 708 0
DWIDTH 17 0
BBX 19 18 1 1
BITMAP
0000E0
0000E0
00FC60
030FC0
0E0F00
1C0F00
3C0F00
3C0F00
780F00
780F00
780E00
F01E00
F01C00
F03C00
703800
707000
38E000
1F8000
ENDCHAR
STARTCHAR 01A1
ENCODING 417
SWIDTH 541 0
DWIDTH 13 0
BBX 13 13 1 1
BITMAP
0018
0018
0798
19F0
31C0
71C0
F1C0
E1C0
E380
E380
E700
E600
7800
ENDCHAR
STARTCHAR 01A2
ENCODING 418
SWIDTH 1000 0
DWIDTH 24 0
BBX 24 21 1 -5
BITMAP
00FFFF
0703CF
0E03CF
1C038F
38078E
78079E
78071E
70071C
F00F3C
F00E3C
F00E38
F01E38
701E78
781C78
3C3C70
0FF0F0
0000F0
0000E0
0001E0
0001E0
0007F8
ENDCHAR
STARTCHAR 01A3
ENCODING 419
SWIDTH 708 0
DWIDTH 17 0
BBX 16 16 1 -5
BITMAP
07FF
18E7
30E7
70EE
E0EE
E1CE
E1CE
E19C
E39C
E31C
7C18
0038
0038
0030
0070
00FC
ENDCHAR
STARTCHAR 01A4
ENCODING 420
SWIDTH 666 0
DWIDTH 16 0
BBX 16 16 1 0
BITMAP
3FF8
678E
678E
678F
070F
0F0E
0F1E
0E3C
0FF0
1E00
1E00
1C00
3C00
3C00
3C00
FE00
ENDCHAR
STARTCHAR 01A5
ENCODING 421
SWIDTH 500 0
DWIDTH 12 0
BBX 14 21 -3 -5
BITMAP
003C
006C
00CC
01C0
0380
03B8
03FC
079C
071C
071C
061C
0E1C
0E38
0E30
1C60
1FC0
1C00
3800
3800
3800
FC00
ENDCHAR
STARTCHAR 01A6
ENCODING 422
SWIDTH 625 0
DWIDTH 15 0
BBX 16 19 -1 -3
BITMAP
07F0
03C0
03F8
039E
038F
078F
070F
070E
0F1E
0E3C
0FF0
1E70
1E70
1C78
3C78
FF38
0038
003C
003F
ENDCHAR
STARTCHAR 01A7
ENCODING 423
SWIDTH 541 0
DWIDTH 13 0
BBX 14 16 0 0
BITMAP
07F8
0E1C
0C1C
083C
1078
00F0
03E0
07C0
1F00
3E00
7810
F010
E020
E060
E1E0
7FC0
ENDCHAR
STARTCHAR 01A8
ENCODING 424
SWIDTH 375 0
DWIDTH 9 0
BBX 10 11 0 0
BITMAP
1F80
19C0
2180
0780
0F00
3C00
7800
E100
C200
C600
FC00
ENDCHAR
STARTCHAR 01A9
ENCODING 425
SWIDTH 625 0
DWIDTH 15 0
BBX 17 16 -1 0
BITMAP
07FF80
078180
038080
03C000
01C000
01E000
00E000
00C000
008000
030000
060000
0C0000
100400
3FFC00
7FF800
FFF800
ENDCHAR
STARTCHAR 01AA
ENCODING 426
SWIDTH 375 0
DWIDTH 9 0
BBX 7 21 1 -5
BITMAP
3C
46
4E
7E
0E
0E
1E
1C
1C
1C
38
38
38
78
70
70
70
E0
60
66
3C
ENDCHAR
STARTCHAR 01AB
ENCODING 427
SWIDTH 291 0
DWIDTH 7 0
BBX 8 19 -1 -5
BITMAP
01
02
0E
3F
1C
1C
1C
1C
38
38
38
3A
7E
3C
0C
1C
18
D0
E0
ENDCHAR
STARTCHAR 01AC
ENCODING 428
SWIDTH 625 0
DWIDTH 15 0
BBX 14 16 2 0
BITMAP
3FFC
E3CC
E384
0384
0780
0780
0700
0F00
0F00
0E00
1E00
1E00
1C00
1C00
3C00
FF00
ENDCHAR
STARTCHAR 01AD
ENCODING 429
SWIDTH 291 0
DWIDTH 7 0
BBX 11 16 0 0
BITMAP
01E0
0760
0E20
0C00
1C00
7E00
3800
3800
3800
3800
7000
7000
7000
7400
E800
7000
ENDCHAR
STARTCHAR 01AE
ENCODING 430
SWIDTH 625 0
DWIDTH 15 0
BBX 13 21 3 -5
BITMAP
7FF8
C798
8708
0708
0F00
0F00
0E00
1E00
1E00
1C00
3C00
3C00
3800
3800
7800
7800
7000
7000
7400
6E00
3C00
ENDCHAR
STARTCHAR 01AF
ENCODING 431
SWIDTH 791 0
DWIDTH 19 0
BBX 20 19 2 1
BITMAP
000030
000030
000030
7F8FC0
1E0200
1C0200
1C0200
3C0400
3C0400
380400
780800
780800
700800
701000
F01000
F01000
702000
78C000
1F0000
ENDCHAR
STARTCHAR 01B0
ENCODING 432
SWIDTH 583 0
DWIDTH 14 0
BBX 15 12 1 1
BITMAP
000C
78EE
38E6
38F8
71C0
71C0
73C0
E3C0
E780
EBA0
F3C0
E380
ENDCHAR
STARTCHAR 01B1
ENCODING 433
SWIDTH 750 0
DWIDTH 18 0
BBX 17 16 2 0
BITMAP
3FBF80
3F3F80
7F3F80
414100
0E3800
3C1C00
781E00
701E00
F01E00
F01E00
F01E00
E03C00
E03800
F07800
70E000
1F8000
ENDCHAR
STARTCHAR 01B2
ENCODING 434
SWIDTH 708 0
DWIDTH 17 0
BBX 15 16 2 0
BITMAP
7FBC
1E32
1C02
3C02
3C02
3802
3802
7806
7804
7004
F008
F008
F010
7020
78C0
1F00
ENDCHAR
STARTCHAR 01B3
ENCODING 435
SWIDTH 666 0
DWIDTH 16 0
BBX 17 16 2 0
BITMAP
7F0700
3C0F80
1C0F00
1C1000
1E2000
1E4000
0E4000
0E8000
0F0000
0F0000
0E0000
1E0000
1E0000
1C0000
3C0000
FF0000
ENDCHAR
STARTCHAR 01B4
ENCODING 436
SWIDTH 458 0
DWIDTH 11 0
BBX 22 21 -2 -5
BITMAP
000038
00004C
00008C
000100
000100
000200
1E0400
0E0800
0E0800
0E1000
062000
062000
074000
078000
070000
070000
060000
040000
C80000
F00000
E00000
ENDCHAR
STARTCHAR 01B5
ENCODING 437
SWIDTH 625 0
DWIDTH 15 0
BBX 17 16 -1 0
BITMAP
07FF80
060F00
081F00
083E00
007C00
007800
00F000
1FFE00
03E000
07C000
0F8000
0F0000
1E0400
3E0C00
7C3800
FFF800
ENDCHAR
STARTCHAR 01B6
ENCODING 438
SWIDTH 375 0
DWIDTH 9 0
BBX 9 13 0 -2
BITMAP
3F80
3F00
3E00
4200
0400
7F00
1000
2000
3000
7300
FB80
3B00
0E00
ENDCHAR
STARTCHAR 01B7
ENCODING 439
SWIDTH 541 0
DWIDTH 13 0
BBX 17 21 -2 -5
BITMAP
03FF80
060F00
041E00
003C00
007800
00F000
01E000
03C000
03E000
007000
007800
003800
003C00
003C00
003800
003800
007800
007000
00E000
C1C000
3F0000
ENDCHAR
STARTCHAR 01B8
ENCODING 440
SWIDTH 541 0
DWIDTH 13 0
BBX 16 21 -1 -5
BITMAP
07FF
0783
03C2
03C0
03C0
01E0
01E0
01E0
03F0
0F00
1C00
3800
7800
F000
F000
F000
E000
F000
F000
7820
1FC0
ENDCHAR
STARTCHAR 01B9
ENCODING 441
SWIDTH 458 0
DWIDTH 11 0
BBX 13 16 -1 -5
BITMAP
1FF8
0E10
0F10
0700
0780
0380
0F00
3C00
7000
7000
E000
E000
E000
E000
7180
3E00
ENDCHAR
STARTCHAR 01BA
ENCODING 442
SWIDTH 458 0
DWIDTH 11 0
BBX 13 16 -1 -5
BITMAP
1FF8
10E0
21C0
0380
0700
00E0
00E0
00C0
0380
1C00
7000
7000
E000
E040
7080
3F00
ENDCHAR
STARTCHAR 01BB
ENCODING 443
SWIDTH 500 0
DWIDTH 12 0
BBX 12 16 0 0
BITMAP
07C0
0FE0
19E0
10F0
00E0
00E0
00E0
3FE0
0180
0300
0600
0C00
1040
3FC0
7F80
FF80
ENDCHAR
STARTCHAR 01BC
ENCODING 444
SWIDTH 500 0
DWIDTH 12 0
BBX 11 16 1 0
BITMAP
3FE0
1FE0
10C0
1040
2040
3E00
3F80
0F80
03C0
01C0
01C0
01C0
0180
C100
F600
F800
ENDCHAR
STARTCHAR 01BD
ENCODING 445
SWIDTH 375 0
DWIDTH 9 0
BBX 9 11 0 0
BITMAP
7F80
3F80
2180
2080
3C00
7F00
0F00
0300
8300
E200
FC00
ENDCHAR
STARTCHAR 01BE
ENCODING 446
SWIDTH 375 0
DWIDTH 9 0
BBX 7 14 1 0
BITMAP
04
0C
38
FC
38
70
78
3C
1E
0E
8E
86
C6
F8
ENDCHAR
STARTCHAR 01BF
ENCODING 447
SWIDTH 500 0
DWIDTH 12 0
BBX 13 16 -2 -6
BITMAP
0370
1FF8
0F38
0E38
0E38
0E38
1C30
1C70
1C60
38C0
3900
3E00
3000
7000
7000
C000
ENDCHAR
STARTCHAR 01C0
ENCODING 448
SWIDTH 208 0
DWIDTH 5 0
BBX 1 16 2 0
BITMAP
80
80
80
80
80
80
80
80
80
80
80
80
80
80
80
80
ENDCHAR
STARTCHAR 01C1
ENCODING 449
SWIDTH 333 0
DWIDTH 8 0
BBX 4 16 2 0
BITMAP
90
90
90
90
90
90
90
90
90
90
90
90
90
90
90
90
ENDCHAR
STARTCHAR 01C2
ENCODING 450
SWIDTH 250 0
DWIDTH 6 0
BBX 6 16 0 0
BITMAP
30
30
30
30
30
FC
FC
30
30
FC
FC
30
30
30
30
30
ENDCHAR
STARTCHAR 01C3
ENCODING 451
SWIDTH 375 0
DWIDTH 9 0
BBX 7 16 1 0
BITMAP
06
0E
0E
0E
0C
0C
08
18
10
10
10
00
60
F0
F0
60
ENDCHAR
STARTCHAR 01C4
ENCODING 452
SWIDTH 1333 0
DWIDTH 32 0
BBX 35 22 -1 0
BITMAP
0000002080
0000003300
0000003700
0000003E00
0000001C00
0000000000
0FFC03FFE0
03CF0387C0
03C7820780
0383840F00
0383C01E00
0783C03E00
0783C07C00
0703C0F800
0F03C0F000
0F0781E000
0E0783C000
0E0707C000
1E0F0F8200
1E1E1F0600
3C381E0E00
FFE03FFC00
ENDCHAR
STARTCHAR 01C5
ENCODING 453
SWIDTH 1125 0
DWIDTH 27 0
BBX 29 18 -1 -2
BITMAP
0FFC0218
03DF0370
03C783E0
038381C0
0383C000
0783CFF0
0783CFE0
0703CE40
0F03C080
0F078100
0E078200
0E070200
1E0F0400
1C1E0C00
3C381E60
FFE01EE0
00000660
000003C0
ENDCHAR
STARTCHAR 01C6
ENCODING 454
SWIDTH 875 0
DWIDTH 21 0
BBX 22 18 0 -2
BITMAP
00398C
0078D8
0070F8
0070F0
007000
0763F8
0CE3F0
18E320
38E420
71C040
71C080
73C100
738200
FFA300
7BC738
738FB8
0003B0
0000E0
ENDCHAR
STARTCHAR 01C7
ENCODING 455
SWIDTH 1125 0
DWIDTH 27 0
BBX 29 16 0 0
BITMAP
1FE007F8
078001E0
078001C0
070001C0
0F0003C0
0F0003C0
0E000380
0E000780
1E000780
1E000700
1C000F00
3C000F00
3C098E00
381BDE00
78799C00
FFF1B000
ENDCHAR
STARTCHAR 01C8
ENCODING 456
SWIDTH 875 0
DWIDTH 21 0
BBX 22 21 0 -5
BITMAP
1FE018
07803C
07803C
070018
0F0000
0F0078
0E0078
0E0070
1E0070
1E0070
1C0070
3C04E0
3C08E0
3818E0
7879C0
FFF1C0
0001C0
000180
000380
001B00
001E00
ENDCHAR
STARTCHAR 01C9
ENCODING 457
SWIDTH 541 0
DWIDTH 13 0
BBX 14 21 0 -5
BITMAP
0E18
0E3C
0E3C
0E18
1C00
1C78
1C70
3870
3870
3870
70E0
70E0
70E0
70E0
F9C0
71C0
01C0
0380
0380
1B00
1E00
ENDCHAR
STARTCHAR 01CA
ENCODING 458
SWIDTH 1208 0
DWIDTH 29 0
BBX 32 16 0 0
BITMAP
1F83E0FF
0780803C
07C08038
07C08078
05E10070
09E10070
08F100F0
08F200F0
107200E0
107A01E0
103A01E0
203C01C0
201C33C0
201C7380
60087300
F0083600
ENDCHAR
STARTCHAR 01CB
ENCODING 459
SWIDTH 1000 0
DWIDTH 24 0
BBX 25 21 -1 -5
BITMAP
0FC1F180
03C04380
03E04380
03E04180
02F08000
04F08780
04788700
04790700
083D0700
083D0F00
081F0E00
101E0E00
100E0E00
100E1C00
30041C00
F8041C00
00001800
00003800
00003800
0001B000
0001C000
ENDCHAR
STARTCHAR 01CC
ENCODING 460
SWIDTH 833 0
DWIDTH 20 0
BBX 20 21 0 -5
BITMAP
000030
000070
000070
000030
000000
1C70F0
1CF0E0
1D70E0
3A70E0
3CE0E0
38E1C0
38E1C0
71C1C0
71D380
71E380
E1C380
000300
000700
000700
003600
003800
ENDCHAR
STARTCHAR 01CD
ENCODING 461
SWIDTH 666 0
DWIDTH 16 0
BBX 19 21 -1 0
BITMAP
000860
000CC0
000F80
000700
000000
000200
000600
000C00
001C00
003C00
007C00
00DC00
009C00
011C00
021C00
07FC00
081C00
101C00
101C00
203C00
F07E00
ENDCHAR
STARTCHAR 01CE
ENCODING 462
SWIDTH 500 0
DWIDTH 12 0
BBX 12 16 0 0
BITMAP
0210
0370
03E0
01C0
0000
0760
0CE0
18E0
38C0
71C0
71C0
73C0
F580
F7A0
7BC0
7380
ENDCHAR
STARTCHAR 01CF
ENCODING 463
SWIDTH 375 0
DWIDTH 9 0
BBX 13 21 -1 0
BITMAP
0318
0330
01E0
01E0
0000
0FF0
03C0
03C0
0380
0780
0780
0700
0700
0F00
0F00
0E00
1E00
1E00
1C00
3C00
FF00
ENDCHAR
STARTCHAR 01D0
ENCODING 464
SWIDTH 291 0
DWIDTH 7 0
BBX 8 16 1 0
BITMAP
63
36
3E
3C
00
78
78
70
70
70
70
E0
E0
F0
F0
E0
ENDCHAR
STARTCHAR 01D1
ENCODING 465
SWIDTH 708 0
DWIDTH 17 0
BBX 16 22 1 0
BITMAP
00C6
006C
007C
0078
0000
0000
00F8
030E
0E0E
1E0F
3C0F
3C0F
780F
780F
780F
F01E
F01E
F03C
7038
7070
38E0
1F80
ENDCHAR
STARTCHAR 01D2
ENCODING 466
SWIDTH 500 0
DWIDTH 12 0
BBX 11 16 1 0
BITMAP
0C20
06C0
07C0
0780
0000
0780
19C0
31C0
71C0
F1C0
E1C0
E380
E380
E700
E600
7800
ENDCHAR
STARTCHAR 01D3
ENCODING 467
SWIDTH 708 0
DWIDTH 17 0
BBX 17 22 2 0
BITMAP
010400
018C00
00D800
00F000
00E000
000000
7F8F80
1E0200
1C0200
3C0400
3C0400
3C0400
380400
780800
780800
700800
F01000
F01000
F01000
702000
78C000
1F0000
ENDCHAR
STARTCHAR 01D4
ENCODING 468
SWIDTH 541 0
DWIDTH 13 0
BBX 11 16 1 0
BITMAP
0C60
06C0
07C0
0780
0000
78E0
38E0
38E0
71C0
71C0
73C0
E5C0
E780
EBA0
F3C0
E380
ENDCHAR
STARTCHAR 01D5
ENCODING 469
SWIDTH 708 0
DWIDTH 17 0
BBX 17 22 2 0
BITMAP
00FC00
00FC00
019800
019800
000000
000000
7F8F80
1E0200
1C0200
1C0400
3C0400
3C0400
380400
780800
780800
700800
701000
F01000
F01000
702000
78C000
1F0000
ENDCHAR
STARTCHAR 01D6
ENCODING 470
SWIDTH 541 0
DWIDTH 13 0
BBX 12 19 1 0
BITMAP
0FF0
0FF0
0000
0000
0CC0
1CE0
0CC0
0000
78E0
38E0
38E0
71C0
71C0
73C0
E5C0
E780
EBA0
F3C0
E380
ENDCHAR
STARTCHAR 01D7
ENCODING 471
SWIDTH 708 0
DWIDTH 17 0
BBX 17 22 2 1
BITMAP
003000
002000
019800
019800
000000
000000
7F8F80
1E0200
1C0200
1C0400
3C0400
3C0400
380400
780800
780800
700800
701000
F01000
F01000
702000
78C000
1F0000
ENDCHAR
STARTCHAR 01D8
ENCODING 472
SWIDTH 541 0
DWIDTH 13 0
BBX 12 21 1 0
BITMAP
00F0
00E0
01C0
0180
0300
0000
0CC0
1CE0
0CC0
0000
78E0
38E0
38E0
71C0
71C0
73C0
E5C0
E780
EBA0
F3C0
E380
ENDCHAR
STARTCHAR 01D9
ENCODING 473
SWIDTH 708 0
DWIDTH 17 0
BBX 17 22 2 0
BITMAP
004800
007000
019800
019800
000000
000000
7F8F80
1E0200
1C0200
1C0400
3C0400
3C0400
380400
780800
780800
700800
701000
F01000
F01000
702000
78C000
1F0000
ENDCHAR
STARTCHAR 01DA
ENCODING 474
SWIDTH 541 0
DWIDTH 13 0
BBX 12 21 1 0
BITMAP
0410
0660
06E0
03C0
0380
0000
0CC0
1CE0
0CC0
0000
78E0
38E0
38E0
71C0
71C0
73C0
E5C0
E780
EBA0
F3C0
E380
ENDCHAR
STARTCHAR 01DB
ENCODING 475
SWIDTH 708 0
DWIDTH 17 0
BBX 17 22 2 1
BITMAP
006000
002000
019800
019800
000000
000000
7F8F80
1E0200
1C0200
1C0400
3C0400
3C0400
380400
780800
780800
700800
701000
F01000
F01000
702000
78C000
1F0000
ENDCHAR
STARTCHAR 01DC
ENCODING 476
SWIDTH 541 0
DWIDTH 13 0
BBX 11 21 1 0
BITMAP
0700
0380
0180
0080
0040
0000
0CC0
1CE0
0CC0
0000
78E0
38E0
38E0
71C0
71C0
73C0
E5C0
E780
EBA0
F3C0
E380
ENDCHAR
STARTCHAR 01DD
ENCODING 477
SWIDTH 458 0
DWIDTH 11 0
BBX 10 11 0 0
BITMAP
0F80
1FC0
23C0
01C0
01C0
0F80
3380
6300
E700
EC00
F000
ENDCHAR
STARTCHAR 01DE
ENCODING 478
SWIDTH 666 0
DWIDTH 16 0
BBX 18 22 -1 0
BITMAP
000FC0
000FC0
000000
000980
000980
000000
000200
000600
000C00
001C00
003C00
007C00
00DC00
009C00
011C00
021C00
07FC00
081C00
101C00
101C00
203C00
F07E00
ENDCHAR
STARTCHAR 01DF
ENCODING 479
SWIDTH 500 0
DWIDTH 12 0
BBX 13 19 0 0
BITMAP
07F8
0FF8
0000
0000
0E60
0EF0
0E60
0000
0760
0CE0
18E0
38C0
71C0
71C0
73C0
F380
F7A0
7BC0
7380
ENDCHAR
STARTCHAR 01E0
ENCODING 480
SWIDTH 666 0
DWIDTH 16 0
BBX 19 22 -1 0
BITMAP
0007E0
0007C0
000000
000300
000300
000000
000200
000600
000C00
001C00
003C00
007C00
00DC00
009C00
011C00
021C00
07FC00
081C00
101C00
101C00
203C00
F07E00
ENDCHAR
STARTCHAR 01E1
ENCODING 481
SWIDTH 500 0
DWIDTH 12 0
BBX 14 19 0 0
BITMAP
07FC
07F8
0000
0180
01C0
01C0
0180
0000
0760
0CE0
18E0
38C0
71C0
71C0
73C0
F380
F7A0
7BC0
7380
ENDCHAR
STARTCHAR 01E2
ENCODING 482
SWIDTH 958 0
DWIDTH 23 0
BBX 24 20 -1 0
BITMAP
0003FE
0003FC
000000
000000
003FFF
000B87
001F82
003702
002700
004F08
008F18
018FF0
030E30
021E10
07FC00
081C00
103C04
303808
203838
F0FFF8
ENDCHAR
STARTCHAR 01E3
ENCODING 483
SWIDTH 708 0
DWIDTH 17 0
BBX 17 15 0 0
BITMAP
01FE00
01FE00
000000
000000
077780
0CFB80
18F380
38E380
70E700
71DC00
71E000
F3C000
F5C100
79FE00
70F800
ENDCHAR
STARTCHAR 01E4
ENCODING 484
SWIDTH 708 0
DWIDTH 17 0
BBX 16 16 2 0
BITMAP
01FF
0707
1E02
3C02
7802
7800
F000
F0FE
F03C
E038
E038
E1FE
F078
7070
38F0
0FC0
ENDCHAR
STARTCHAR 01E5
ENCODING 485
SWIDTH 500 0
DWIDTH 12 0
BBX 14 16 -2 -5
BITMAP
03E0
0E3C
0E38
1E38
1C78
0C70
07C0
0800
1C00
1F80
1FE0
1FE0
60E0
FFF0
6060
3F80
ENDCHAR
STARTCHAR 01E6
ENCODING 486
SWIDTH 708 0
DWIDTH 17 0
BBX 16 22 2 0
BITMAP
00C3
0046
006C
0078
0078
0000
01FF
0787
1E02
3C02
7802
7800
F000
F0FE
F03C
E038
E038
E078
F078
7070
38F0
0FC0
ENDCHAR
STARTCHAR 01E7
ENCODING 487
SWIDTH 500 0
DWIDTH 12 0
BBX 13 21 -1 -5
BITMAP
0210
0330
03E0
03C0
0000
07C0
1C78
1C70
3C70
18F0
18E0
0F80
1000
3C00
3F80
1FC0
67C0
C0C0
C0C0
E080
3F00
ENDCHAR
STARTCHAR 01E8
ENCODING 488
SWIDTH 666 0
DWIDTH 16 0
BBX 18 21 0 0
BITMAP
00C200
006C00
007C00
007800
000000
1FEFC0
078600
078400
071800
073000
0F6000
0FC000
0FE000
1EE000
1EE000
1CF000
3C7000
3C7000
387800
387800
FEFC00
ENDCHAR
STARTCHAR 01E9
ENCODING 489
SWIDTH 500 0
DWIDTH 12 0
BBX 13 21 0 0
BITMAP
0318
0330
01E0
01E0
0000
0F00
0E00
0E00
0E00
0C00
1DF0
1C40
1C80
3900
3B00
3F00
7B80
7380
73A0
73C0
E180
ENDCHAR
STARTCHAR 01EA
ENCODING 490
SWIDTH 708 0
DWIDTH 17 0
BBX 16 21 1 -5
BITMAP
00F8
030E
0E0E
1E0F
3C0F
3C0F
780F
780F
780F
F01E
F01E
F03C
7038
7070
38E0
1F80
0100
0600
0600
0E80
0700
ENDCHAR
STARTCHAR 01EB
ENCODING 491
SWIDTH 500 0
DWIDTH 12 0
BBX 10 16 1 -5
BITMAP
0780
19C0
31C0
71C0
F1C0
E1C0
E380
E380
E700
E600
7800
1000
2000
6000
6800
7000
ENDCHAR
STARTCHAR 01EC
ENCODING 492
SWIDTH 708 0
DWIDTH 17 0
BBX 16 25 1 -5
BITMAP
01FE
01FE
0000
0000
00F8
030E
0E0E
1E0F
3C0F
3C0F
780F
780F
780F
F01E
F01E
F03C
7038
7070
38E0
1F80
0100
0600
0600
0E80
0700
ENDCHAR
STARTCHAR 01ED
ENCODING 493
SWIDTH 500 0
DWIDTH 12 0
BBX 12 20 1 -5
BITMAP
1FF0
1FE0
0000
0000
0780
19C0
31C0
71C0
F1C0
E1C0
E380
E380
E700
E600
7800
1000
2000
6000
6800
7000
ENDCHAR
STARTCHAR 01EE
ENCODING 494
SWIDTH 541 0
DWIDTH 13 0
BBX 17 27 -2 -5
BITMAP
00C300
004600
006C00
007800
003800
000000
03FF80
070F00
041E00
003C00
007800
00F000
01E000
03C000
03E000
00F000
007800
003800
003C00
003C00
003800
003800
007800
007000
00E000
C1C000
3F0000
ENDCHAR
STARTCHAR 01EF
ENCODING 495
SWIDTH 458 0
DWIDTH 11 0
BBX 14 21 -2 -5
BITMAP
018C
0198
00F0
00E0
0000
0FFC
0878
00F0
01E0
03C0
0700
0F80
01C0
01E0
00E0
00E0
01C0
01C0
8180
8300
7E00
ENDCHAR
STARTCHAR 01F0
ENCODING 496
SWIDTH 291 0
DWIDTH 7 0
BBX 13 21 -4 -5
BITMAP
0308
01B0
01F0
01E0
0000
00C0
03C0
01C0
0180
0380
0380
0380
0300
0700
0700
0700
0E00
0E00
0C00
FC00
7000
ENDCHAR
STARTCHAR 01F1
ENCODING 497
SWIDTH 1333 0
DWIDTH 32 0
BBX 35 16 -1 0
BITMAP
0FFC03FFE0
03CF0307C0
03C7820F80
0383840F00
0383C01E00
0783C03E00
0703C07C00
0703C0F800
0F03C1F000
0F0781E000
0E0783C000
0E0707C000
1E0F0F8200
1C1E1F0600
3C381E0E00
FFE03FFC00
ENDCHAR
STARTCHAR 01F2
ENCODING 498
SWIDTH 1125 0
DWIDTH 27 0
BBX 28 18 -1 -2
BITMAP
0FFC0000
03DF0000
03C78000
03838000
0383C000
0783CFF0
0783CFE0
0703CFC0
0F03C880
0F078100
0E078100
0E070200
1E0F0400
1C1E0C00
3C381E60
FFE01EE0
00000660
000003C0
ENDCHAR
STARTCHAR 01F3
ENCODING 499
SWIDTH 875 0
DWIDTH 21 0
BBX 21 18 0 -2
BITMAP
003800
007800
007000
007000
007000
0763F8
0CE3F0
18E3F0
38E420
71C040
71C080
73C100
758200
F7A300
7BC738
738FB8
0003B0
0000E0
ENDCHAR
STARTCHAR 01F4
ENCODING 500
SWIDTH 708 0
DWIDTH 17 0
BBX 16 22 2 0
BITMAP
001E
001C
0018
0030
0020
0000
01FF
0707
1E02
3C02
7802
7800
F000
F0FE
F03C
E038
E038
E078
F078
7070
38F0
0FC0
ENDCHAR
STARTCHAR 01F5
ENCODING 501
SWIDTH 500 0
DWIDTH 12 0
BBX 13 21 -1 -5
BITMAP
0070
00E0
00C0
0080
0000
07C0
1C78
1C70
3C70
18F0
18E0
0F80
1000
3C00
3F80
1FC0
67C0
C0C0
C0C0
E080
3F00
ENDCHAR
STARTCHAR 01F6
ENCODING 502
SWIDTH 1000 0
DWIDTH 24 0
BBX 24 16 -1 0
BITMAP
0FF3FC
03C1F0
03C1E0
0381E0
0781C0
0783C7
0703C7
07FF87
0F078E
0E078E
0E078E
1E071C
1E0F1C
1C0F18
3C0738
FF03E0
ENDCHAR
STARTCHAR 01F7
ENCODING 503
SWIDTH 708 0
DWIDTH 17 0
BBX 17 21 -1 -6
BITMAP
01CF00
03F780
03C380
038380
078380
078380
070780
070700
0F0700
0E0E00
0E0E00
1E1C00
1E3800
1C6000
1DC000
3F0000
380000
380000
780000
780000
C00000
ENDCHAR
STARTCHAR 01F8
ENCODING 504
SWIDTH 708 0
DWIDTH 17 0
BBX 20 22 -1 0
BITMAP
007000
003800
001800
000800
000000
000000
0FC1F0
03C040
03E040
03E040
04F080
04F080
047880
047900
083D00
083D00
081F00
101E00
100E00
100E00
300400
F80400
ENDCHAR
STARTCHAR 01F9
ENCODING 505
SWIDTH 541 0
DWIDTH 13 0
BBX 12 16 0 0
BITMAP
0700
0380
0180
0080
0000
0C70
3CF0
1DF0
1E70
3CE0
3CE0
38E0
70C0
71D0
71E0
E1C0
ENDCHAR
STARTCHAR 01FA
ENCODING 506
SWIDTH 666 0
DWIDTH 16 0
BBX 19 25 -1 0
BITMAP
0001E0
0001C0
000180
000300
000700
000900
000880
000880
000900
000600
000600
000C00
001C00
003C00
007C00
00DC00
009C00
011C00
021C00
07FC00
081C00
101C00
101C00
203C00
F07E00
ENDCHAR
STARTCHAR 01FB
ENCODING 507
SWIDTH 500 0
DWIDTH 12 0
BBX 13 22 0 0
BITMAP
0078
0070
0060
00C0
0000
0000
01C0
0220
0220
01C0
0000
0760
0CE0
18E0
38C0
71C0
71C0
73C0
F380
F7A0
7BC0
7380
ENDCHAR
STARTCHAR 01FC
ENCODING 508
SWIDTH 958 0
DWIDTH 23 0
BBX 24 22 -1 0
BITMAP
0000F0
0000E0
0000C0
000180
000100
000000
003FFF
000B87
001F82
003702
002700
004F08
008F18
018FF0
030E30
021E10
07FC00
081C00
103C04
303808
203838
F0FFF8
ENDCHAR
STARTCHAR 01FD
ENCODING 509
SWIDTH 708 0
DWIDTH 17 0
BBX 17 16 0 0
BITMAP
001C00
003800
003000
006000
000000
077780
0CFB80
18F380
38E380
70E700
71CC00
71F000
F3C000
F5C100
79FE00
70F800
ENDCHAR
STARTCHAR 01FE
ENCODING 510
SWIDTH 708 0
DWIDTH 17 0
BBX 16 22 1 0
BITMAP
001C
0038
0030
0020
0000
0000
00F9
030E
0E0E
1E0F
3C1F
3C2F
784F
788F
790F
F21E
F41E
F83C
7038
7070
78E0
9F00
ENDCHAR
STARTCHAR 01FF
ENCODING 511
SWIDTH 500 0
DWIDTH 12 0
BBX 11 16 0 0
BITMAP
00E0
00C0
0180
0100
0000
03C0
0CE0
18E0
38E0
79E0
76E0
7DC0
71C0
7180
7300
BC00
ENDCHAR
STARTCHAR 0200
ENCODING 512
SWIDTH 666 0
DWIDTH 16 0
BBX 17 21 -1 0
BITMAP
007700
003300
001180
001880
000000
000200
000600
000C00
001C00
003C00
007C00
00DC00
009C00
011C00
021C00
07FC00
081C00
101C00
101C00
203C00
F07E00
ENDCHAR
STARTCHAR 0201
ENCODING 513
SWIDTH 500 0
DWIDTH 12 0
BBX 11 16 0 0
BITMAP
1DC0
0CE0
0660
0220
0000
0760
0CE0
18E0
38C0
71C0
71C0
73C0
F380
F7A0
7BC0
7380
ENDCHAR
STARTCHAR 0202
ENCODING 514
SWIDTH 666 0
DWIDTH 16 0
BBX 18 21 -1 1
BITMAP
000780
000F80
0008C0
001000
000000
000200
000600
000C00
001C00
003C00
007C00
00DC00
009C00
011C00
021C00
07FC00
081C00
101C00
101C00
203C00
F07E00
ENDCHAR
STARTCHAR 0203
ENCODING 515
SWIDTH 500 0
DWIDTH 12 0
BBX 11 16 0 0
BITMAP
01C0
03E0
0660
0020
0000
0760
0CE0
18E0
38C0
71C0
71C0
73C0
F380
F7A0
7BC0
7380
ENDCHAR
STARTCHAR 0204
ENCODING 516
SWIDTH 666 0
DWIDTH 16 0
BBX 16 21 0 0
BITMAP
03B8
019C
00CC
0044
0000
0FFF
0783
0781
0700
0F00
0F08
0E10
0FF0
1E30
1E10
1C00
3C00
3C04
380C
7838
FFF8
ENDCHAR
STARTCHAR 0205
ENCODING 517
SWIDTH 458 0
DWIDTH 11 0
BBX 10 16 1 0
BITMAP
3B80
19C0
0CC0
0440
0000
0780
19C0
3180
7380
E300
EC00
F000
E000
E100
FE00
7800
ENDCHAR
STARTCHAR 0206
ENCODING 518
SWIDTH 666 0
DWIDTH 16 0
BBX 16 21 0 1
BITMAP
003C
007E
0046
0082
0000
0FFF
0783
0781
0700
0F00
0F08
0E10
0FF0
1E30
1E10
1C00
3C00
3C04
380C
7838
FFF8
ENDCHAR
STARTCHAR 0207
ENCODING 519
SWIDTH 458 0
DWIDTH 11 0
BBX 11 16 1 0
BITMAP
03C0
07C0
0460
0820
0000
0780
19C0
3180
7380
E700
FC00
E000
E000
E100
FE00
7800
ENDCHAR
STARTCHAR 0208
ENCODING 520
SWIDTH 375 0
DWIDTH 9 0
BBX 12 21 -1 0
BITMAP
0EE0
0670
0330
0110
0000
0FF0
03C0
03C0
0380
0780
0780
0700
0700
0F00
0F00
0E00
1E00
1E00
1C00
3C00
FF00
ENDCHAR
STARTCHAR 0209
ENCODING 521
SWIDTH 291 0
DWIDTH 7 0
BBX 9 16 -1 0
BITMAP
F700
7300
3100
1180
0000
0600
3E00
0C00
1C00
1C00
1C00
3800
3800
3A00
3C00
3800
ENDCHAR
STARTCHAR 020A
ENCODING 522
SWIDTH 375 0
DWIDTH 9 0
BBX 12 21 -1 1
BITMAP
00E0
01F0
0210
0010
0000
0FF0
03C0
03C0
0380
0780
0780
0700
0700
0F00
0F00
0E00
1E00
1E00
1C00
3C00
FF00
ENDCHAR
STARTCHAR 020B
ENCODING 523
SWIDTH 291 0
DWIDTH 7 0
BBX 7 16 1 0
BITMAP
1C
3E
66
02
00
78
78
70
70
70
70
E0
E0
F0
F0
E0
ENDCHAR
STARTCHAR 020C
ENCODING 524
SWIDTH 708 0
DWIDTH 17 0
BBX 16 22 1 0
BITMAP
07B8
0398
0188
00C4
0000
0000
00F8
030E
0E0E
1C0F
3C0F
3C0F
780F
780F
780F
F01E
F01E
F03C
7038
7070
38E0
1F80
ENDCHAR
STARTCHAR 020D
ENCODING 525
SWIDTH 500 0
DWIDTH 12 0
BBX 10 16 1 0
BITMAP
3B80
1980
08C0
0440
0000
0780
19C0
31C0
71C0
F1C0
E1C0
E380
E380
E300
E600
7800
ENDCHAR
STARTCHAR 020E
ENCODING 526
SWIDTH 708 0
DWIDTH 17 0
BBX 16 22 1 0
BITMAP
0038
007C
004C
0084
0000
0000
00F8
030E
0E0E
1E0F
3C0F
3C0F
780F
780F
780F
F01E
F01E
F03C
7038
7070
38E0
1F80
ENDCHAR
STARTCHAR 020F
ENCODING 527
SWIDTH 500 0
DWIDTH 12 0
BBX 10 16 1 0
BITMAP
0380
07C0
0C40
0800
0000
0780
19C0
31C0
71C0
F1C0
E1C0
E380
E380
E700
E600
7800
ENDCHAR
STARTCHAR 0210
ENCODING 528
SWIDTH 666 0
DWIDTH 16 0
BBX 16 21 -1 0
BITMAP
03B8
019C
00CC
0044
0000
07FC
03CF
0387
0387
078F
078F
071E
07F0
0F70
0E78
0E78
1E38
1E38
1C3C
3C1C
FF1F
ENDCHAR
STARTCHAR 0211
ENCODING 529
SWIDTH 375 0
DWIDTH 9 0
BBX 9 16 1 0
BITMAP
EE00
6600
6300
3100
0000
1B00
F380
7780
7F00
7800
7000
7000
E000
E000
E000
C000
ENDCHAR
STARTCHAR 0212
ENCODING 530
SWIDTH 666 0
DWIDTH 16 0
BBX 16 21 -1 1
BITMAP
003C
007E
0046
0082
0000
07FC
03CF
0387
0387
078F
078F
071E
07F0
0F70
0E78
0E78
1E38
1E38
1C3C
3C1C
FF1F
ENDCHAR
STARTCHAR 0213
ENCODING 531
SWIDTH 375 0
DWIDTH 9 0
BBX 9 16 1 0
BITMAP
0E00
1F00
3100
2000
0000
3B00
7380
7780
7900
7800
7000
7000
E000
E000
E000
C000
ENDCHAR
STARTCHAR 0214
ENCODING 532
SWIDTH 708 0
DWIDTH 17 0
BBX 17 22 2 0
BITMAP
0F7000
073000
031000
018800
000000
000000
7F8F80
1E0200
1C0200
1C0400
3C0400
3C0400
380400
780800
780800
700800
701000
F01000
F01000
702000
78C000
1F0000
ENDCHAR
STARTCHAR 0215
ENCODING 533
SWIDTH 541 0
DWIDTH 13 0
BBX 11 16 1 0
BITMAP
3B80
19C0
0CC0
0440
0000
78E0
38E0
38E0
71C0
71C0
73C0
E5C0
E780
EBA0
F3C0
E380
ENDCHAR
STARTCHAR 0216
ENCODING 534
SWIDTH 708 0
DWIDTH 17 0
BBX 17 22 2 0
BITMAP
007800
00F800
008C00
010400
010400
000000
7F8F80
1E0200
1C0200
1C0400
3C0400
3C0400
380400
780800
780800
700800
701000
F01000
F01000
702000
78C000
1F0000
ENDCHAR
STARTCHAR 0217
ENCODING 535
SWIDTH 541 0
DWIDTH 13 0
BBX 11 16 1 0
BITMAP
0380
07C0
0C40
0800
0000
78E0
38E0
38E0
71C0
71C0
73C0
E5C0
E780
EBA0
F3C0
E380
ENDCHAR
STARTCHAR 0218
ENCODING 536
SWIDTH 541 0
DWIDTH 13 0
BBX 14 22 0 -7
BITMAP
03FC
0E1C
0E08
1E08
1E08
1F00
0F80
07C0
07C0
03E0
01E0
40F0
C0E0
C0E0
E1C0
FF80
0000
0C00
0E00
0C00
0400
1800
ENDCHAR
STARTCHAR 0219
ENCODING 537
SWIDTH 375 0
DWIDTH 9 0
BBX 9 17 0 -7
BITMAP
1F80
3180
3080
3800
3C00
1E00
0F00
8700
C700
C600
FC00
0000
3000
3800
1800
1000
6000
ENDCHAR
STARTCHAR 021A
ENCODING 538
SWIDTH 625 0
DWIDTH 15 0
BBX 14 22 2 -7
BITMAP
3FFC
63CC
4384
0384
0780
0780
0700
0F00
0F00
0E00
1E00
1E00
1C00
1C00
3C00
FF00
0000
3000
3800
3000
1000
6000
ENDCHAR
STARTCHAR 021B
ENCODING 539
SWIDTH 291 0
DWIDTH 7 0
BBX 7 20 0 -7
BITMAP
02
04
1C
7E
38
38
38
38
70
70
70
74
F8
70
00
60
E0
60
40
80
ENDCHAR
STARTCHAR 021C
ENCODING 540
SWIDTH 583 0
DWIDTH 14 0
BBX 16 22 -2 -6
BITMAP
027E
0387
0207
0407
0007
0007
000E
001C
0038
00E0
0770
0038
0038
0038
0038
0038
0078
00F0
01E0
0380
1C00
E000
ENDCHAR
STARTCHAR 021D
ENCODING 541
SWIDTH 458 0
DWIDTH 11 0
BBX 11 16 -1 -6
BITMAP
1FC0
18E0
10E0
00E0
00C0
0180
0300
1E00
0380
0380
0380
0380
0700
0E00
1800
E000
ENDCHAR
STARTCHAR 021E
ENCODING 542
SWIDTH 791 0
DWIDTH 19 0
BBX 22 22 -1 0
BITMAP
0030C0
001180
001B00
001F00
000E00
000000
0FF3FC
03C1E0
03C1E0
0381E0
0781C0
0783C0
0703C0
07FF80
0F0780
0E0780
0E0780
1E0700
1E0F00
1C0F00
3C0F00
FF3F80
ENDCHAR
STARTCHAR 021F
ENCODING 543
SWIDTH 541 0
DWIDTH 13 0
BBX 13 21 0 0
BITMAP
0318
0330
01E0
01C0
0000
0F00
0E00
0E00
0E00
0E00
1C60
1CF0
1D70
3A70
3CE0
38E0
38E0
71C0
71D0
71E0
E1C0
ENDCHAR
STARTCHAR 0220
ENCODING 544
SWIDTH 750 0
DWIDTH 18 0
BBX 19 21 -1 -5
BITMAP
07CF80
03F1E0
03C1E0
0381E0
0381C0
0781C0
0783C0
0703C0
0F0380
0F0780
0E0780
0E0700
1E0700
1E0F00
3C0F00
FF0E00
001E00
001E00
001C00
003C00
007F00
ENDCHAR
STARTCHAR 0221
ENCODING 545
SWIDTH 500 0
DWIDTH 12 0
BBX 13 21 0 -5
BITMAP
0038
0078
0070
0070
0070
0760
0CE0
18E0
38E0
71C0
71C0
71C0
F380
F780
7B80
7300
07E0
07E0
0720
0B20
03C0
ENDCHAR
STARTCHAR 0222
ENCODING 546
SWIDTH 666 0
DWIDTH 16 0
BBX 15 16 1 0
BITMAP
0038
039C
0E0E
1C1E
1C1C
1C1C
1C38
07E0
3870
7038
F038
E038
E078
E070
E0E0
3F80
ENDCHAR
STARTCHAR 0223
ENCODING 547
SWIDTH 541 0
DWIDTH 13 0
BBX 14 17 0 1
BITMAP
0318
0E18
1C1C
1C1C
1C38
0C70
07C0
1860
3070
7070
7070
E070
E070
E060
60C0
7180
3E00
ENDCHAR
STARTCHAR 0224
ENCODING 548
SWIDTH 625 0
DWIDTH 15 0
BBX 17 21 -1 -5
BITMAP
07FF80
060F00
081F00
083E00
007C00
007800
00F000
01E000
03E000
07C000
078000
0F0000
1E0000
3E0000
7C0000
FFF800
001C00
000C00
001C00
001000
002000
ENDCHAR
STARTCHAR 0225
ENCODING 549
SWIDTH 375 0
DWIDTH 9 0
BBX 9 16 0 -5
BITMAP
3F80
3F00
3E00
4200
0400
0800
1000
2000
3E00
7F00
FF00
0300
0300
0300
0600
0800
ENDCHAR
STARTCHAR 0226
ENCODING 550
SWIDTH 666 0
DWIDTH 16 0
BBX 16 21 -1 0
BITMAP
0003
0007
0007
0003
0000
0002
0006
000C
001C
003C
007C
00DC
009C
011C
021C
07FC
081C
101C
101C
203C
F07E
ENDCHAR
STARTCHAR 0227
ENCODING 551
SWIDTH 500 0
DWIDTH 12 0
BBX 11 16 0 0
BITMAP
0180
0380
0380
0180
0000
0760
0CE0
18E0
38C0
71C0
71C0
73C0
F380
F7A0
7BC0
7380
ENDCHAR
STARTCHAR 0228
ENCODING 552
SWIDTH 666 0
DWIDTH 16 0
BBX 17 21 -1 -5
BITMAP
07FF80
03C180
03C080
038000
078000
078400
070C00
07F800
0F1800
0F0800
0E0000
1E0000
1E0200
1C0600
3C1C00
FFFC00
010000
078000
018000
018000
0F0000
ENDCHAR
STARTCHAR 0229
ENCODING 553
SWIDTH 458 0
DWIDTH 11 0
BBX 11 15 0 -4
BITMAP
03C0
0CE0
18C0
39C0
7380
7E00
7000
7000
7080
7F00
3C00
3800
1800
1800
F000
ENDCHAR
STARTCHAR 022A
ENCODING 554
SWIDTH 708 0
DWIDTH 17 0
BBX 16 22 1 0
BITMAP
007E
007E
00CC
00CC
0000
0000
00F8
030E
0E0E
1E0F
3C0F
3C0F
780F
780F
780F
F01E
F01E
F03C
7038
7070
38E0
1F80
ENDCHAR
STARTCHAR 022B
ENCODING 555
SWIDTH 500 0
DWIDTH 12 0
BBX 12 19 1 0
BITMAP
0FF0
0FF0
0000
0000
0CC0
1CE0
0CC0
0000
0780
19C0
31C0
71C0
F1C0
E1C0
E380
E380
E700
E600
7800
ENDCHAR
STARTCHAR 022C
ENCODING 556
SWIDTH 708 0
DWIDTH 17 0
BBX 16 22 1 0
BITMAP
007E
007E
0060
009C
0000
0000
00F8
030E
0E0E
1E0F
3C0F
3C0F
780F
780F
780F
F01E
F01E
F03C
7038
7070
38E0
1F80
ENDCHAR
STARTCHAR 022D
ENCODING 557
SWIDTH 500 0
DWIDTH 12 0
BBX 12 19 1 0
BITMAP
0FF0
0FF0
0000
0E20
0F40
17C0
1180
0000
0780
19C0
31C0
71C0
F1C0
E1C0
E380
E380
E700
E600
7800
ENDCHAR
STARTCHAR 022E
ENCODING 558
SWIDTH 708 0
DWIDTH 17 0
BBX 16 22 1 0
BITMAP
0030
0078
0078
0030
0000
0000
00F8
030E
0E0E
1E0F
3C0F
3C0F
780F
780F
780F
F01E
F01E
F03C
7038
7070
38E0
1F80
ENDCHAR
STARTCHAR 022F
ENCODING 559
SWIDTH 500 0
DWIDTH 12 0
BBX 10 16 1 0
BITMAP
0300
0780
0780
0300
0000
0780
19C0
31C0
71C0
F1C0
E1C0
E380
E380
E700
E600
7800
ENDCHAR
STARTCHAR 0230
ENCODING 560
SWIDTH 708 0
DWIDTH 17 0
BBX 16 22 1 0
BITMAP
007E
007E
0030
0030
0000
0000
00F8
030E
0E0E
1E0F
3C0F
3C0F
780F
780F
780F
F01E
F01E
F03C
7038
7070
38E0
1F80
ENDCHAR
STARTCHAR 0231
ENCODING 561
SWIDTH 500 0
DWIDTH 12 0
BBX 12 19 1 0
BITMAP
0FF0
0FF0
0000
0300
0380
0380
0300
0000
0780
19C0
31C0
71C0
F1C0
E1C0
E380
E380
E700
E600
7800
ENDCHAR
STARTCHAR 0232
ENCODING 562
SWIDTH 625 0
DWIDTH 15 0
BBX 15 20 2 0
BITMAP
07FC
07F8
0000
0000
7FBE
3E0C
1C18
1E10
1E20
0E20
0E40
0E80
0F00
0F00
0E00
0E00
1E00
1E00
3C00
FF00
ENDCHAR
STARTCHAR 0233
ENCODING 563
SWIDTH 458 0
DWIDTH 11 0
BBX 14 20 -2 -5
BITMAP
03FC
07FC
0000
0000
0E30
1E38
0E38
0E10
0E10
0620
0640
0740
0780
0700
0700
0600
0400
C800
F000
E000
ENDCHAR
STARTCHAR 0234
ENCODING 564
SWIDTH 291 0
DWIDTH 7 0
BBX 9 21 -2 -5
BITMAP
0380
0380
0380
0380
0700
0700
0700
0E00
0E00
0E00
0C00
1C00
1C00
1C00
3800
3800
3E00
3F00
7300
7200
9C00
ENDCHAR
STARTCHAR 0235
ENCODING 565
SWIDTH 541 0
DWIDTH 13 0
BBX 12 16 0 -5
BITMAP
1C70
1CF0
1D70
3A70
3CE0
38E0
38E0
71C0
71C0
71C0
E180
03E0
03F0
0390
0590
09E0
ENDCHAR
STARTCHAR 0236
ENCODING 566
SWIDTH 291 0
DWIDTH 7 0
BBX 7 14 0 0
BITMAP
02
04
1C
7E
38
38
38
38
70
7C
7E
72
E2
3C
ENDCHAR
STARTCHAR 0237
ENCODING 567
SWIDTH 291 0
DWIDTH 7 0
BBX 10 16 -4 -5
BITMAP
01C0
01C0
01C0
0380
0380
0380
0380
0700
0700
0700
0700
0E00
0E00
4C00
FC00
7000
ENDCHAR
STARTCHAR 0238
ENCODING 568
SWIDTH 750 0
DWIDTH 18 0
BBX 17 16 0 0
BITMAP
007800
003800
007000
007000
007000
077700
0CFF00
18E380
38E380
71C380
71C380
73C700
F58700
F58E00
798C00
70F000
ENDCHAR
STARTCHAR 0239
ENCODING 569
SWIDTH 750 0
DWIDTH 18 0
BBX 17 16 0 -5
BITMAP
077700
0D6F80
18F380
38E380
71C380
71C380
71C700
F3C700
F78E00
7B8C00
73F000
070000
070000
070000
0F0000
1F8000
ENDCHAR
STARTCHAR 023A
ENCODING 570
SWIDTH 666 0
DWIDTH 16 0
BBX 18 16 -1 0
BITMAP
000240
000480
000D00
001E00
003C00
005C00
009C00
013C00
025C00
03FC00
0F1C00
0A1C00
141C00
283C00
303C00
F07E00
ENDCHAR
STARTCHAR 023B
ENCODING 571
SWIDTH 666 0
DWIDTH 16 0
BBX 15 19 2 -1
BITMAP
0004
0008
01FE
0716
1E26
3C20
7840
7840
F080
F080
F100
E100
E200
E200
F400
7430
3C40
1F80
1000
ENDCHAR
STARTCHAR 023C
ENCODING 572
SWIDTH 500 0
DWIDTH 12 0
BBX 10 20 1 -4
BITMAP
0080
0100
0100
0100
0200
0F80
1EC0
3BC0
75C0
7400
6400
E800
E800
F880
7B00
3C00
1000
2000
2000
2000
ENDCHAR
STARTCHAR 023D
ENCODING 573
SWIDTH 625 0
DWIDTH 15 0
BBX 12 16 1 0
BITMAP
3FC0
0F00
0F00
0E00
1E00
1E00
1C00
7FC0
3C00
3C00
3800
7800
7810
7030
7070
FFE0
ENDCHAR
STARTCHAR 023E
ENCODING 574
SWIDTH 625 0
DWIDTH 15 0
BBX 17 16 -1 0
BITMAP
07FF80
0C7B80
087480
007880
00F800
00F000
00E000
01E000
01E000
03C000
07C000
0FC000
1B8000
338000
678000
9FE000
ENDCHAR
STARTCHAR 023F
ENCODING 575
SWIDTH 375 0
DWIDTH 9 0
BBX 9 16 0 -5
BITMAP
1F80
3180
3080
3800
3C00
1E00
0F00
8700
8700
C600
FC00
2000
2000
2600
2600
1E00
ENDCHAR
STARTCHAR 0240
ENCODING 576
SWIDTH 375 0
DWIDTH 9 0
BBX 9 16 0 -5
BITMAP
3F80
3F00
3F00
4200
0400
0800
1000
1000
2000
7000
F800
1800
1800
0980
0B80
0700
ENDCHAR
STARTCHAR 0241
ENCODING 577
SWIDTH 500 0
DWIDTH 12 0
BBX 12 16 1 0
BITMAP
0F80
1060
3870
3030
0070
0070
0060
00E0
01C0
0F80
3C00
3800
3800
7000
7000
F000
ENDCHAR
STARTCHAR 0242
ENCODING 578
SWIDTH 458 0
DWIDTH 11 0
BBX 10 11 1 0
BITMAP
1F00
6380
E1C0
41C0
0380
0380
0600
1800
3800
3800
7C00
ENDCHAR
STARTCHAR 0243
ENCODING 579
SWIDTH 666 0
DWIDTH 16 0
BBX 15 16 0 0
BITMAP
0FFC
079E
078E
070E
070E
0F1E
0F38
0FC0
0E38
1E3C
1C1C
7FBC
3C3C
383C
38F8
FFE0
ENDCHAR
STARTCHAR 0244
ENCODING 580
SWIDTH 708 0
DWIDTH 17 0
BBX 18 16 1 0
BITMAP
3FC7C0
0F0100
0E0100
0E0100
1E0200
1E0200
1C0200
FFFF00
3C0400
380400
780800
780800
780800
381000
3C6000
0F8000
ENDCHAR
STARTCHAR 0245
ENCODING 581
SWIDTH 666 0
DWIDTH 16 0
BBX 15 16 -1 0
BITMAP
0004
0004
000C
001C
003C
005C
009C
011C
031C
023C
043C
083C
103C
203C
603C
F07E
ENDCHAR
STARTCHAR 0246
ENCODING 582
SWIDTH 666 0
DWIDTH 16 0
BBX 17 20 -1 -2
BITMAP
000080
000080
07FF80
03C380
03C480
038400
078800
079000
071400
07FC00
0F4C00
0F8800
0E8800
1F0000
1E0200
1E0600
3C1C00
FFFC00
100000
100000
ENDCHAR
STARTCHAR 0247
ENCODING 583
SWIDTH 458 0
DWIDTH 11 0
BBX 10 20 1 -4
BITMAP
0100
0100
0200
0200
0200
0F80
1DC0
3580
7B80
EF00
FC00
F000
F000
F100
FE00
7800
2000
2000
4000
4000
ENDCHAR
STARTCHAR 0248
ENCODING 584
SWIDTH 500 0
DWIDTH 12 0
BBX 14 16 0 0
BITMAP
03FC
00F0
00F0
00E0
00E0
01E0
01E0
07F0
03C0
03C0
0380
0780
E780
E700
CE00
7C00
ENDCHAR
STARTCHAR 0249
ENCODING 585
SWIDTH 291 0
DWIDTH 7 0
BBX 11 21 -4 -5
BITMAP
00E0
00E0
00E0
00E0
0000
01C0
01C0
01C0
0380
0380
0FC0
0380
0700
0700
0700
0700
0E00
0E00
0C00
FC00
7000
ENDCHAR
STARTCHAR 024A
ENCODING 586
SWIDTH 791 0
DWIDTH 19 0
BBX 18 21 1 -5
BITMAP
00FFC0
0703C0
0E03C0
1C0380
380780
780780
780700
700700
F00F00
F00F00
F00E00
F01E00
701E00
781C00
3C3C00
0FFC00
003800
003800
003B00
003F00
001E00
ENDCHAR
STARTCHAR 024B
ENCODING 587
SWIDTH 500 0
DWIDTH 12 0
BBX 11 16 0 -5
BITMAP
0760
0CE0
18E0
38E0
71C0
71C0
71C0
F380
F780
7B80
7380
0300
0700
0760
06E0
03C0
ENDCHAR
STARTCHAR 024C
ENCODING 588
SWIDTH 666 0
DWIDTH 16 0
BBX 16 16 -1 0
BITMAP
07FC
03CF
03C7
0387
078F
078F
071E
3FF8
0F70
0E78
0E78
1E38
1E38
1C3C
3C1C
FF1F
ENDCHAR
STARTCHAR 024D
ENCODING 589
SWIDTH 375 0
DWIDTH 9 0
BBX 10 11 0 0
BITMAP
1D80
3BC0
3BC0
3C80
3800
FE00
7000
7000
7000
7000
6000
ENDCHAR
STARTCHAR 024E
ENCODING 590
SWIDTH 625 0
DWIDTH 15 0
BBX 15 16 2 0
BITMAP
7FBE
3C0C
1C18
FFFC
1E20
0E40
0EC0
0F80
0F00
0F00
0E00
1E00
1E00
1E00
3C00
FF00
ENDCHAR
STARTCHAR 024F
ENCODING 591
SWIDTH 458 0
DWIDTH 11 0
BBX 13 16 -2 -5
BITMAP
0630
1E38
0E38
0E10
0E10
3FF8
0620
0740
0780
0780
0700
0600
0400
C800
F000
E000
ENDCHAR
STARTCHAR 0250
ENCODING 592
SWIDTH 458 0
DWIDTH 11 0
BBX 10 11 1 0
BITMAP
73C0
FDC0
71C0
7180
7300
EC00
F000
E300
C700
C600
F800
ENDCHAR
STARTCHAR 0251
ENCODING 593
SWIDTH 500 0
DWIDTH 12 0
BBX 11 11 0 0
BITMAP
0760
0CE0
18E0
38C0
71C0
71C0
73C0
F380
F7A0
7BC0
7380
ENDCHAR
STARTCHAR 0252
ENCODING 594
SWIDTH 500 0
DWIDTH 12 0
BBX 10 11 1 0
BITMAP
39C0
7BC0
BDC0
39C0
79C0
71C0
71C0
E380
E300
E600
DC00
ENDCHAR
STARTCHAR 0253
ENCODING 595
SWIDTH 500 0
DWIDTH 12 0
BBX 11 16 0 0
BITMAP
01E0
0760
0660
0E00
1C00
1DC0
1FE0
3CE0
38E0
38E0
70E0
70E0
71C0
7180
E300
3E00
ENDCHAR
STARTCHAR 0254
ENCODING 596
SWIDTH 458 0
DWIDTH 11 0
BBX 10 11 0 0
BITMAP
0F80
1FC0
23C0
01C0
01C0
01C0
0180
6380
E300
C600
7800
ENDCHAR
STARTCHAR 0255
ENCODING 597
SWIDTH 458 0
DWIDTH 11 0
BBX 11 12 -1 -2
BITMAP
03E0
0620
0C60
1860
3800
3800
3F80
3840
3840
7F80
9F00
8000
ENDCHAR
STARTCHAR 0256
ENCODING 598
SWIDTH 500 0
DWIDTH 12 0
BBX 13 21 0 -5
BITMAP
0038
0078
0070
0070
0070
0760
0CE0
18E0
38E0
71C0
71C0
73C0
F580
F780
7B80
7300
0700
0700
0740
06E0
03C0
ENDCHAR
STARTCHAR 0257
ENCODING 599
SWIDTH 500 0
DWIDTH 12 0
BBX 17 16 0 0
BITMAP
000780
001980
003980
007000
007000
076000
0CE000
18E000
38E000
71C000
71C000
73C000
F58000
F7A000
7BC000
738000
ENDCHAR
STARTCHAR 0258
ENCODING 600
SWIDTH 458 0
DWIDTH 11 0
BBX 10 11 0 0
BITMAP
0F00
1980
39C0
39C0
39C0
0FC0
03C0
0380
8700
7F00
3C00
ENDCHAR
STARTCHAR 0259
ENCODING 601
SWIDTH 458 0
DWIDTH 11 0
BBX 10 11 0 0
BITMAP
0F80
1FC0
21C0
41C0
01C0
0FC0
3380
6380
E700
E400
F800
ENDCHAR
STARTCHAR 025A
ENCODING 602
SWIDTH 583 0
DWIDTH 14 0
BBX 15 11 0 0
BITMAP
0F80
1FC0
21E0
01F0
07FE
09DC
3380
6380
E700
E400
F800
ENDCHAR
STARTCHAR 025B
ENCODING 603
SWIDTH 416 0
DWIDTH 10 0
BBX 10 11 0 0
BITMAP
1F80
38C0
30C0
1000
0F00
7000
F000
E000
E000
6100
3E00
ENDCHAR
STARTCHAR 025C
ENCODING 604
SWIDTH 416 0
DWIDTH 10 0
BBX 9 11 0 0
BITMAP
1F00
3380
2380
0300
1C00
0700
0700
0700
0700
8E00
7C00
ENDCHAR
STARTCHAR 025D
ENCODING 605
SWIDTH 541 0
DWIDTH 13 0
BBX 14 11 0 0
BITMAP
0F00
33A0
73E0
03A4
1C3C
0738
0700
0700
0700
8E00
7C00
ENDCHAR
STARTCHAR 025E
ENCODING 606
SWIDTH 458 0
DWIDTH 11 0
BBX 11 11 0 0
BITMAP
0780
1FC0
3860
6040
40C0
4F00
8080
4080
6180
7F80
1E00
ENDCHAR
STARTCHAR 025F
ENCODING 607
SWIDTH 291 0
DWIDTH 7 0
BBX 10 16 -4 -5
BITMAP
01C0
01C0
01C0
0380
0380
0380
0380
0700
0700
1FC0
0600
0E00
0E00
4C00
FC00
7000
ENDCHAR
STARTCHAR 0260
ENCODING 608
SWIDTH 500 0
DWIDTH 12 0
BBX 18 21 -1 -5
BITMAP
0003C0
000CC0
001CC0
003800
003800
03B800
067000
0C7000
1C7000
38E000
38E000
39E000
79C000
7BC000
3DC000
39C000
038000
038000
C30000
E60000
780000
ENDCHAR
STARTCHAR 0261
ENCODING 609
SWIDTH 500 0
DWIDTH 12 0
BBX 12 16 -1 -5
BITMAP
03B0
0670
0C70
1C70
38E0
38E0
39E0
79C0
7BC0
3DC0
39C0
0380
0380
C300
E600
7800
ENDCHAR
STARTCHAR 0262
ENCODING 610
SWIDTH 500 0
DWIDTH 12 0
BBX 11 11 1 0
BITMAP
0FE0
3860
7000
E000
E000
E3E0
C1C0
C380
E380
6380
3F00
ENDCHAR
STARTCHAR 0263
ENCODING 611
SWIDTH 500 0
DWIDTH 12 0
BBX 12 16 1 -5
BITMAP
FC70
7020
7040
3080
3900
3900
3A00
3C00
3800
3800
1C00
3C00
5C00
9C00
9C00
7800
ENDCHAR
STARTCHAR 0264
ENCODING 612
SWIDTH 458 0
DWIDTH 11 0
BBX 10 11 1 0
BITMAP
79C0
BE00
1C00
1C00
1C00
1C00
3C00
4C00
4C00
5C00
7800
ENDCHAR
STARTCHAR 0265
ENCODING 613
SWIDTH 541 0
DWIDTH 13 0
BBX 11 16 1 -5
BITMAP
3860
78E0
B8E0
38E0
71C0
71C0
73C0
E580
EB80
F380
E380
0700
0700
0700
0700
0F00
ENDCHAR
STARTCHAR 0266
ENCODING 614
SWIDTH 541 0
DWIDTH 13 0
BBX 12 16 0 0
BITMAP
01E0
0330
0720
0E00
0E00
1C70
1CF0
1D70
3A70
3CE0
38E0
38E0
71C0
71D0
71E0
E1C0
ENDCHAR
STARTCHAR 0267
ENCODING 615
SWIDTH 541 0
DWIDTH 13 0
BBX 12 21 0 -5
BITMAP
01E0
0330
0720
0E00
0E00
1C70
1CF0
1D70
3A70
3CE0
38E0
38E0
71C0
71C0
71C0
E180
0380
0380
0300
3700
3C00
ENDCHAR
STARTCHAR 0268
ENCODING 616
SWIDTH 291 0
DWIDTH 7 0
BBX 7 16 0 0
BITMAP
0E
0E
0E
0E
00
3C
3C
38
38
38
FC
70
70
74
F8
70
ENDCHAR
STARTCHAR 0269
ENCODING 617
SWIDTH 291 0
DWIDTH 7 0
BBX 5 11 1 0
BITMAP
78
78
70
70
70
70
E0
E0
F0
F0
E0
ENDCHAR
STARTCHAR 026A
ENCODING 618
SWIDTH 291 0
DWIDTH 7 0
BBX 9 11 -1 0
BITMAP
1F80
0E00
0E00
1C00
1C00
1C00
1C00
3800
3800
3800
FC00
ENDCHAR
STARTCHAR 026B
ENCODING 619
SWIDTH 291 0
DWIDTH 7 0
BBX 7 16 0 0
BITMAP
0E
0E
0E
0C
1C
1C
7E
FE
BC
38
70
70
70
68
F8
60
ENDCHAR
STARTCHAR 026C
ENCODING 620
SWIDTH 291 0
DWIDTH 7 0
BBX 7 16 0 0
BITMAP
0E
0E
0E
0C
1C
1C
78
B8
7C
38
70
70
74
68
F8
60
ENDCHAR
STARTCHAR 026D
ENCODING 621
SWIDTH 291 0
DWIDTH 7 0
BBX 8 21 -1 -5
BITMAP
07
07
07
07
0E
0E
0E
1C
1C
1C
18
38
38
38
70
70
70
60
E4
6C
78
ENDCHAR
STARTCHAR 026E
ENCODING 622
SWIDTH 583 0
DWIDTH 14 0
BBX 15 21 0 -5
BITMAP
0E00
0E00
0E00
0C00
1C00
1FFE
1C3C
3878
38E0
39C0
7380
71E0
74E0
6870
F870
6070
00E0
00E0
40C0
2180
1F00
ENDCHAR
STARTCHAR 026F
ENCODING 623
SWIDTH 791 0
DWIDTH 19 0
BBX 17 11 1 0
BITMAP
30E380
78E700
B9C700
71C700
71CF00
73CE00
F79E00
EBAE00
EBDC00
F3DC00
E31C00
ENDCHAR
STARTCHAR 0270
ENCODING 624
SWIDTH 791 0
DWIDTH 19 0
BBX 17 16 1 -5
BITMAP
30E380
78E700
B9C700
71C700
71CF00
73CE00
F79E00
EBAE00
EBBC00
F3DC00
E31C00
001C00
003800
003800
003800
007800
ENDCHAR
STARTCHAR 0271
ENCODING 625
SWIDTH 791 0
DWIDTH 19 0
BBX 17 16 0 -5
BITMAP
1C6380
1DF780
1DEB80
3AF380
3CF380
38E700
39E700
71C700
71CE00
738E00
E38E00
000C00
001C00
001C00
01D800
00F000
ENDCHAR
STARTCHAR 0272
ENCODING 626
SWIDTH 541 0
DWIDTH 13 0
BBX 16 16 -4 -5
BITMAP
01C7
01CF
01D7
03A7
03CE
038E
038E
071C
071D
071E
0E1C
0E00
0E00
1C00
D800
F000
ENDCHAR
STARTCHAR 0273
ENCODING 627
SWIDTH 541 0
DWIDTH 13 0
BBX 12 16 0 -5
BITMAP
1C70
1CF0
1D70
3A70
3CE0
38E0
38E0
71C0
71C0
71C0
E380
0380
0380
0380
0370
01E0
ENDCHAR
STARTCHAR 0274
ENCODING 628
SWIDTH 500 0
DWIDTH 12 0
BBX 14 11 -1 0
BITMAP
1E1C
0F08
0F10
1790
1390
11E0
21E0
20E0
20E0
2040
F040
ENDCHAR
STARTCHAR 0275
ENCODING 629
SWIDTH 500 0
DWIDTH 12 0
BBX 10 11 1 0
BITMAP
0780
19C0
31C0
71C0
F1C0
FFC0
E380
E380
E300
E600
7800
ENDCHAR
STARTCHAR 0276
ENCODING 630
SWIDTH 666 0
DWIDTH 16 0
BBX 15 11 1 0
BITMAP
0FFE
38E2
70E2
70E0
E1C8
E1F8
E1D0
E380
E384
E788
7FF8
ENDCHAR
STARTCHAR 0277
ENCODING 631
SWIDTH 708 0
DWIDTH 17 0
BBX 15 11 1 0
BITMAP
07F0
1C0C
398E
7186
E38E
E38E
E30E
C30E
C21C
E538
78F0
ENDCHAR
STARTCHAR 0278
ENCODING 632
SWIDTH 666 0
DWIDTH 16 0
BBX 14 21 1 -5
BITMAP
01F8
00E0
00E0
00E0
01C0
03F0
1DDC
3B9C
739C
E39C
E39C
E71C
E738
E738
EE60
7F80
0E00
0E00
1C00
1C00
7E00
ENDCHAR
STARTCHAR 0279
ENCODING 633
SWIDTH 375 0
DWIDTH 9 0
BBX 9 11 0 0
BITMAP
0380
0380
0700
0700
0700
0F00
1600
D600
EE00
EE00
CC00
ENDCHAR
STARTCHAR 027A
ENCODING 634
SWIDTH 375 0
DWIDTH 9 0
BBX 10 16 0 0
BITMAP
01C0
01C0
01C0
0380
0380
0380
0380
0700
0700
0700
0F00
1600
D600
EE00
EE00
CC00
ENDCHAR
STARTCHAR 027B
ENCODING 635
SWIDTH 375 0
DWIDTH 9 0
BBX 9 16 0 -5
BITMAP
0380
0380
0700
0700
0700
0F00
1600
D600
EE00
EE00
CC00
1C00
1C00
1D00
1B80
0F00
ENDCHAR
STARTCHAR 027C
ENCODING 636
SWIDTH 375 0
DWIDTH 9 0
BBX 11 16 -1 -5
BITMAP
0EC0
1CE0
1DE0
1E40
1E00
1C00
3C00
3800
3800
3800
7000
7000
7000
7000
E000
E000
ENDCHAR
STARTCHAR 027D
ENCODING 637
SWIDTH 375 0
DWIDTH 9 0
BBX 10 16 0 -5
BITMAP
1D80
39C0
3BC0
3C80
3C00
3800
7800
7000
7000
7000
E000
E000
E000
C800
D800
7000
ENDCHAR
STARTCHAR 027E
ENCODING 638
SWIDTH 416 0
DWIDTH 10 0
BBX 10 11 0 0
BITMAP
03C0
0CC0
18C0
1800
3800
3800
3000
7000
7000
7000
E000
ENDCHAR
STARTCHAR 027F
ENCODING 639
SWIDTH 375 0
DWIDTH 9 0
BBX 7 16 1 -5
BITMAP
3C
E6
C6
0E
0E
0E
0C
1C
1C
1C
38
38
38
70
70
70
ENDCHAR
STARTCHAR 0280
ENCODING 640
SWIDTH 500 0
DWIDTH 12 0
BBX 12 11 -1 0
BITMAP
1FE0
0E70
0E70
1C70
1CE0
1F80
3D80
39C0
39C0
39C0
FCF0
ENDCHAR
STARTCHAR 0281
ENCODING 641
SWIDTH 500 0
DWIDTH 12 0
BBX 14 11 0 0
BITMAP
3F7C
1C70
1CE0
19C0
3B80
3F00
39C0
71C0
73C0
7380
FE00
ENDCHAR
STARTCHAR 0282
ENCODING 642
SWIDTH 375 0
DWIDTH 9 0
BBX 10 16 -1 -5
BITMAP
0FC0
18C0
1840
1C00
1E00
0F00
0780
4380
6380
6300
7E00
E000
C000
C800
D800
7000
ENDCHAR
STARTCHAR 0283
ENCODING 643
SWIDTH 333 0
DWIDTH 8 0
BBX 16 21 -4 -5
BITMAP
000F
003B
0073
00E0
00E0
00E0
01C0
01C0
01C0
01C0
0380
0380
0380
0380
0700
0700
0700
0E00
0E00
EC00
F000
ENDCHAR
STARTCHAR 0284
ENCODING 644
SWIDTH 333 0
DWIDTH 8 0
BBX 16 21 -4 -5
BITMAP
000F
003B
0073
00E0
00E0
00E0
01C0
01C0
01C0
01C0
0380
0380
0380
0380
0FC0
0700
0700
0E00
4C00
EC00
F000
ENDCHAR
STARTCHAR 0285
ENCODING 645
SWIDTH 291 0
DWIDTH 7 0
BBX 6 16 0 -5
BITMAP
78
DC
DC
1C
1C
1C
38
38
38
70
70
70
60
64
6C
78
ENDCHAR
STARTCHAR 0286
ENCODING 646
SWIDTH 333 0
DWIDTH 8 0
BBX 16 21 -4 -5
BITMAP
000F
003B
0073
00E0
00E0
00E0
01C0
01C0
01C0
01C0
0380
0380
0380
0780
0700
0700
3F00
7E00
CE00
9E00
7200
ENDCHAR
STARTCHAR 0287
ENCODING 647
SWIDTH 291 0
DWIDTH 7 0
BBX 7 14 0 0
BITMAP
1C
2E
4E
1C
1C
1C
38
38
38
FC
78
60
40
80
ENDCHAR
STARTCHAR 0288
ENCODING 648
SWIDTH 291 0
DWIDTH 7 0
BBX 8 19 -1 -5
BITMAP
01
02
0E
3F
1C
1C
1C
1C
38
38
38
30
70
70
70
60
EC
6C
78
ENDCHAR
STARTCHAR 0289
ENCODING 649
SWIDTH 541 0
DWIDTH 13 0
BBX 12 11 0 0
BITMAP
3C70
1C70
1C70
3870
38E0
FFF0
39E0
73C0
75D0
79E0
71C0
ENDCHAR
STARTCHAR 028A
ENCODING 650
SWIDTH 541 0
DWIDTH 13 0
BBX 14 11 0 0
BITMAP
3E7C
0C60
1870
3870
7070
7070
F070
E0E0
60E0
71C0
3F00
ENDCHAR
STARTCHAR 028B
ENCODING 651
SWIDTH 500 0
DWIDTH 12 0
BBX 10 11 1 0
BITMAP
33C0
FB40
3840
7040
7040
7040
E080
E080
E100
E200
7C00
ENDCHAR
STARTCHAR 028C
ENCODING 652
SWIDTH 458 0
DWIDTH 11 0
BBX 9 11 0 0
BITMAP
0100
0300
0F00
1700
2700
2700
4700
C700
C700
E380
E300
ENDCHAR
STARTCHAR 028D
ENCODING 653
SWIDTH 666 0
DWIDTH 16 0
BBX 15 11 0 0
BITMAP
0204
070C
0F1C
171C
273C
275C
479C
C79C
E71C
E61E
E218
ENDCHAR
STARTCHAR 028E
ENCODING 654
SWIDTH 458 0
DWIDTH 11 0
BBX 13 16 0 0
BITMAP
0030
00F8
0130
0300
0300
0700
0F00
1700
2700
2700
4700
4700
C700
C700
E780
E300
ENDCHAR
STARTCHAR 028F
ENCODING 655
SWIDTH 375 0
DWIDTH 9 0
BBX 11 11 0 0
BITMAP
7DE0
3880
3880
3900
3A00
1C00
1C00
3800
3800
3800
FC00
ENDCHAR
STARTCHAR 0290
ENCODING 656
SWIDTH 375 0
DWIDTH 9 0
BBX 10 16 0 -5
BITMAP
3F80
3F00
3E00
4200
0400
0800
1000
2000
3F00
7F00
FF00
0600
0600
0600
05C0
0780
ENDCHAR
STARTCHAR 0291
ENCODING 657
SWIDTH 375 0
DWIDTH 9 0
BBX 9 12 0 -2
BITMAP
3F80
3F00
3E00
4200
0400
0800
1300
2C80
3F80
7F80
FF00
2000
ENDCHAR
STARTCHAR 0292
ENCODING 658
SWIDTH 458 0
DWIDTH 11 0
BBX 14 16 -2 -5
BITMAP
0FFC
0878
00F0
01C0
0380
0700
0780
01C0
01E0
00E0
01E0
01C0
01C0
8180
8300
7E00
ENDCHAR
STARTCHAR 0293
ENCODING 659
SWIDTH 458 0
DWIDTH 11 0
BBX 13 16 -1 -5
BITMAP
1FF8
10F0
01E0
0380
0700
0E00
0F00
0380
03C0
01C0
03C0
7B80
8780
8380
8700
7D00
ENDCHAR
STARTCHAR 0294
ENCODING 660
SWIDTH 416 0
DWIDTH 10 0
BBX 11 16 0 0
BITMAP
0780
18C0
1CC0
18E0
00E0
00C0
01C0
01C0
0380
2F00
3C00
3800
3800
7000
7000
F000
ENDCHAR
STARTCHAR 0295
ENCODING 661
SWIDTH 416 0
DWIDTH 10 0
BBX 10 16 1 0
BITMAP
0780
0CC0
39C0
30C0
7000
7000
E000
E000
F000
7800
3C00
1C00
1C00
3800
3800
7800
ENDCHAR
STARTCHAR 0296
ENCODING 662
SWIDTH 416 0
DWIDTH 10 0
BBX 10 16 0 0
BITMAP
0FC0
0700
0700
0E00
0E00
0E00
1F80
0380
0380
0380
0380
0380
C300
C600
CC00
F000
ENDCHAR
STARTCHAR 0297
ENCODING 663
SWIDTH 458 0
DWIDTH 11 0
BBX 12 16 -1 -5
BITMAP
03E0
0F30
1C10
1C00
3800
3800
3800
7000
7000
7000
6000
E000
E040
F080
7F00
3E00
ENDCHAR
STARTCHAR 0298
ENCODING 664
SWIDTH 708 0
DWIDTH 17 0
BBX 16 16 1 0
BITMAP
00F8
030E
0E0E
1E0F
3C0F
3C0F
79CF
7BCF
7BCF
F1DE
F01E
F03C
7038
7070
38E0
1F80
ENDCHAR
STARTCHAR 0299
ENCODING 665
SWIDTH 500 0
DWIDTH 12 0
BBX 11 11 0 0
BITMAP
3FC0
1CE0
1CE0
1CE0
39C0
3E00
39C0
71C0
71C0
73C0
FF00
ENDCHAR
STARTCHAR 029A
ENCODING 666
SWIDTH 458 0
DWIDTH 11 0
BBX 10 11 0 0
BITMAP
0F80
1FC0
30C0
2040
2040
1E40
6040
C080
C300
FE00
7800
ENDCHAR
STARTCHAR 029B
ENCODING 667
SWIDTH 500 0
DWIDTH 12 0
BBX 16 15 1 0
BITMAP
000E
0017
0017
0026
0FE0
3860
7020
E000
E000
E3E0
C1C0
C380
E380
6380
3F00
ENDCHAR
STARTCHAR 029C
ENCODING 668
SWIDTH 583 0
DWIDTH 14 0
BBX 15 11 -1 0
BITMAP
1FBE
0E1C
0E38
1C38
1C38
1FF8
1C70
3870
3870
38E0
FDF8
ENDCHAR
STARTCHAR 029D
ENCODING 669
SWIDTH 291 0
DWIDTH 7 0
BBX 11 21 -4 -5
BITMAP
00E0
00E0
00E0
00E0
0000
01C0
01C0
01C0
0380
0380
0380
0380
0700
0700
0700
0700
0E00
7F80
8C00
9800
F000
ENDCHAR
STARTCHAR 029E
ENCODING 670
SWIDTH 500 0
DWIDTH 12 0
BBX 12 16 0 -5
BITMAP
1870
3CE0
5CE0
1CE0
1DE0
0FC0
0DC0
09C0
1180
2380
FB80
0380
0700
0700
0700
0700
ENDCHAR
STARTCHAR 029F
ENCODING 671
SWIDTH 416 0
DWIDTH 10 0
BBX 10 11 -1 0
BITMAP
1F80
0E00
0E00
1C00
1C00
1C00
1C00
3800
3840
38C0
FF80
ENDCHAR
STARTCHAR 02A0
ENCODING 672
SWIDTH 500 0
DWIDTH 12 0
BBX 17 21 0 -5
BITMAP
000780
001D80
003980
003000
007000
077000
0CE000
18E000
38E000
70E000
71C000
71C000
F3C000
F78000
7B8000
738000
070000
070000
070000
070000
1F8000
ENDCHAR
STARTCHAR 02A1
ENCODING 673
SWIDTH 416 0
DWIDTH 10 0
BBX 11 16 0 0
BITMAP
0780
18C0
1CC0
18E0
00E0
00C0
01C0
01C0
0380
3F00
3C00
3800
FC00
7000
7000
F000
ENDCHAR
STARTCHAR 02A2
ENCODING 674
SWIDTH 416 0
DWIDTH 10 0
BBX 10 16 1 0
BITMAP
0780
0CC0
39C0
30C0
7000
7000
E000
E000
F000
7C00
3C00
1C00
7E00
3800
3800
FC00
ENDCHAR
STARTCHAR 02A3
ENCODING 675
SWIDTH 750 0
DWIDTH 18 0
BBX 18 18 0 -2
BITMAP
003800
007800
007000
007000
007000
077FC0
0CFF80
18FF00
38E200
71C200
71C400
71C800
F3D000
F39000
7FB800
73F980
001D80
000700
ENDCHAR
STARTCHAR 02A4
ENCODING 676
SWIDTH 833 0
DWIDTH 20 0
BBX 20 21 0 -5
BITMAP
003800
007800
007000
007000
007000
07FFF0
0CE0E0
18E1C0
38C780
71CF00
71DE00
73CF00
F38380
FFA380
7BC380
738380
000380
000380
000700
010E00
00F800
ENDCHAR
STARTCHAR 02A5
ENCODING 677
SWIDTH 750 0
DWIDTH 18 0
BBX 18 17 0 -2
BITMAP
003800
007800
007000
007000
007000
077FC0
0CFF80
18FF00
38E200
71C400
71C400
71CB80
F39480
F79FC0
7BBF80
73FF00
002000
ENDCHAR
STARTCHAR 02A6
ENCODING 678
SWIDTH 625 0
DWIDTH 15 0
BBX 13 14 1 0
BITMAP
0400
0800
3800
FFF8
7318
7388
7380
73C0
E1E0
E0F0
E070
E070
C060
FFC0
ENDCHAR
STARTCHAR 02A7
ENCODING 679
SWIDTH 541 0
DWIDTH 13 0
BBX 17 21 0 -5
BITMAP
000F00
003980
027100
067000
0CF000
7FE000
38E000
39E000
39C000
39C000
71C000
71C000
738000
738000
E78000
7B8000
070000
070000
060000
6C0000
780000
ENDCHAR
STARTCHAR 02A8
ENCODING 680
SWIDTH 666 0
DWIDTH 16 0
BBX 15 14 0 0
BITMAP
0200
0400
1C00
7E1E
3866
38C6
39C0
3B80
7380
73F8
7384
6384
FFF8
71F0
ENDCHAR
STARTCHAR 02A9
ENCODING 681
SWIDTH 791 0
DWIDTH 19 0
BBX 22 21 -4 -5
BITMAP
000F00
003B00
007300
00E000
00E000
03FF1C
01C73C
01C75C
01C79C
038F38
038F38
038E38
039C38
071C70
071C70
071C70
0600E0
0E00E0
0C00C0
EC0D80
F00F00
ENDCHAR
STARTCHAR 02AA
ENCODING 682
SWIDTH 583 0
DWIDTH 14 0
BBX 14 16 0 0
BITMAP
0E00
0E00
0E00
1C00
1C00
1CFC
198C
3980
39C0
39E0
70F0
7070
7078
E038
E030
7FE0
ENDCHAR
STARTCHAR 02AB
ENCODING 683
SWIDTH 500 0
DWIDTH 12 0
BBX 12 18 0 -2
BITMAP
0E00
0E00
0E00
0C00
1C00
1FF0
1FE0
3FE0
3840
3880
7100
7100
7200
7400
EE00
7F70
0760
01C0
ENDCHAR
STARTCHAR 02AC
ENCODING 684
SWIDTH 500 0
DWIDTH 12 0
BBX 13 16 1 0
BITMAP
1898
1898
0D90
0F90
0DA0
08C0
1880
1000
0200
E6C0
6640
6E40
7680
6700
4600
4400
ENDCHAR
STARTCHAR 02AD
ENCODING 685
SWIDTH 500 0
DWIDTH 12 0
BBX 15 16 -1 0
BITMAP
0FFE
0FFC
0FFC
080C
1008
0000
0000
0000
0000
0000
3FF0
7FE0
7FE0
4060
8020
8000
ENDCHAR
STARTCHAR 02AE
ENCODING 686
SWIDTH 541 0
DWIDTH 13 0
BBX 13 16 -1 -5
BITMAP
7818
CC38
CC38
0C38
1C70
1C70
1CF0
3960
3AE0
3CE0
38E0
01C0
01C0
01C0
01C0
03C0
ENDCHAR
STARTCHAR 02AF
ENCODING 687
SWIDTH 541 0
DWIDTH 13 0
BBX 13 16 -1 -5
BITMAP
7818
CC38
CC38
0C38
1C70
1C70
1CF0
3960
3AE0
3CE0
38E0
01C0
01C0
01D8
01B8
00F0
ENDCHAR
STARTCHAR 02B0
ENCODING 688
SWIDTH 291 0
DWIDTH 7 0
BBX 7 10 1 6
BITMAP
30
30
30
26
6E
76
64
4C
CE
CC
ENDCHAR
STARTCHAR 02B1
ENCODING 689
SWIDTH 291 0
DWIDTH 7 0
BBX 7 10 1 6
BITMAP
0E
16
30
30
6E
76
64
4C
CE
CC
ENDCHAR
STARTCHAR 02B2
ENCODING 690
SWIDTH 166 0
DWIDTH 4 0
BBX 7 13 -1 3
BITMAP
06
06
00
0C
0C
0C
08
18
18
10
30
B0
C0
ENDCHAR
STARTCHAR 02B3
ENCODING 691
SWIDTH 208 0
DWIDTH 5 0
BBX 5 7 1 7
BITMAP
68
78
60
60
C0
C0
C0
ENDCHAR
STARTCHAR 02B4
ENCODING 692
SWIDTH 208 0
DWIDTH 5 0
BBX 5 7 1 7
BITMAP
08
18
18
18
30
D0
B8
ENDCHAR
STARTCHAR 02B5
ENCODING 693
SWIDTH 208 0
DWIDTH 5 0
BBX 5 10 1 3
BITMAP
08
18
18
18
30
D0
B0
20
28
10
ENDCHAR
STARTCHAR 02B6
ENCODING 694
SWIDTH 291 0
DWIDTH 7 0
BBX 9 7 0 6
BITMAP
3D80
1B00
1600
3C00
3600
2600
F800
ENDCHAR
STARTCHAR 02B7
ENCODING 695
SWIDTH 375 0
DWIDTH 9 0
BBX 9 7 2 6
BITMAP
C100
C980
D900
ED00
CE00
CC00
8800
ENDCHAR
STARTCHAR 02B8
ENCODING 696
SWIDTH 291 0
DWIDTH 7 0
BBX 8 10 0 3
BITMAP
33
13
1A
1A
1C
18
18
10
E0
C0
ENDCHAR
STARTCHAR 02B9
ENCODING 697
SWIDTH 291 0
DWIDTH 7 0
BBX 4 8 4 8
BITMAP
60
F0
E0
E0
C0
C0
80
80
ENDCHAR
STARTCHAR 02BA
ENCODING 698
SWIDTH 541 0
DWIDTH 13 0
BBX 9 8 4 8
BITMAP
6180
F380
E380
E380
C300
C300
8200
8000
ENDCHAR
STARTCHAR 02BB
ENCODING 699
SWIDTH 333 0
DWIDTH 8 0
BBX 4 7 3 10
BITMAP
10
20
60
60
F0
70
70
ENDCHAR
STARTCHAR 02BC
ENCODING 700
SWIDTH 333 0
DWIDTH 8 0
BBX 4 7 4 8
BITMAP
70
F0
70
70
30
20
C0
ENDCHAR
STARTCHAR 02BD
ENCODING 701
SWIDTH 333 0
DWIDTH 8 0
BBX 4 8 4 8
BITMAP
70
F0
F0
E0
C0
40
40
20
ENDCHAR
STARTCHAR 02BE
ENCODING 702
SWIDTH 333 0
DWIDTH 8 0
BBX 3 5 5 11
BITMAP
C0
20
20
20
C0
ENDCHAR
STARTCHAR 02BF
ENCODING 703
SWIDTH 333 0
DWIDTH 8 0
BBX 3 5 5 11
BITMAP
60
40
80
40
20
ENDCHAR
STARTCHAR 02C0
ENCODING 704
SWIDTH 291 0
DWIDTH 7 0
BBX 6 9 2 7
BITMAP
38
6C
0C
08
18
70
C0
C0
C0
ENDCHAR
STARTCHAR 02C1
ENCODING 705
SWIDTH 291 0
DWIDTH 7 0
BBX 6 9 2 7
BITMAP
1C
24
60
40
C0
70
30
20
60
ENDCHAR
STARTCHAR 02C2
ENCODING 706
SWIDTH 583 0
DWIDTH 14 0
BBX 13 12 1 2
BITMAP
0008
0038
01E0
0780
3C00
F000
F000
3C00
0780
01E0
0038
0008
ENDCHAR
STARTCHAR 02C3
ENCODING 707
SWIDTH 583 0
DWIDTH 14 0
BBX 13 12 1 2
BITMAP
8000
E000
7C00
0F00
03C0
0078
0078
03C0
0F00
7800
E000
8000
ENDCHAR
STARTCHAR 02C4
ENCODING 708
SWIDTH 583 0
DWIDTH 14 0
BBX 11 13 2 2
BITMAP
0400
0C00
0E00
1A00
1B00
1300
3100
3180
6080
60C0
40C0
C040
8060
ENDCHAR
STARTCHAR 02C5
ENCODING 709
SWIDTH 583 0
DWIDTH 14 0
BBX 11 13 2 2
BITMAP
8060
C040
40C0
60C0
6080
2180
3100
1300
1B00
1A00
0E00
0C00
0400
ENDCHAR
STARTCHAR 02C6
ENCODING 710
SWIDTH 333 0
DWIDTH 8 0
BBX 7 4 2 12
BITMAP
1C
3C
66
C2
ENDCHAR
STARTCHAR 02C7
ENCODING 711
SWIDTH 333 0
DWIDTH 8 0
BBX 7 4 3 12
BITMAP
86
CC
F8
70
ENDCHAR
STARTCHAR 02C8
ENCODING 712
SWIDTH 333 0
DWIDTH 8 0
BBX 1 4 6 12
BITMAP
80
80
80
80
ENDCHAR
STARTCHAR 02C9
ENCODING 713
SWIDTH 333 0
DWIDTH 8 0
BBX 9 2 2 13
BITMAP
FF80
FF00
ENDCHAR
STARTCHAR 02CA
ENCODING 714
SWIDTH 333 0
DWIDTH 8 0
BBX 4 4 5 12
BITMAP
70
60
C0
80
ENDCHAR
STARTCHAR 02CB
ENCODING 715
SWIDTH 333 0
DWIDTH 8 0
BBX 4 4 3 12
BITMAP
E0
70
30
10
ENDCHAR
STARTCHAR 02CC
ENCODING 716
SWIDTH 333 0
DWIDTH 8 0
BBX 1 4 2 -5
BITMAP
80
80
80
80
ENDCHAR
STARTCHAR 02CD
ENCODING 717
SWIDTH 333 0
DWIDTH 8 0
BBX 8 2 -2 -3
BITMAP
FF
FF
ENDCHAR
STARTCHAR 02CE
ENCODING 718
SWIDTH 333 0
DWIDTH 8 0
BBX 4 4 0 -5
BITMAP
E0
60
30
10
ENDCHAR
STARTCHAR 02CF
ENCODING 719
SWIDTH 333 0
DWIDTH 8 0
BBX 4 4 0 -5
BITMAP
70
E0
C0
80
ENDCHAR
STARTCHAR 02D0
ENCODING 720
SWIDTH 333 0
DWIDTH 8 0
BBX 6 11 1 0
BITMAP
1C
18
18
08
00
00
00
40
60
E0
E0
ENDCHAR
STARTCHAR 02D1
ENCODING 721
SWIDTH 333 0
DWIDTH 8 0
BBX 3 4 4 7
BITMAP
E0
C0
C0
40
ENDCHAR
STARTCHAR 02D2
ENCODING 722
SWIDTH 333 0
DWIDTH 8 0
BBX 2 5 3 1
BITMAP
80
40
40
40
80
ENDCHAR
STARTCHAR 02D3
ENCODING 723
SWIDTH 333 0
DWIDTH 8 0
BBX 2 5 3 1
BITMAP
40
80
80
80
40
ENDCHAR
STARTCHAR 02D4
ENCODING 724
SWIDTH 333 0
DWIDTH 8 0
BBX 4 5 2 2
BITMAP
60
60
60
F0
F0
ENDCHAR
STARTCHAR 02D5
ENCODING 725
SWIDTH 333 0
DWIDTH 8 0
BBX 4 5 2 2
BITMAP
F0
F0
60
60
60
ENDCHAR
STARTCHAR 02D6
ENCODING 726
SWIDTH 333 0
DWIDTH 8 0
BBX 4 4 2 2
BITMAP
60
F0
F0
60
ENDCHAR
STARTCHAR 02D7
ENCODING 727
SWIDTH 333 0
DWIDTH 8 0
BBX 9 2 -1 4
BITMAP
7F80
FF80
ENDCHAR
STARTCHAR 02D8
ENCODING 728
SWIDTH 333 0
DWIDTH 8 0
BBX 7 4 3 11
BITMAP
82
C4
FC
78
ENDCHAR
STARTCHAR 02D9
ENCODING 729
SWIDTH 333 0
DWIDTH 8 0
BBX 3 4 5 12
BITMAP
C0
E0
E0
C0
ENDCHAR
STARTCHAR 02DA
ENCODING 730
SWIDTH 333 0
DWIDTH 8 0
BBX 5 5 4 11
BITMAP
70
88
88
88
70
ENDCHAR
STARTCHAR 02DB
ENCODING 731
SWIDTH 333 0
DWIDTH 8 0
BBX 4 5 0 -4
BITMAP
30
60
C0
F0
E0
ENDCHAR
STARTCHAR 02DC
ENCODING 732
SWIDTH 333 0
DWIDTH 8 0
BBX 8 3 2 12
BITMAP
71
FE
9E
ENDCHAR
STARTCHAR 02DD
ENCODING 733
SWIDTH 333 0
DWIDTH 8 0
BBX 7 4 3 12
BITMAP
76
66
4C
C8
ENDCHAR
STARTCHAR 02DE
ENCODING 734
SWIDTH 333 0
DWIDTH 8 0
BBX 5 4 0 6
BITMAP
80
C8
F8
60
ENDCHAR
STARTCHAR 02DF
ENCODING 735
SWIDTH 375 0
DWIDTH 9 0
BBX 8 8 3 10
BITMAP
C3
66
3C
18
3C
66
C3
40
ENDCHAR
STARTCHAR 02E0
ENCODING 736
SWIDTH 333 0
DWIDTH 8 0
BBX 7 10 2 3
BITMAP
F6
64
68
68
70
60
20
F0
B0
E0
ENDCHAR
STARTCHAR 02E1
ENCODING 737
SWIDTH 166 0
DWIDTH 4 0
BBX 5 10 1 6
BITMAP
38
30
30
30
20
60
60
60
C0
E0
ENDCHAR
STARTCHAR 02E2
ENCODING 738
SWIDTH 250 0
DWIDTH 6 0
BBX 6 7 1 6
BITMAP
3C
60
60
30
18
18
F0
ENDCHAR
STARTCHAR 02E3
ENCODING 739
SWIDTH 333 0
DWIDTH 8 0
BBX 8 7 1 6
BITMAP
73
1B
1C
18
18
EC
C6
ENDCHAR
STARTCHAR 02E4
ENCODING 740
SWIDTH 291 0
DWIDTH 7 0
BBX 6 9 2 7
BITMAP
1C
24
60
40
60
70
30
20
F0
ENDCHAR
STARTCHAR 02E5
ENCODING 741
SWIDTH 375 0
DWIDTH 9 0
BBX 5 17 2 0
BITMAP
F8
F8
08
08
08
08
08
08
08
08
08
08
08
08
08
08
08
ENDCHAR
STARTCHAR 02E6
ENCODING 742
SWIDTH 375 0
DWIDTH 9 0
BBX 5 17 2 0
BITMAP
08
08
08
F8
F8
08
08
08
08
08
08
08
08
08
08
08
08
ENDCHAR
STARTCHAR 02E7
ENCODING 743
SWIDTH 375 0
DWIDTH 9 0
BBX 5 17 2 0
BITMAP
08
08
08
08
08
08
08
F8
F8
08
08
08
08
08
08
08
08
ENDCHAR
STARTCHAR 02E8
ENCODING 744
SWIDTH 375 0
DWIDTH 9 0
BBX 5 17 2 0
BITMAP
08
08
08
08
08
08
08
08
08
08
08
F8
F8
08
08
08
08
ENDCHAR
STARTCHAR 02E9
ENCODING 745
SWIDTH 375 0
DWIDTH 9 0
BBX 5 18 2 0
BITMAP
08
08
08
08
08
08
08
08
08
08
08
08
08
08
08
08
F8
F8
ENDCHAR
STARTCHAR 02EA
ENCODING 746
SWIDTH 333 0
DWIDTH 8 0
BBX 6 11 1 0
BITMAP
80
80
80
80
80
80
80
80
80
80
FC
ENDCHAR
STARTCHAR 02EB
ENCODING 747
SWIDTH 333 0
DWIDTH 8 0
BBX 6 10 1 0
BITMAP
80
80
80
80
FC
80
80
80
80
80
ENDCHAR
STARTCHAR 02EC
ENCODING 748
SWIDTH 333 0
DWIDTH 8 0
BBX 7 4 -1 -5
BITMAP
86
CC
F8
70
ENDCHAR
STARTCHAR 02ED
ENCODING 749
SWIDTH 333 0
DWIDTH 8 0
BBX 9 5 2 11
BITMAP
7F80
FF80
0000
FF00
FF00
ENDCHAR
STARTCHAR 02EE
ENCODING 750
SWIDTH 500 0
DWIDTH 12 0
BBX 9 7 4 8
BITMAP
6300
F780
F780
7380
6100
4200
8400
ENDCHAR
STARTCHAR 02EF
ENCODING 751
SWIDTH 333 0
DWIDTH 8 0
BBX 5 3 0 -4
BITMAP
88
D0
70
ENDCHAR
STARTCHAR 02F0
ENCODING 752
SWIDTH 333 0
DWIDTH 8 0
BBX 5 3 0 -4
BITMAP
70
D0
88
ENDCHAR
STARTCHAR 02F1
ENCODING 753
SWIDTH 333 0
DWIDTH 8 0
BBX 4 5 0 -6
BITMAP
10
60
C0
C0
20
ENDCHAR
STARTCHAR 02F2
ENCODING 754
SWIDTH 333 0
DWIDTH 8 0
BBX 3 4 1 -5
BITMAP
E0
60
60
80
ENDCHAR
STARTCHAR 02F3
ENCODING 755
SWIDTH 333 0
DWIDTH 8 0
BBX 5 5 -1 -5
BITMAP
30
48
88
48
70
ENDCHAR
STARTCHAR 02F4
ENCODING 756
SWIDTH 333 0
DWIDTH 8 0
BBX 4 4 2 2
BITMAP
E0
60
20
30
ENDCHAR
STARTCHAR 02F5
ENCODING 757
SWIDTH 333 0
DWIDTH 8 0
BBX 8 4 0 2
BITMAP
EE
66
23
11
ENDCHAR
STARTCHAR 02F6
ENCODING 758
SWIDTH 333 0
DWIDTH 8 0
BBX 8 4 0 2
BITMAP
77
66
4C
88
ENDCHAR
STARTCHAR 02F7
ENCODING 759
SWIDTH 333 0
DWIDTH 8 0
BBX 8 3 -2 -4
BITMAP
79
FE
9E
ENDCHAR
STARTCHAR 02F8
ENCODING 760
SWIDTH 333 0
DWIDTH 8 0
BBX 5 11 3 5
BITMAP
38
38
38
38
00
00
00
E0
E0
E0
E0
ENDCHAR
STARTCHAR 02F9
ENCODING 761
SWIDTH 333 0
DWIDTH 8 0
BBX 4 3 5 12
BITMAP
F0
80
80
ENDCHAR
STARTCHAR 02FA
ENCODING 762
SWIDTH 333 0
DWIDTH 8 0
BBX 4 3 5 12
BITMAP
F0
10
10
ENDCHAR
STARTCHAR 02FB
ENCODING 763
SWIDTH 333 0
DWIDTH 8 0
BBX 4 4 0 -5
BITMAP
80
80
80
F0
ENDCHAR
STARTCHAR 02FC
ENCODING 764
SWIDTH 333 0
DWIDTH 8 0
BBX 4 4 0 -5
BITMAP
10
10
10
F0
ENDCHAR
STARTCHAR 02FD
ENCODING 765
SWIDTH 416 0
DWIDTH 10 0
BBX 9 5 -1 -5
BITMAP
C180
C180
C180
FF80
FF80
ENDCHAR
STARTCHAR 02FE
ENCODING 766
SWIDTH 416 0
DWIDTH 10 0
BBX 9 5 -1 -5
BITMAP
C000
C000
C000
FF80
FF80
ENDCHAR
STARTCHAR 02FF
ENCODING 767
SWIDTH 333 0
DWIDTH 8 0
BBX 7 7 -1 -5
BITMAP
20
60
40
FE
40
40
20
ENDCHAR
STARTCHAR 0300
ENCODING 768
SWIDTH 0 0
DWIDTH 0 0
BBX 4 4 -4 18
BITMAP
E0
70
30
10
ENDCHAR
STARTCHAR 0301
ENCODING 769
SWIDTH 0 0
DWIDTH 0 0
BBX 4 4 -1 18
BITMAP
70
E0
C0
80
ENDCHAR
STARTCHAR 0302
ENCODING 770
SWIDTH 0 0
DWIDTH 0 0
BBX 7 4 -2 12
BITMAP
1C
3E
66
C2
ENDCHAR
STARTCHAR 0303
ENCODING 771
SWIDTH 0 0
DWIDTH 0 0
BBX 9 4 -7 18
BITMAP
0080
3D00
7F00
8E00
ENDCHAR
STARTCHAR 0304
ENCODING 772
SWIDTH 0 0
DWIDTH 0 0
BBX 9 2 -2 13
BITMAP
FF80
FF00
ENDCHAR
STARTCHAR 0305
ENCODING 773
SWIDTH 0 0
DWIDTH 0 0
BBX 13 2 -3 17
BITMAP
FFF8
FFF8
ENDCHAR
STARTCHAR 0306
ENCODING 774
SWIDTH 0 0
DWIDTH 0 0
BBX 6 4 0 11
BITMAP
04
8C
F8
F0
ENDCHAR
STARTCHAR 0307
ENCODING 775
SWIDTH 0 0
DWIDTH 0 0
BBX 3 4 1 12
BITMAP
C0
E0
E0
C0
ENDCHAR
STARTCHAR 0308
ENCODING 776
SWIDTH 0 0
DWIDTH 0 0
BBX 7 3 -1 13
BITMAP
CE
EE
CE
ENDCHAR
STARTCHAR 0309
ENCODING 777
SWIDTH 0 0
DWIDTH 0 0
BBX 5 4 -2 17
BITMAP
70
98
10
20
ENDCHAR
STARTCHAR 030A
ENCODING 778
SWIDTH 0 0
DWIDTH 0 0
BBX 5 5 0 11
BITMAP
70
88
88
88
70
ENDCHAR
STARTCHAR 030B
ENCODING 779
SWIDTH 0 0
DWIDTH 0 0
BBX 7 4 0 12
BITMAP
6E
CC
C8
98
ENDCHAR
STARTCHAR 030C
ENCODING 780
SWIDTH 0 0
DWIDTH 0 0
BBX 7 4 -1 12
BITMAP
C6
CC
7C
78
ENDCHAR
STARTCHAR 030D
ENCODING 781
SWIDTH 0 0
DWIDTH 0 0
BBX 1 4 2 12
BITMAP
80
80
80
80
ENDCHAR
STARTCHAR 030E
ENCODING 782
SWIDTH 0 0
DWIDTH 0 0
BBX 4 4 0 12
BITMAP
D0
D0
D0
D0
ENDCHAR
STARTCHAR 030F
ENCODING 783
SWIDTH 0 0
DWIDTH 0 0
BBX 9 4 -3 12
BITMAP
EF00
7700
3300
1180
ENDCHAR
STARTCHAR 0310
ENCODING 784
SWIDTH 0 0
DWIDTH 0 0
BBX 6 6 0 11
BITMAP
30
30
34
8C
F8
F0
ENDCHAR
STARTCHAR 0311
ENCODING 785
SWIDTH 0 0
DWIDTH 0 0
BBX 6 4 0 11
BITMAP
38
7C
CC
04
ENDCHAR
STARTCHAR 0312
ENCODING 786
SWIDTH 0 0
DWIDTH 0 0
BBX 4 7 0 10
BITMAP
30
40
C0
E0
E0
E0
E0
ENDCHAR
STARTCHAR 0313
ENCODING 787
SWIDTH 0 0
DWIDTH 0 0
BBX 4 7 0 8
BITMAP
60
F0
F0
70
30
60
C0
ENDCHAR
STARTCHAR 0314
ENCODING 788
SWIDTH 0 0
DWIDTH 0 0
BBX 4 8 0 8
BITMAP
70
F0
F0
E0
C0
40
40
20
ENDCHAR
STARTCHAR 0315
ENCODING 789
SWIDTH 0 0
DWIDTH 0 0
BBX 5 8 3 8
BITMAP
30
78
78
38
10
30
40
80
ENDCHAR
STARTCHAR 0316
ENCODING 790
SWIDTH 0 0
DWIDTH 0 0
BBX 4 4 -4 -5
BITMAP
E0
70
30
10
ENDCHAR
STARTCHAR 0317
ENCODING 791
SWIDTH 0 0
DWIDTH 0 0
BBX 5 4 -5 -5
BITMAP
78
70
60
C0
ENDCHAR
STARTCHAR 0318
ENCODING 792
SWIDTH 0 0
DWIDTH 0 0
BBX 4 4 -4 -5
BITMAP
30
F0
F0
30
ENDCHAR
STARTCHAR 0319
ENCODING 793
SWIDTH 0 0
DWIDTH 0 0
BBX 4 4 -4 -5
BITMAP
80
F0
F0
80
ENDCHAR
STARTCHAR 031A
ENCODING 794
SWIDTH 0 0
DWIDTH 0 0
BBX 9 6 -2 14
BITMAP
FF80
FF80
0180
0180
0180
0180
ENDCHAR
STARTCHAR 031B
ENCODING 795
SWIDTH 0 0
DWIDTH 0 0
BBX 3 4 2 15
BITMAP
40
E0
60
80
ENDCHAR
STARTCHAR 031C
ENCODING 796
SWIDTH 0 0
DWIDTH 0 0
BBX 2 5 -3 -5
BITMAP
40
80
80
80
40
ENDCHAR
STARTCHAR 031D
ENCODING 797
SWIDTH 0 0
DWIDTH 0 0
BBX 4 5 -4 -5
BITMAP
40
40
40
F0
F0
ENDCHAR
STARTCHAR 031E
ENCODING 798
SWIDTH 0 0
DWIDTH 0 0
BBX 4 5 -4 -5
BITMAP
F0
F0
40
40
40
ENDCHAR
STARTCHAR 031F
ENCODING 799
SWIDTH 0 0
DWIDTH 0 0
BBX 4 4 -4 -5
BITMAP
40
F0
F0
40
ENDCHAR
STARTCHAR 0320
ENCODING 800
SWIDTH 0 0
DWIDTH 0 0
BBX 8 2 -6 -3
BITMAP
FF
FF
ENDCHAR
STARTCHAR 0321
ENCODING 801
SWIDTH 0 0
DWIDTH 0 0
BBX 7 7 -4 -5
BITMAP
0E
0E
0E
0C
1C
D8
F0
ENDCHAR
STARTCHAR 0322
ENCODING 802
SWIDTH 0 0
DWIDTH 0 0
BBX 5 7 0 -5
BITMAP
E0
E0
E0
C0
C0
D8
70
ENDCHAR
STARTCHAR 0323
ENCODING 803
SWIDTH 0 0
DWIDTH 0 0
BBX 4 4 -13 -5
BITMAP
60
F0
F0
60
ENDCHAR
STARTCHAR 0324
ENCODING 804
SWIDTH 0 0
DWIDTH 0 0
BBX 8 3 -6 -5
BITMAP
66
E7
66
ENDCHAR
STARTCHAR 0325
ENCODING 805
SWIDTH 0 0
DWIDTH 0 0
BBX 5 5 -5 -5
BITMAP
30
48
88
48
70
ENDCHAR
STARTCHAR 0326
ENCODING 806
SWIDTH 0 0
DWIDTH 0 0
BBX 3 5 -4 -7
BITMAP
60
E0
60
40
80
ENDCHAR
STARTCHAR 0327
ENCODING 807
SWIDTH 0 0
DWIDTH 0 0
BBX 5 5 -5 -5
BITMAP
10
78
18
38
E0
ENDCHAR
STARTCHAR 0328
ENCODING 808
SWIDTH 0 0
DWIDTH 0 0
BBX 5 6 -3 -5
BITMAP
08
30
60
40
F8
60
ENDCHAR
STARTCHAR 0329
ENCODING 809
SWIDTH 0 0
DWIDTH 0 0
BBX 1 4 -2 -5
BITMAP
80
80
80
80
ENDCHAR
STARTCHAR 032A
ENCODING 810
SWIDTH 0 0
DWIDTH 0 0
BBX 9 5 -6 -5
BITMAP
FF80
FF80
C180
C180
C180
ENDCHAR
STARTCHAR 032B
ENCODING 811
SWIDTH 0 0
DWIDTH 0 0
BBX 7 3 -5 -4
BITMAP
12
92
EC
ENDCHAR
STARTCHAR 032C
ENCODING 812
SWIDTH 0 0
DWIDTH 0 0
BBX 7 4 -5 -5
BITMAP
86
CC
F8
70
ENDCHAR
STARTCHAR 032D
ENCODING 813
SWIDTH 0 0
DWIDTH 0 0
BBX 6 4 -6 -5
BITMAP
3C
7C
6C
84
ENDCHAR
STARTCHAR 032E
ENCODING 814
SWIDTH 0 0
DWIDTH 0 0
BBX 6 4 -5 -5
BITMAP
80
CC
F8
70
ENDCHAR
STARTCHAR 032F
ENCODING 815
SWIDTH 0 0
DWIDTH 0 0
BBX 6 4 -6 -4
BITMAP
3C
7C
C4
80
ENDCHAR
STARTCHAR 0330
ENCODING 816
SWIDTH 0 0
DWIDTH 0 0
BBX 8 3 -6 -4
BITMAP
79
FE
9E
ENDCHAR
STARTCHAR 0331
ENCODING 817
SWIDTH 0 0
DWIDTH 0 0
BBX 8 2 -6 -3
BITMAP
FF
FF
ENDCHAR
STARTCHAR 0332
ENCODING 818
SWIDTH 0 0
DWIDTH 0 0
BBX 12 2 -9 -5
BITMAP
FFF0
FFF0
ENDCHAR
STARTCHAR 0333
ENCODING 819
SWIDTH 0 0
DWIDTH 0 0
BBX 8 4 -6 -5
BITMAP
FF
FF
FF
FF
ENDCHAR
STARTCHAR 0334
ENCODING 820
SWIDTH 0 0
DWIDTH 0 0
BBX 7 3 -3 7
BITMAP
7A
FE
9C
ENDCHAR
STARTCHAR 0335
ENCODING 821
SWIDTH 0 0
DWIDTH 0 0
BBX 9 2 -4 7
BITMAP
7F80
FF80
ENDCHAR
STARTCHAR 0336
ENCODING 822
SWIDTH 0 0
DWIDTH 0 0
BBX 13 2 -6 7
BITMAP
FFF8
FFF8
ENDCHAR
STARTCHAR 0337
ENCODING 823
SWIDTH 0 0
DWIDTH 0 0
BBX 7 7 -3 4
BITMAP
02
06
1E
3C
70
E0
C0
ENDCHAR
STARTCHAR 0338
ENCODING 824
SWIDTH 0 0
DWIDTH 0 0
BBX 11 16 -5 0
BITMAP
0020
0060
00C0
0080
0180
0300
0200
0600
0C00
0800
1800
1000
3000
6000
4000
C000
ENDCHAR
STARTCHAR 0339
ENCODING 825
SWIDTH 0 0
DWIDTH 0 0
BBX 2 5 -3 -5
BITMAP
80
40
40
40
80
ENDCHAR
STARTCHAR 033A
ENCODING 826
SWIDTH 0 0
DWIDTH 0 0
BBX 9 5 -6 -5
BITMAP
C180
C180
C180
FF80
FF80
ENDCHAR
STARTCHAR 033B
ENCODING 827
SWIDTH 0 0
DWIDTH 0 0
BBX 4 4 -4 -5
BITMAP
F0
90
90
F0
ENDCHAR
STARTCHAR 033C
ENCODING 828
SWIDTH 0 0
DWIDTH 0 0
BBX 8 2 -6 -5
BITMAP
7E
99
ENDCHAR
STARTCHAR 033D
ENCODING 829
SWIDTH 0 0
DWIDTH 0 0
BBX 5 5 0 12
BITMAP
90
D8
70
70
D8
ENDCHAR
STARTCHAR 033E
ENCODING 830
SWIDTH 0 0
DWIDTH 0 0
BBX 3 6 1 13
BITMAP
60
C0
C0
60
60
C0
ENDCHAR
STARTCHAR 033F
ENCODING 831
SWIDTH 0 0
DWIDTH 0 0
BBX 12 4 -3 14
BITMAP
FFF0
FFF0
FFF0
FFF0
ENDCHAR
STARTCHAR 0340
ENCODING 832
SWIDTH 0 0
DWIDTH 0 0
BBX 4 4 0 12
BITMAP
E0
60
20
10
ENDCHAR
STARTCHAR 0341
ENCODING 833
SWIDTH 0 0
DWIDTH 0 0
BBX 4 4 1 12
BITMAP
70
E0
C0
80
ENDCHAR
STARTCHAR 0342
ENCODING 834
SWIDTH 0 0
DWIDTH 0 0
BBX 7 3 -1 12
BITMAP
72
FE
9C
ENDCHAR
STARTCHAR 0343
ENCODING 835
SWIDTH 0 0
DWIDTH 0 0
BBX 4 7 0 8
BITMAP
60
F0
F0
70
30
60
C0
ENDCHAR
STARTCHAR 0344
ENCODING 836
SWIDTH 0 0
DWIDTH 0 0
BBX 11 4 -3 12
BITMAP
0700
EEC0
ECE0
E8C0
ENDCHAR
STARTCHAR 0345
ENCODING 837
SWIDTH 0 0
DWIDTH 0 0
BBX 3 4 -3 -5
BITMAP
C0
C0
C0
E0
ENDCHAR
STARTCHAR 0346
ENCODING 838
SWIDTH 0 0
DWIDTH 0 0
BBX 9 5 -2 14
BITMAP
FF80
FF80
C180
C180
C180
ENDCHAR
STARTCHAR 0347
ENCODING 839
SWIDTH 0 0
DWIDTH 0 0
BBX 13 4 -9 -5
BITMAP
FFF8
FFF8
FFF8
FFF8
ENDCHAR
STARTCHAR 0348
ENCODING 840
SWIDTH 0 0
DWIDTH 0 0
BBX 4 4 -4 -5
BITMAP
90
90
90
90
ENDCHAR
STARTCHAR 0349
ENCODING 841
SWIDTH 0 0
DWIDTH 0 0
BBX 4 5 -4 -5
BITMAP
F0
F0
30
30
30
ENDCHAR
STARTCHAR 034A
ENCODING 842
SWIDTH 0 0
DWIDTH 0 0
BBX 7 3 -1 13
BITMAP
7A
FE
BC
ENDCHAR
STARTCHAR 034B
ENCODING 843
SWIDTH 0 0
DWIDTH 0 0
BBX 7 8 0 13
BITMAP
18
18
00
F2
FE
1C
20
20
ENDCHAR
STARTCHAR 034C
ENCODING 844
SWIDTH 0 0
DWIDTH 0 0
BBX 8 6 -1 13
BITMAP
39
7F
4E
72
FE
9C
ENDCHAR
STARTCHAR 034D
ENCODING 845
SWIDTH 0 0
DWIDTH 0 0
BBX 6 4 -6 -5
BITMAP
48
FC
FC
48
ENDCHAR
STARTCHAR 034E
ENCODING 846
SWIDTH 0 0
DWIDTH 0 0
BBX 3 4 -4 -4
BITMAP
E0
40
40
40
ENDCHAR
STARTCHAR 034F
ENCODING 847
SWIDTH 0 0
DWIDTH 0 0
BBX 18 17 -9 0
BITMAP
F1E3C0
C000C0
C0C0C0
033000
040800
000000
C804C0
C000C0
D002C0
C000C0
180600
000000
040800
C3F0C0
C000C0
C000C0
F1E3C0
ENDCHAR
STARTCHAR 0350
ENCODING 848
SWIDTH 0 0
DWIDTH 0 0
BBX 3 4 1 13
BITMAP
80
60
60
E0
ENDCHAR
STARTCHAR 0351
ENCODING 849
SWIDTH 0 0
DWIDTH 0 0
BBX 2 5 1 11
BITMAP
40
80
80
80
40
ENDCHAR
STARTCHAR 0352
ENCODING 850
SWIDTH 0 0
DWIDTH 0 0
BBX 6 6 0 13
BITMAP
78
FC
84
24
70
30
ENDCHAR
STARTCHAR 0353
ENCODING 851
SWIDTH 0 0
DWIDTH 0 0
BBX 5 5 -4 -6
BITMAP
48
F8
70
70
D8
ENDCHAR
STARTCHAR 0354
ENCODING 852
SWIDTH 0 0
DWIDTH 0 0
BBX 3 5 -3 -6
BITMAP
20
C0
80
C0
60
ENDCHAR
STARTCHAR 0355
ENCODING 853
SWIDTH 0 0
DWIDTH 0 0
BBX 3 5 -3 -6
BITMAP
80
E0
60
60
80
ENDCHAR
STARTCHAR 0356
ENCODING 854
SWIDTH 0 0
DWIDTH 0 0
BBX 8 5 -6 -5
BITMAP
80
66
2F
68
80
ENDCHAR
STARTCHAR 0357
ENCODING 855
SWIDTH 0 0
DWIDTH 0 0
BBX 2 5 1 11
BITMAP
80
40
40
40
80
ENDCHAR
STARTCHAR 0358
ENCODING 856
SWIDTH 0 0
DWIDTH 0 0
BBX 1 2 6 14
BITMAP
80
80
ENDCHAR
STARTCHAR 0359
ENCODING 857
SWIDTH 0 0
DWIDTH 0 0
BBX 4 4 -4 -6
BITMAP
20
F0
20
50
ENDCHAR
STARTCHAR 035A
ENCODING 858
SWIDTH 0 0
DWIDTH 0 0
BBX 8 5 -6 -5
BITMAP
76
89
89
89
77
ENDCHAR
STARTCHAR 035B
ENCODING 859
SWIDTH 0 0
DWIDTH 0 0
BBX 4 6 1 13
BITMAP
40
C0
80
F0
30
20
ENDCHAR
STARTCHAR 035C
ENCODING 860
SWIDTH 0 0
DWIDTH 0 0
BBX 15 4 0 -5
BITMAP
8002
701C
3FF8
0FC0
ENDCHAR
STARTCHAR 035D
ENCODING 861
SWIDTH 0 0
DWIDTH 0 0
BBX 15 4 1 12
BITMAP
8002
701C
3FF8
0FE0
ENDCHAR
STARTCHAR 035E
ENCODING 862
SWIDTH 0 0
DWIDTH 0 0
BBX 16 2 1 13
BITMAP
FFFF
FFFF
ENDCHAR
STARTCHAR 035F
ENCODING 863
SWIDTH 0 0
DWIDTH 0 0
BBX 16 2 -6 -3
BITMAP
7FFF
FFFF
ENDCHAR
STARTCHAR 0360
ENCODING 864
SWIDTH 0 0
DWIDTH 0 0
BBX 16 3 1 12
BITMAP
7F01
FFFE
81FE
ENDCHAR
STARTCHAR 0361
ENCODING 865
SWIDTH 0 0
DWIDTH 0 0
BBX 15 4 1 11
BITMAP
07E0
3FF8
701C
8002
ENDCHAR
STARTCHAR 0362
ENCODING 866
SWIDTH 0 0
DWIDTH 0 0
BBX 13 2 -5 -4
BITMAP
FFF8
FFF8
ENDCHAR
STARTCHAR 0363
ENCODING 867
SWIDTH 0 0
DWIDTH 0 0
BBX 7 7 -2 6
BITMAP
16
2C
6C
CC
CC
F8
FC
ENDCHAR
STARTCHAR 0364
ENCODING 868
SWIDTH 0 0
DWIDTH 0 0
BBX 6 7 -2 6
BITMAP
1C
24
6C
D8
E0
C0
78
ENDCHAR
STARTCHAR 0365
ENCODING 869
SWIDTH 0 0
DWIDTH 0 0
BBX 4 10 -1 6
BITMAP
30
30
00
30
20
60
60
60
C0
60
ENDCHAR
STARTCHAR 0366
ENCODING 870
SWIDTH 0 0
DWIDTH 0 0
BBX 6 7 -2 6
BITMAP
18
6C
CC
CC
CC
D8
60
ENDCHAR
STARTCHAR 0367
ENCODING 871
SWIDTH 0 0
DWIDTH 0 0
BBX 7 7 -2 6
BITMAP
60
66
4C
CC
DC
F8
DC
ENDCHAR
STARTCHAR 0368
ENCODING 872
SWIDTH 0 0
DWIDTH 0 0
BBX 6 7 -2 6
BITMAP
1C
24
64
C0
C0
C0
78
ENDCHAR
STARTCHAR 0369
ENCODING 873
SWIDTH 0 0
DWIDTH 0 0
BBX 7 10 -2 6
BITMAP
06
06
06
16
6C
6C
CC
C8
D8
F8
ENDCHAR
STARTCHAR 036A
ENCODING 874
SWIDTH 0 0
DWIDTH 0 0
BBX 6 10 -2 6
BITMAP
70
30
20
64
7C
6C
CC
CC
DC
98
ENDCHAR
STARTCHAR 036B
ENCODING 875
SWIDTH 0 0
DWIDTH 0 0
BBX 10 7 -4 6
BITMAP
64C0
6DC0
7EC0
6C80
CD80
C9C0
D980
ENDCHAR
STARTCHAR 036C
ENCODING 876
SWIDTH 0 0
DWIDTH 0 0
BBX 6 7 -2 7
BITMAP
6C
34
70
60
60
40
C0
ENDCHAR
STARTCHAR 036D
ENCODING 877
SWIDTH 0 0
DWIDTH 0 0
BBX 5 8 -1 8
BITMAP
10
78
20
60
60
60
D0
60
ENDCHAR
STARTCHAR 036E
ENCODING 878
SWIDTH 0 0
DWIDTH 0 0
BBX 5 7 -1 6
BITMAP
C8
C8
48
50
50
60
40
ENDCHAR
STARTCHAR 036F
ENCODING 879
SWIDTH 0 0
DWIDTH 0 0
BBX 8 7 -3 6
BITMAP
73
37
18
18
18
EC
CC
ENDCHAR
STARTCHAR 0370
ENCODING 880
SWIDTH 583 0
DWIDTH 14 0
BBX 15 16 -1 0
BITMAP
0FF0
03C0
03C0
0380
0780
0780
0700
07FE
0F00
0E00
0E00
1E00
1E00
1C00
3C00
FF00
ENDCHAR
STARTCHAR 0371
ENCODING 881
SWIDTH 416 0
DWIDTH 10 0
BBX 9 11 1 0
BITMAP
3800
F800
3800
3800
7000
7F80
7000
7000
E000
E000
E000
ENDCHAR
STARTCHAR 0372
ENCODING 882
SWIDTH 625 0
DWIDTH 15 0
BBX 15 16 2 0
BITMAP
7FFE
73CE
739E
E39C
E79C
0780
0700
0F00
0F00
0E00
1E00
1E00
1C00
1C00
3C00
FF00
ENDCHAR
STARTCHAR 0373
ENCODING 883
SWIDTH 541 0
DWIDTH 13 0
BBX 13 16 2 0
BITMAP
3FF8
7738
6730
0770
0E00
0E00
0E00
0E00
1C00
1C00
1C00
3800
3800
3800
7800
FC00
ENDCHAR
STARTCHAR 0374
ENCODING 884
SWIDTH 333 0
DWIDTH 8 0
BBX 4 4 5 12
BITMAP
70
60
C0
80
ENDCHAR
STARTCHAR 0375
ENCODING 885
SWIDTH 333 0
DWIDTH 8 0
BBX 4 4 -1 -5
BITMAP
30
20
60
E0
ENDCHAR
STARTCHAR 0376
ENCODING 886
SWIDTH 791 0
DWIDTH 19 0
BBX 17 16 1 0
BITMAP
3FC080
0F0180
0F0380
0E0780
1E0F00
1E1F00
1C2F00
1C4E00
3D8E00
3F1E00
3E1E00
7C1C00
783C00
603C00
C07C00
80FE00
ENDCHAR
STARTCHAR 0377
ENCODING 887
SWIDTH 666 0
DWIDTH 16 0
BBX 12 11 1 0
BITMAP
7E10
3C30
3870
38F0
39E0
72E0
7CE0
70C0
E1C0
C1C0
87E0
ENDCHAR
STARTCHAR 037A
ENCODING 890
SWIDTH 333 0
DWIDTH 8 0
BBX 3 4 1 -5
BITMAP
C0
C0
80
E0
ENDCHAR
STARTCHAR 037B
ENCODING 891
SWIDTH 458 0
DWIDTH 11 0
BBX 10 11 0 0
BITMAP
0F00
1FC0
23C0
01C0
01C0
01C0
0180
0380
0300
8600
7800
ENDCHAR
STARTCHAR 037C
ENCODING 892
SWIDTH 458 0
DWIDTH 11 0
BBX 10 11 1 0
BITMAP
0F80
1840
3000
6600
E700
E700
E600
E000
E100
FE00
7800
ENDCHAR
STARTCHAR 037D
ENCODING 893
SWIDTH 458 0
DWIDTH 11 0
BBX 10 11 0 0
BITMAP
0F00
1FC0
23C0
01C0
31C0
39C0
3980
3380
0300
8600
7800
ENDCHAR
STARTCHAR 037E
ENCODING 894
SWIDTH 333 0
DWIDTH 8 0
BBX 7 15 0 -5
BITMAP
0C
1E
1E
0C
00
00
00
00
78
78
78
30
30
20
C0
ENDCHAR
STARTCHAR 037F
ENCODING 895
SWIDTH 500 0
DWIDTH 12 0
BBX 14 16 0 0
BITMAP
03FC
00F0
00F0
00E0
00E0
01E0
01E0
01C0
03C0
03C0
0380
0780
E780
E700
CE00
7C00
ENDCHAR
STARTCHAR 0384
ENCODING 900
SWIDTH 333 0
DWIDTH 8 0
BBX 4 4 5 12
BITMAP
70
60
C0
80
ENDCHAR
STARTCHAR 0385
ENCODING 901
SWIDTH 333 0
DWIDTH 8 0
BBX 11 4 1 12
BITMAP
0700
EEC0
ECE0
E8C0
ENDCHAR
STARTCHAR 0386
ENCODING 902
SWIDTH 666 0
DWIDTH 16 0
BBX 15 16 -1 0
BITMAP
01E2
01C6
018C
031C
003C
007C
00DC
009C
011C
021C
07FC
081C
181C
101C
203C
F07E
ENDCHAR
STARTCHAR 0387
ENCODING 903
SWIDTH 333 0
DWIDTH 8 0
BBX 4 4 3 7
BITMAP
60
F0
F0
60
ENDCHAR
STARTCHAR 0388
ENCODING 904
SWIDTH 791 0
DWIDTH 19 0
BBX 18 16 1 0
BITMAP
77FFC0
61E1C0
C1C080
81C080
03C000
038000
038400
07FC00
078C00
070800
0F0000
0F0000
0E0100
0E0200
1E0E00
7FFE00
ENDCHAR
STARTCHAR 0389
ENCODING 905
SWIDTH 875 0
DWIDTH 21 0
BBX 22 16 1 0
BITMAP
77FBFC
61E0F0
C1C0F0
81C0E0
03C0E0
0381E0
0381E0
07FFC0
0783C0
0703C0
070380
0F0780
0E0780
0E0780
1E0F00
7F9FC0
ENDCHAR
STARTCHAR 038A
ENCODING 906
SWIDTH 500 0
DWIDTH 12 0
BBX 13 16 1 0
BITMAP
77F8
61E0
C1E0
81C0
03C0
03C0
0380
0780
0780
0780
0700
0F00
0F00
0E00
1E00
7F80
ENDCHAR
STARTCHAR 038C
ENCODING 908
SWIDTH 750 0
DWIDTH 18 0
BBX 16 16 1 0
BITMAP
70F8
630E
C607
8E07
1C07
3C07
780F
780F
780F
780E
701E
701C
7038
7070
38E0
1F80
ENDCHAR
STARTCHAR 038E
ENCODING 910
SWIDTH 750 0
DWIDTH 18 0
BBX 20 16 1 0
BITMAP
77F9F0
61E0C0
C1E080
81E100
00E100
00E200
00F400
00FC00
007800
00F000
00F000
00E000
00E000
01E000
01E000
07F000
ENDCHAR
STARTCHAR 038F
ENCODING 911
SWIDTH 791 0
DWIDTH 19 0
BBX 18 16 1 0
BITMAP
70FC00
638700
C70380
8E0380
1E0380
1C03C0
3C0780
3C0780
3C0780
3C0F00
1C0E00
4E3800
414100
FE7F00
FE7E00
FE7E00
ENDCHAR
STARTCHAR 0390
ENCODING 912
SWIDTH 291 0
DWIDTH 7 0
BBX 11 16 0 0
BITMAP
E7C0
ECE0
E8C0
0000
0000
3C00
3C00
3800
3800
3800
3800
7000
7000
7800
7800
7000
ENDCHAR
STARTCHAR 0391
ENCODING 913
SWIDTH 666 0
DWIDTH 16 0
BBX 15 16 -1 0
BITMAP
0002
0006
000C
001C
003C
007C
00DC
009C
011C
021C
07FC
081C
101C
101C
203C
F07E
ENDCHAR
STARTCHAR 0392
ENCODING 914
SWIDTH 666 0
DWIDTH 16 0
BBX 14 16 1 0
BITMAP
1FF8
0F3C
0F1C
0E1C
0E1C
1E3C
1E70
1F80
1C70
3C78
3838
3878
7878
7078
70F0
FFC0
ENDCHAR
STARTCHAR 0393
ENCODING 915
SWIDTH 625 0
DWIDTH 15 0
BBX 17 16 -1 0
BITMAP
07FF80
03C180
03C080
038000
078000
078000
070000
0F0000
0F0000
0F0000
0E0000
1E0000
1E0000
1C0000
3C0000
FF0000
ENDCHAR
STARTCHAR 0394
ENCODING 916
SWIDTH 625 0
DWIDTH 15 0
BBX 14 16 -1 0
BITMAP
0004
000C
001C
003C
007C
0078
00B8
0138
0338
0638
0C38
0838
1078
3078
6078
FFF8
ENDCHAR
STARTCHAR 0395
ENCODING 917
SWIDTH 666 0
DWIDTH 16 0
BBX 16 16 0 0
BITMAP
0FFF
0783
0781
0700
0F00
0F08
0E10
0FF0
1E30
1E10
1C00
3C00
3C04
380C
7838
FFF8
ENDCHAR
STARTCHAR 0396
ENCODING 918
SWIDTH 625 0
DWIDTH 15 0
BBX 17 16 -1 0
BITMAP
07FF80
060F00
081F00
083E00
007C00
007800
00F000
01E000
03E000
07C000
078000
0F0000
1E0400
3E0C00
7C3800
FFF800
ENDCHAR
STARTCHAR 0397
ENCODING 919
SWIDTH 791 0
DWIDTH 19 0
BBX 22 16 -1 0
BITMAP
0FF3FC
03C1F0
03C1E0
0381E0
0781C0
0783C0
0703C0
07FF80
0F0780
0E0780
0E0780
1E0700
1E0F00
1C0F00
3C0F00
FF3F80
ENDCHAR
STARTCHAR 0398
ENCODING 920
SWIDTH 750 0
DWIDTH 18 0
BBX 17 16 1 0
BITMAP
00FC00
030600
060700
1E0780
1C0780
3C0780
791780
7BE780
7BEF80
F02F00
F00F00
F01E00
701C00
703800
386000
0F8000
ENDCHAR
STARTCHAR 0399
ENCODING 921
SWIDTH 375 0
DWIDTH 9 0
BBX 12 16 -1 0
BITMAP
0FF0
03C0
03C0
0380
0780
0780
0700
0700
0F00
0F00
0E00
1E00
1E00
1C00
3C00
FF00
ENDCHAR
STARTCHAR 039A
ENCODING 922
SWIDTH 666 0
DWIDTH 16 0
BBX 18 16 0 0
BITMAP
1FEFC0
078600
078400
071800
073000
0F6000
0FC000
0FE000
1EE000
1EE000
1CF000
3C7000
3C7000
387800
387800
FEFC00
ENDCHAR
STARTCHAR 039B
ENCODING 923
SWIDTH 666 0
DWIDTH 16 0
BBX 15 16 -1 0
BITMAP
0004
0004
000C
001C
003C
005C
009C
011C
031C
023C
043C
083C
103C
203C
603C
F07E
ENDCHAR
STARTCHAR 039C
ENCODING 924
SWIDTH 875 0
DWIDTH 21 0
BBX 24 16 -1 0
BITMAP
0FC03F
03C03C
03C07C
03C0F8
05E0B8
05E178
05E370
04E270
08E4F0
08E8F0
08F8E0
10F1E0
10E1E0
10E1C0
30C3C0
FC8FF0
ENDCHAR
STARTCHAR 039D
ENCODING 925
SWIDTH 708 0
DWIDTH 17 0
BBX 20 16 -1 0
BITMAP
0FC1F0
03C040
03E040
03E040
04F080
04F080
047880
047900
083D00
083D00
081F00
101E00
100E00
100E00
300400
F80400
ENDCHAR
STARTCHAR 039E
ENCODING 926
SWIDTH 666 0
DWIDTH 16 0
BBX 17 16 0 0
BITMAP
0FFF80
0FFF80
0FFF00
100100
100100
040800
073800
07F000
07F000
081000
000000
000000
800400
FFF800
FFF800
FFF800
ENDCHAR
STARTCHAR 039F
ENCODING 927
SWIDTH 708 0
DWIDTH 17 0
BBX 16 16 1 0
BITMAP
00F8
030E
0E0E
1E0F
3C0F
3C0F
780F
780F
780F
F01E
F01E
F03C
7038
7070
38E0
1F80
ENDCHAR
STARTCHAR 03A0
ENCODING 928
SWIDTH 791 0
DWIDTH 19 0
BBX 22 16 -1 0
BITMAP
0FFFFC
03C0F0
03C1E0
0381E0
0781C0
0783C0
0703C0
070380
0F0380
0F0780
0E0780
1E0700
1E0F00
1C0F00
3C0F00
FF3F80
ENDCHAR
STARTCHAR 03A1
ENCODING 929
SWIDTH 625 0
DWIDTH 15 0
BBX 16 16 -1 0
BITMAP
07FC
03CF
03C7
0387
0387
078F
078F
071E
0FF8
0F00
0E00
1E00
1E00
1C00
3C00
FF00
ENDCHAR
STARTCHAR 03A3
ENCODING 931
SWIDTH 625 0
DWIDTH 15 0
BBX 17 16 -1 0
BITMAP
07FF80
078180
038080
03C000
01C000
01E000
00E000
00C000
008000
030000
060000
0C0000
100400
3FFC00
7FF800
FFF800
ENDCHAR
STARTCHAR 03A4
ENCODING 932
SWIDTH 625 0
DWIDTH 15 0
BBX 14 16 2 0
BITMAP
3FFC
63CC
4384
0384
0780
0780
0700
0F00
0F00
0E00
1E00
1E00
1C00
1C00
3C00
FF00
ENDCHAR
STARTCHAR 03A5
ENCODING 933
SWIDTH 625 0
DWIDTH 15 0
BBX 15 16 2 0
BITMAP
7FBE
3E0C
1C18
1E10
1E20
0E20
0E40
0E80
0F00
0F00
0E00
0E00
1E00
1E00
3C00
FF00
ENDCHAR
STARTCHAR 03A6
ENCODING 934
SWIDTH 791 0
DWIDTH 19 0
BBX 17 16 2 0
BITMAP
03FC00
00F000
00F000
0FF800
39E600
71E700
F1C700
E3C780
E3C700
E38F00
E78E00
679C00
37F000
0F0000
0F0000
3FC000
ENDCHAR
STARTCHAR 03A7
ENCODING 935
SWIDTH 666 0
DWIDTH 16 0
BBX 19 16 -1 0
BITMAP
1FC3E0
078180
078100
03C200
03C400
01E800
01F000
00E000
00F000
01F000
037800
047800
083C00
103C00
301E00
F87F00
ENDCHAR
STARTCHAR 03A8
ENCODING 936
SWIDTH 791 0
DWIDTH 19 0
BBX 18 16 3 0
BITMAP
67F9C0
71E380
71C780
F1C700
F3CF00
F3CF00
E38E00
E79E00
77B800
0FC000
0F0000
0F0000
0E0000
1E0000
1E0000
7F0000
ENDCHAR
STARTCHAR 03A9
ENCODING 937
SWIDTH 750 0
DWIDTH 18 0
BBX 18 16 0 0
BITMAP
00FC00
038700
070380
0E0380
1E03C0
1C03C0
3C0780
3C0780
3C0780
1C0F00
1C0E00
4E3800
414100
7E7F00
FE7E00
FE7E00
ENDCHAR
STARTCHAR 03AA
ENCODING 938
SWIDTH 375 0
DWIDTH 9 0
BBX 13 21 -1 0
BITMAP
0330
0738
0330
0000
0000
0FF0
03C0
03C0
0380
0780
0780
0700
0700
0F00
0F00
0E00
1E00
1E00
1C00
3C00
FF00
ENDCHAR
STARTCHAR 03AB
ENCODING 939
SWIDTH 625 0
DWIDTH 15 0
BBX 15 21 2 0
BITMAP
0330
0738
0330
0000
0000
7FBE
3E0C
1C18
1E10
1E20
0E20
0E40
0E80
0F00
0F00
0E00
0E00
1E00
1E00
3C00
FF00
ENDCHAR
STARTCHAR 03AC
ENCODING 940
SWIDTH 541 0
DWIDTH 13 0
BBX 12 16 1 0
BITMAP
01E0
01C0
0180
0300
0000
0E70
19E0
31E0
71C0
E1C0
E380
C380
C780
C780
CEE0
7860
ENDCHAR
STARTCHAR 03AD
ENCODING 941
SWIDTH 416 0
DWIDTH 10 0
BBX 10 16 0 0
BITMAP
01C0
0380
0300
0200
0000
1F80
38C0
38C0
1000
0F00
7000
F000
E100
E380
6300
3E00
ENDCHAR
STARTCHAR 03AE
ENCODING 942
SWIDTH 541 0
DWIDTH 13 0
BBX 11 21 1 -5
BITMAP
00E0
01C0
0180
0300
0000
38E0
F9E0
BBE0
3AE0
7CE0
79C0
71C0
71C0
E380
E380
E380
0700
0700
0700
0700
0E00
ENDCHAR
STARTCHAR 03AF
ENCODING 943
SWIDTH 291 0
DWIDTH 7 0
BBX 7 16 1 0
BITMAP
0E
0C
18
10
00
78
78
70
70
70
70
E0
E0
F0
F0
E0
ENDCHAR
STARTCHAR 03B0
ENCODING 944
SWIDTH 500 0
DWIDTH 12 0
BBX 12 16 1 0
BITMAP
33F0
7770
3670
0000
0000
3300
F880
38C0
78C0
70C0
70C0
7180
E180
E300
6200
3C00
ENDCHAR
STARTCHAR 03B1
ENCODING 945
SWIDTH 541 0
DWIDTH 13 0
BBX 12 11 1 0
BITMAP
0E70
19E0
31E0
71C0
E1C0
E380
C380
C780
C780
CEE0
7860
ENDCHAR
STARTCHAR 03B2
ENCODING 946
SWIDTH 500 0
DWIDTH 12 0
BBX 15 21 -2 -5
BITMAP
0078
01CC
038E
038E
039C
0718
0770
0730
0E38
0E38
0E38
1C38
1C70
1C70
3CE0
3BC0
3800
3800
7000
7000
E000
ENDCHAR
STARTCHAR 03B3
ENCODING 947
SWIDTH 416 0
DWIDTH 10 0
BBX 9 16 1 -5
BITMAP
6300
F380
B380
1300
1300
1200
1200
1400
1800
1000
3000
7000
F000
E000
E000
C000
ENDCHAR
STARTCHAR 03B4
ENCODING 948
SWIDTH 500 0
DWIDTH 12 0
BBX 12 16 0 0
BITMAP
03E0
0270
0630
0300
0380
01C0
03E0
0CE0
38E0
78E0
70E0
70E0
E1C0
61C0
7300
3E00
ENDCHAR
STARTCHAR 03B5
ENCODING 949
SWIDTH 416 0
DWIDTH 10 0
BBX 10 11 0 0
BITMAP
1F80
38C0
38C0
1000
0F00
7000
F000
E100
E380
6300
3E00
ENDCHAR
STARTCHAR 03B6
ENCODING 950
SWIDTH 458 0
DWIDTH 11 0
BBX 13 21 0 -3
BITMAP
0100
0238
0278
03F0
0200
0400
0C00
1800
1000
2000
6000
6000
6000
E000
FF00
7F80
3F80
0080
0880
1F00
0E00
ENDCHAR
STARTCHAR 03B7
ENCODING 951
SWIDTH 541 0
DWIDTH 13 0
BBX 11 16 1 -5
BITMAP
38E0
F9E0
3AE0
3CE0
79E0
79C0
71C0
71C0
E380
E380
E380
0700
0700
0700
0700
0E00
ENDCHAR
STARTCHAR 03B8
ENCODING 952
SWIDTH 500 0
DWIDTH 12 0
BBX 12 16 1 0
BITMAP
03C0
0660
0C70
1870
3870
3870
70E0
7FE0
70E0
E1C0
E1C0
E180
E380
C300
6600
3800
ENDCHAR
STARTCHAR 03B9
ENCODING 953
SWIDTH 291 0
DWIDTH 7 0
BBX 5 11 1 0
BITMAP
78
78
70
70
70
70
E0
E0
F0
F0
E0
ENDCHAR
STARTCHAR 03BA
ENCODING 954
SWIDTH 541 0
DWIDTH 13 0
BBX 13 11 0 0
BITMAP
1C18
1C78
1C98
3900
3B00
3F80
3B80
7380
7380
71E0
E180
ENDCHAR
STARTCHAR 03BB
ENCODING 955
SWIDTH 458 0
DWIDTH 11 0
BBX 11 16 -1 0
BITMAP
0300
0780
0480
0080
0080
0080
0180
0180
0300
0700
0F00
1F00
1D00
3920
70E0
F0C0
ENDCHAR
STARTCHAR 03BC
ENCODING 956
SWIDTH 541 0
DWIDTH 13 0
BBX 13 16 -1 -5
BITMAP
0E38
0E38
0E38
1C38
1C70
1C70
1CF0
39E0
3AE8
3EF0
78E0
6000
C000
C000
C000
C000
ENDCHAR
STARTCHAR 03BD
ENCODING 957
SWIDTH 458 0
DWIDTH 11 0
BBX 10 11 1 0
BITMAP
3180
F1C0
71C0
7080
3880
3900
3A00
3C00
3800
3000
2000
ENDCHAR
STARTCHAR 03BE
ENCODING 958
SWIDTH 458 0
DWIDTH 11 0
BBX 11 20 1 -4
BITMAP
0860
09E0
0780
0400
0800
0BC0
0FC0
3000
4000
C000
C000
C000
C000
FE00
FF00
7F00
0100
1100
3E00
0C00
ENDCHAR
STARTCHAR 03BF
ENCODING 959
SWIDTH 500 0
DWIDTH 12 0
BBX 10 11 1 0
BITMAP
0780
19C0
31C0
71C0
F1C0
E1C0
E380
E380
E700
E600
7800
ENDCHAR
STARTCHAR 03C0
ENCODING 960
SWIDTH 541 0
DWIDTH 13 0
BBX 14 11 0 0
BITMAP
1FFC
3FF8
7FF8
0CC0
0CC0
18C0
19C0
3980
7190
F3E0
61C0
ENDCHAR
STARTCHAR 03C1
ENCODING 961
SWIDTH 500 0
DWIDTH 12 0
BBX 13 16 -2 -5
BITMAP
01E0
0738
0618
0E38
0E38
0E38
1C38
1C70
1C70
38E0
3F80
3800
7000
7000
7000
E000
ENDCHAR
STARTCHAR 03C2
ENCODING 962
SWIDTH 458 0
DWIDTH 11 0
BBX 10 15 1 -4
BITMAP
0F80
31C0
40C0
4000
8000
8000
8000
C000
FE00
FF00
3F00
0100
0100
3E00
1C00
ENDCHAR
STARTCHAR 03C3
ENCODING 963
SWIDTH 541 0
DWIDTH 13 0
BBX 12 11 1 0
BITMAP
0FF0
3FF0
7FF0
7900
F180
E1C0
E1C0
C3C0
C380
4700
3E00
ENDCHAR
STARTCHAR 03C4
ENCODING 964
SWIDTH 458 0
DWIDTH 11 0
BBX 10 11 1 0
BITMAP
3FC0
7FC0
FFC0
0C00
1C00
1800
3800
3800
3A00
3E00
3C00
ENDCHAR
STARTCHAR 03C5
ENCODING 965
SWIDTH 500 0
DWIDTH 12 0
BBX 10 11 1 0
BITMAP
3300
F880
38C0
78C0
70C0
70C0
7180
E180
E300
6600
3C00
ENDCHAR
STARTCHAR 03C6
ENCODING 966
SWIDTH 583 0
DWIDTH 14 0
BBX 12 16 1 -5
BITMAP
0DE0
3BE0
7370
7270
E670
E670
E670
CCE0
CCC0
CDC0
3F00
1800
1800
1000
3000
3000
ENDCHAR
STARTCHAR 03C7
ENCODING 967
SWIDTH 458 0
DWIDTH 11 0
BBX 14 16 -2 -5
BITMAP
0E3C
1E38
1270
02F0
02E0
01C0
03C0
0380
0700
0F00
0F00
1D00
3D00
7900
70E0
E0E0
ENDCHAR
STARTCHAR 03C8
ENCODING 968
SWIDTH 666 0
DWIDTH 16 0
BBX 16 16 1 -5
BITMAP
6187
318E
711C
731C
7338
7338
E678
E670
6670
64E0
1F80
0C00
0C00
1800
1800
1800
ENDCHAR
STARTCHAR 03C9
ENCODING 969
SWIDTH 708 0
DWIDTH 17 0
BBX 15 11 1 0
BITMAP
0E08
38CE
71C6
71C6
E186
E38E
E30E
E30E
E21C
E538
78F0
ENDCHAR
STARTCHAR 03CA
ENCODING 970
SWIDTH 291 0
DWIDTH 7 0
BBX 8 16 1 0
BITMAP
66
E7
66
00
00
78
78
70
70
70
70
E0
E0
F0
F0
E0
ENDCHAR
STARTCHAR 03CB
ENCODING 971
SWIDTH 500 0
DWIDTH 12 0
BBX 10 16 1 0
BITMAP
1CC0
1DC0
1CC0
0000
0000
3300
F880
38C0
78C0
70C0
70C0
7180
E180
E300
6600
3C00
ENDCHAR
STARTCHAR 03CC
ENCODING 972
SWIDTH 500 0
DWIDTH 12 0
BBX 10 16 1 0
BITMAP
01C0
0180
0300
0200
0000
0780
19C0
31C0
71C0
F1C0
E1C0
E380
E380
E700
E600
7800
ENDCHAR
STARTCHAR 03CD
ENCODING 973
SWIDTH 500 0
DWIDTH 12 0
BBX 10 16 1 0
BITMAP
01C0
0380
0300
0200
0000
3300
F880
38C0
78C0
70C0
70C0
7180
E180
E300
6600
3C00
ENDCHAR
STARTCHAR 03CE
ENCODING 974
SWIDTH 708 0
DWIDTH 17 0
BBX 15 16 1 0
BITMAP
0038
0070
0060
00C0
0000
0E08
38CE
71C6
71C6
E186
E38E
E30E
E30E
E21C
E538
78F0
ENDCHAR
STARTCHAR 03CF
ENCODING 975
SWIDTH 708 0
DWIDTH 17 0
BBX 18 22 -1 -6
BITMAP
0FF7C0
03C300
03C600
038C00
039800
07B000
077000
07F000
0F7800
0F7800
0E3C00
1E1C00
1E1E00
1C0E00
3C0F00
FF1F00
003F00
00FC00
007800
007000
002000
002000
ENDCHAR
STARTCHAR 03D0
ENCODING 976
SWIDTH 500 0
DWIDTH 12 0
BBX 11 16 1 0
BITMAP
03E0
0C20
0FC0
3000
2000
4F00
59C0
71C0
F1C0
E1C0
E1C0
E3C0
E380
E300
E600
7C00
ENDCHAR
STARTCHAR 03D1
ENCODING 977
SWIDTH 541 0
DWIDTH 13 0
BBX 13 16 0 0
BITMAP
03E0
0630
0E38
0C38
1C38
1C78
0C70
0C70
07F8
03F8
F0E8
70E8
71C0
71C0
7380
3E00
ENDCHAR
STARTCHAR 03D2
ENCODING 978
SWIDTH 708 0
DWIDTH 17 0
BBX 17 16 3 0
BITMAP
E00780
3C0980
1E3380
0E2000
0E4000
0E8000
0F0000
0F0000
0E0000
0E0000
1E0000
1E0000
1C0000
3C0000
3C0000
FF0000
ENDCHAR
STARTCHAR 03D3
ENCODING 979
SWIDTH 833 0
DWIDTH 20 0
BBX 23 16 0 0
BITMAP
77801E
60E066
C0708E
807900
003900
003A00
003C00
003C00
003800
007800
007800
007000
007000
00F000
00F000
07F800
ENDCHAR
STARTCHAR 03D4
ENCODING 980
SWIDTH 708 0
DWIDTH 17 0
BBX 17 21 3 0
BITMAP
063000
077000
073000
000000
000000
E00780
3C0980
1E3380
0E2000
0E4000
0E8000
0F0000
0F0000
0E0000
0E0000
1E0000
1E0000
1C0000
3C0000
3C0000
FF0000
ENDCHAR
STARTCHAR 03D5
ENCODING 981
SWIDTH 583 0
DWIDTH 14 0
BBX 12 21 1 -5
BITMAP
00C0
00C0
0180
0180
0180
0780
1B60
3370
7270
E670
E670
C670
C4E0
CCC0
CD80
6F00
1800
1800
1800
3000
3000
ENDCHAR
STARTCHAR 03D6
ENCODING 982
SWIDTH 750 0
DWIDTH 18 0
BBX 18 11 0 0
BITMAP
3FFFC0
7FFFC0
7FFFC0
B80380
384380
38C380
70C380
708700
708700
318E00
1E7800
ENDCHAR
STARTCHAR 03D7
ENCODING 983
SWIDTH 583 0
DWIDTH 14 0
BBX 14 16 0 -5
BITMAP
1C18
3C3C
4478
44F0
07E0
0FC0
1F80
7C88
F990
F1F0
E0F0
0060
0060
0260
07C0
0380
ENDCHAR
STARTCHAR 03D8
ENCODING 984
SWIDTH 708 0
DWIDTH 17 0
BBX 16 21 1 -5
BITMAP
00F8
030E
0E0E
1E0F
1C0F
3C0F
780F
780F
780F
F01E
F01E
F01C
7038
7078
38E0
1FC0
0E00
0E00
1E00
1E00
7F00
ENDCHAR
STARTCHAR 03D9
ENCODING 985
SWIDTH 500 0
DWIDTH 12 0
BBX 10 16 1 -5
BITMAP
0780
19C0
31C0
71C0
F1C0
E1C0
E3C0
E380
E300
E600
6C00
3800
7000
7000
7000
F000
ENDCHAR
STARTCHAR 03DA
ENCODING 986
SWIDTH 666 0
DWIDTH 16 0
BBX 15 16 2 0
BITMAP
01F8
0704
1C02
3C00
7800
7000
F000
F000
F000
F000
F000
F000
7800
3F80
0780
1FE0
ENDCHAR
STARTCHAR 03DB
ENCODING 987
SWIDTH 458 0
DWIDTH 11 0
BBX 11 16 1 -4
BITMAP
07E0
1FC0
3F80
6000
C000
8000
8000
8000
FC00
FE00
7E00
0200
0200
0400
7800
7000
ENDCHAR
STARTCHAR 03DC
ENCODING 988
SWIDTH 666 0
DWIDTH 16 0
BBX 17 16 0 0
BITMAP
0FFF80
03C380
038180
038080
078000
078000
070000
0FF800
0F1800
0E1000
1E1000
1E0000
1C0000
1C0000
3C0000
FF0000
ENDCHAR
STARTCHAR 03DD
ENCODING 989
SWIDTH 458 0
DWIDTH 11 0
BBX 13 16 -1 -5
BITMAP
3FF8
1C10
1C10
1C10
1C00
3880
3880
3F00
3100
7100
7000
7000
E000
E000
E000
E000
ENDCHAR
STARTCHAR 03DE
ENCODING 990
SWIDTH 500 0
DWIDTH 12 0
BBX 12 16 1 0
BITMAP
3800
0800
0800
0810
1070
11E0
27E0
3FC0
7FC0
7E80
7880
E080
8100
0100
0100
01C0
ENDCHAR
STARTCHAR 03DF
ENCODING 991
SWIDTH 458 0
DWIDTH 11 0
BBX 12 16 0 0
BITMAP
0200
0400
0400
0800
1000
3000
3FF0
7FE0
FFC0
0040
0080
0100
0100
0200
0600
0400
ENDCHAR
STARTCHAR 03E0
ENCODING 992
SWIDTH 708 0
DWIDTH 17 0
BBX 15 21 2 -6
BITMAP
0FC0
7FF0
98F8
187C
183C
303E
30DE
319E
039E
030E
070E
070E
061C
0E1C
0E1C
0C18
0038
0030
0060
0040
0080
ENDCHAR
STARTCHAR 03E1
ENCODING 993
SWIDTH 541 0
DWIDTH 13 0
BBX 10 18 2 -6
BITMAP
F000
0E00
0700
0780
0380
07C0
19C0
01C0
01C0
0EC0
10C0
00C0
00C0
0180
0180
0100
0200
0400
ENDCHAR
STARTCHAR 03E2
ENCODING 994
SWIDTH 833 0
DWIDTH 20 0
BBX 22 21 0 -5
BITMAP
1FBFFC
0F1E78
0F1C70
0F3C70
0E3CF0
1E38E0
1E78E0
1C79E0
1C71E0
3CF1C0
3CF3C0
39E7C0
7AEB80
7DEB80
7DF780
70E700
000700
000F00
380E00
E71C00
C0F800
ENDCHAR
STARTCHAR 03E3
ENCODING 995
SWIDTH 791 0
DWIDTH 19 0
BBX 19 16 -1 -5
BITMAP
0C38E0
1E39C0
2E71C0
1C71C0
1C73C0
1CF380
3DE780
3AEB80
3AF700
3CF700
38C700
000600
000E00
7C0E00
E31C00
C0F800
ENDCHAR
STARTCHAR 03E4
ENCODING 996
SWIDTH 708 0
DWIDTH 17 0
BBX 17 16 2 0
BITMAP
07BF80
199E00
301C00
701C00
703C00
F03800
E03800
F07800
70F800
3F7000
00F000
00F000
00E000
00E000
01E000
07F800
ENDCHAR
STARTCHAR 03E5
ENCODING 997
SWIDTH 541 0
DWIDTH 13 0
BBX 13 16 1 0
BITMAP
0738
19B8
3070
6070
E0F0
E1E0
E3E0
E6E0
FDC0
71C0
01C0
01C0
0380
03A0
03C0
0380
ENDCHAR
STARTCHAR 03E6
ENCODING 998
SWIDTH 750 0
DWIDTH 18 0
BBX 19 21 -2 -5
BITMAP
03F800
01E000
01E000
01C000
01C000
03C000
039F80
03E1C0
0781E0
0780E0
0700E0
0F01E0
0F01E0
0E01C0
1E01C0
7F81C0
000380
000300
3C0600
E30C00
C0F000
ENDCHAR
STARTCHAR 03E7
ENCODING 999
SWIDTH 458 0
DWIDTH 11 0
BBX 12 11 -1 0
BITMAP
07D0
0FE0
11E0
10E0
11E0
0EE0
00E0
00C0
7180
FF00
9E00
ENDCHAR
STARTCHAR 03E8
ENCODING 1000
SWIDTH 583 0
DWIDTH 14 0
BBX 14 16 0 0
BITMAP
01F8
061C
0E1C
0C1C
0C1C
0038
0060
0180
0E00
3830
7038
7038
E038
E070
70E0
3F80
ENDCHAR
STARTCHAR 03E9
ENCODING 1001
SWIDTH 583 0
DWIDTH 14 0
BBX 14 16 0 0
BITMAP
01F8
061C
0E1C
0C1C
0C1C
0038
0060
0180
0E00
3800
7000
7000
F010
E020
F040
3F80
ENDCHAR
STARTCHAR 03EA
ENCODING 1002
SWIDTH 708 0
DWIDTH 17 0
BBX 18 16 0 0
BITMAP
0F83C0
1DC4C0
19E9C0
01F800
00F000
00E000
00F000
00F000
017000
027000
047800
0C7800
183800
3FF800
7FFC00
FFFC00
ENDCHAR
STARTCHAR 03EB
ENCODING 1003
SWIDTH 583 0
DWIDTH 14 0
BBX 13 11 1 0
BITMAP
7838
EED8
CE98
0F00
0600
0700
0F00
1700
2300
2380
7F80
ENDCHAR
STARTCHAR 03EC
ENCODING 1004
SWIDTH 750 0
DWIDTH 18 0
BBX 17 16 1 0
BITMAP
007F80
01FF00
070000
0CF800
1F0E00
380700
780700
700780
F00780
F00700
F00F00
F00F00
F00E00
701C00
383000
0FC000
ENDCHAR
STARTCHAR 03ED
ENCODING 1005
SWIDTH 541 0
DWIDTH 13 0
BBX 12 12 1 0
BITMAP
0010
07E0
1FC0
3000
6F00
E1C0
E1C0
C1C0
C1C0
E180
E300
7E00
ENDCHAR
STARTCHAR 03EE
ENCODING 1006
SWIDTH 458 0
DWIDTH 11 0
BBX 13 16 0 0
BITMAP
0FF0
03C0
0380
3FF8
6798
4798
4710
2F20
0F00
0E00
0E00
1E00
1E00
1C00
3C00
FF00
ENDCHAR
STARTCHAR 03EF
ENCODING 1007
SWIDTH 375 0
DWIDTH 9 0
BBX 11 16 0 0
BITMAP
0300
03E0
0380
0700
0700
3FE0
4E00
0E00
0E00
1C00
1C00
1C00
1C00
3800
F800
3800
ENDCHAR
STARTCHAR 03F0
ENCODING 1008
SWIDTH 583 0
DWIDTH 14 0
BBX 14 11 0 0
BITMAP
1C18
3C3C
4478
44F0
07E0
0FC0
1F80
7C88
F990
F1F0
E0E0
ENDCHAR
STARTCHAR 03F1
ENCODING 1009
SWIDTH 541 0
DWIDTH 13 0
BBX 12 16 0 -5
BITMAP
03C0
0C70
1830
3830
7070
7070
7070
F0E0
F0C0
B180
9E00
8000
C000
7F00
3F80
0080
ENDCHAR
STARTCHAR 03F2
ENCODING 1010
SWIDTH 458 0
DWIDTH 11 0
BBX 9 11 1 0
BITMAP
0F80
1800
3000
6000
E000
E000
E000
E000
E100
FE00
7800
ENDCHAR
STARTCHAR 03F3
ENCODING 1011
SWIDTH 291 0
DWIDTH 7 0
BBX 11 21 -4 -5
BITMAP
00E0
00E0
00E0
00E0
0000
01C0
01C0
01C0
0380
0380
0380
0380
0700
0700
0700
0700
0E00
0E00
4C00
FC00
7000
ENDCHAR
STARTCHAR 03F4
ENCODING 1012
SWIDTH 708 0
DWIDTH 17 0
BBX 16 16 1 0
BITMAP
00F8
030E
0E0E
1C0F
3C0F
380F
780F
7FFF
780F
F01E
F01E
F03C
7038
7070
38E0
1F80
ENDCHAR
STARTCHAR 03F5
ENCODING 1013
SWIDTH 416 0
DWIDTH 10 0
BBX 10 11 1 0
BITMAP
07C0
1C00
3800
7000
F000
FE00
E000
E000
E000
E000
7F00
ENDCHAR
STARTCHAR 03F6
ENCODING 1014
SWIDTH 416 0
DWIDTH 10 0
BBX 11 11 -1 0
BITMAP
1F80
01C0
01E0
01E0
01E0
1FC0
01C0
0380
0380
0600
F800
ENDCHAR
STARTCHAR 03F7
ENCODING 1015
SWIDTH 625 0
DWIDTH 15 0
BBX 15 16 -1 0
BITMAP
07F0
03C0
0380
03F8
039E
078E
070E
070E
0F1E
0E1E
0E3C
1FE0
1E00
1C00
3C00
FF00
ENDCHAR
STARTCHAR 03F8
ENCODING 1016
SWIDTH 500 0
DWIDTH 12 0
BBX 14 22 -3 -5
BITMAP
0020
03C0
01C0
01C0
0180
0380
03B8
03FC
079C
071C
071C
0E1C
0E1C
0E38
0E30
1C60
1FC0
1C00
3800
3800
3800
FC00
ENDCHAR
STARTCHAR 03F9
ENCODING 1017
SWIDTH 666 0
DWIDTH 16 0
BBX 15 16 2 0
BITMAP
01F8
0704
1E02
3C00
7800
7800
F000
F000
F000
E000
E000
E000
F000
7010
3860
1F80
ENDCHAR
STARTCHAR 03FA
ENCODING 1018
SWIDTH 875 0
DWIDTH 21 0
BBX 24 16 -1 0
BITMAP
0FC03F
03C07C
03E0FC
03E0B8
02F138
047278
047C70
043870
0830F0
0800F0
0800E0
1001E0
1001E0
1001C0
3003C0
FC0FF0
ENDCHAR
STARTCHAR 03FB
ENCODING 1019
SWIDTH 666 0
DWIDTH 16 0
BBX 18 16 -2 -5
BITMAP
0F83C0
038780
078F00
079700
0B9700
0BAE00
09CE00
11CE00
119C00
111C00
117E00
200000
200000
200000
200000
F00000
ENDCHAR
STARTCHAR 03FC
ENCODING 1020
SWIDTH 500 0
DWIDTH 12 0
BBX 14 16 -3 -5
BITMAP
00F0
019C
030C
071C
071C
071C
0E1C
0E38
0E38
1C70
1FC0
1C00
3800
FF80
3800
7000
ENDCHAR
STARTCHAR 03FD
ENCODING 1021
SWIDTH 666 0
DWIDTH 16 0
BBX 15 16 1 0
BITMAP
03E0
0C78
101C
201E
001E
001E
001E
001E
001E
003C
003C
0078
0070
00E0
81C0
7E00
ENDCHAR
STARTCHAR 03FE
ENCODING 1022
SWIDTH 666 0
DWIDTH 16 0
BBX 15 16 2 0
BITMAP
01F8
0704
1E02
3C00
7800
7800
F0C0
F1E0
F1E0
E0C0
E000
E000
F000
7010
3860
1F80
ENDCHAR
STARTCHAR 03FF
ENCODING 1023
SWIDTH 666 0
DWIDTH 16 0
BBX 15 16 1 0
BITMAP
03E0
0C78
101C
201E
001E
001E
0E1E
0E1E
0E1E
0E3C
003C
0078
0070
00E0
81C0
7E00
ENDCHAR
STARTCHAR 0400
ENCODING 1024
SWIDTH 666 0
DWIDTH 16 0
BBX 16 22 0 0
BITMAP
00F0
0070
0030
0010
0018
0000
0FFF
0783
0781
0700
0F00
0F08
0E10
0FF0
1E30
1E10
1C00
3C00
3C04
380C
7838
FFF8
ENDCHAR
STARTCHAR 0401
ENCODING 1025
SWIDTH 666 0
DWIDTH 16 0
BBX 16 21 0 0
BITMAP
00CC
01EE
00CE
0000
0000
0FFF
0783
0781
0700
0F00
0F08
0E10
0FF0
1E30
1E10
1C00
3C00
3C04
380C
7838
FFF8
ENDCHAR
STARTCHAR 0402
ENCODING 1026
SWIDTH 833 0
DWIDTH 20 0
BBX 17 16 2 0
BITMAP
3FFE00
638600
478400
078000
070000
073E00
0F7F00
0F8780
0F0780
1E0780
1E0780
1C0700
1C0700
3C0E00
3C1E00
FE7800
ENDCHAR
STARTCHAR 0403
ENCODING 1027
SWIDTH 625 0
DWIDTH 15 0
BBX 17 22 -1 0
BITMAP
000F00
000E00
001C00
001800
001000
000000
07FF80
03C180
03C080
038000
078000
078000
070000
0F0000
0F0000
0F0000
0E0000
1E0000
1E0000
1C0000
3C0000
FF0000
ENDCHAR
STARTCHAR 0404
ENCODING 1028
SWIDTH 666 0
DWIDTH 16 0
BBX 17 16 1 0
BITMAP
007F80
01C300
070100
0E0000
1E0000
3C0000
380000
7FE000
700000
F00000
F00000
F00000
F00000
F01000
78E000
1F0000
ENDCHAR
STARTCHAR 0405
ENCODING 1029
SWIDTH 541 0
DWIDTH 13 0
BBX 14 16 0 0
BITMAP
03FC
0E1C
0E08
1E08
1E08
1F00
0F80
07C0
07C0
03E0
01E0
40F0
C0E0
C0E0
E1C0
FF80
ENDCHAR
STARTCHAR 0406
ENCODING 1030
SWIDTH 375 0
DWIDTH 9 0
BBX 12 16 -1 0
BITMAP
0FF0
03C0
03C0
0380
0780
0780
0700
0700
0F00
0F00
0E00
1E00
1E00
1C00
3C00
FF00
ENDCHAR
STARTCHAR 0407
ENCODING 1031
SWIDTH 375 0
DWIDTH 9 0
BBX 13 21 -1 0
BITMAP
0330
0738
0330
0000
0000
0FF0
03C0
03C0
0380
0780
0780
0700
0700
0F00
0F00
0E00
1E00
1E00
1C00
3C00
FF00
ENDCHAR
STARTCHAR 0408
ENCODING 1032
SWIDTH 500 0
DWIDTH 12 0
BBX 14 16 0 0
BITMAP
03FC
00F0
00F0
00E0
00E0
01E0
01E0
01C0
03C0
03C0
0380
0780
E780
E700
CE00
7C00
ENDCHAR
STARTCHAR 0409
ENCODING 1033
SWIDTH 916 0
DWIDTH 22 0
BBX 21 16 -1 0
BITMAP
03FFE0
008780
008700
008F00
010F00
010E00
011E00
021FC0
021C70
021C38
043C38
043838
043878
C87878
F078F0
E1FFC0
ENDCHAR
STARTCHAR 040A
ENCODING 1034
SWIDTH 958 0
DWIDTH 23 0
BBX 23 16 -1 0
BITMAP
0FE7F0
03C3C0
03C3C0
038380
078380
078780
070780
07FFF0
0F0F3C
0E0F1E
0E0E1E
1E0E1E
1E1E1E
1C1E3C
3C3C78
FE7FF0
ENDCHAR
STARTCHAR 040B
ENCODING 1035
SWIDTH 791 0
DWIDTH 19 0
BBX 16 16 2 0
BITMAP
3FFC
638C
4784
0780
0700
071E
0F7F
0F8F
0F0F
1E0F
1E0E
1C0E
1C1E
3C1E
3C3C
FE7F
ENDCHAR
STARTCHAR 040C
ENCODING 1036
SWIDTH 666 0
DWIDTH 16 0
BBX 18 21 0 0
BITMAP
000E00
001C00
001800
001000
000000
1FC380
0787C0
078980
070800
0F1000
0F1000
0E2000
0FC000
1FE000
1CE000
1CF000
3C7000
3C7000
387800
787800
FE3E00
ENDCHAR
STARTCHAR 040D
ENCODING 1037
SWIDTH 791 0
DWIDTH 19 0
BBX 21 22 -1 0
BITMAP
007800
003800
001800
000800
000C00
000000
0FF3F8
03C1E0
03C1E0
0383E0
0783C0
0787C0
070BC0
071380
0F2380
0F4780
0E8780
1F0700
1E0F00
1C0F00
3C1F00
FF3F80
ENDCHAR
STARTCHAR 040E
ENCODING 1038
SWIDTH 708 0
DWIDTH 17 0
BBX 17 21 2 1
BITMAP
030C00
031800
01F000
000000
000000
7F0F80
3E0600
1E0400
1E0400
0E0800
0E1000
0F1000
072000
076000
07C000
078000
038000
430000
E20000
760000
3C0000
ENDCHAR
STARTCHAR 040F
ENCODING 1039
SWIDTH 791 0
DWIDTH 19 0
BBX 22 21 -1 -5
BITMAP
0FF3FC
03C1E0
03C1E0
0381E0
0781C0
0783C0
0703C0
070380
0F0380
0F0780
0E0780
1E0700
1E0F00
1C0F00
3C0F00
FFFF80
03C000
018000
010000
010000
010000
ENDCHAR
STARTCHAR 0410
ENCODING 1040
SWIDTH 666 0
DWIDTH 16 0
BBX 15 16 -1 0
BITMAP
0002
0006
000C
001C
003C
007C
00DC
009C
011C
021C
07FC
081C
101C
101C
203C
F07E
ENDCHAR
STARTCHAR 0411
ENCODING 1041
SWIDTH 625 0
DWIDTH 15 0
BBX 15 16 1 0
BITMAP
1FFE
0F0C
0E04
0E04
1E00
1E00
1C00
1FC0
3CF0
3870
3878
7878
7878
70F0
71E0
FFC0
ENDCHAR
STARTCHAR 0412
ENCODING 1042
SWIDTH 666 0
DWIDTH 16 0
BBX 14 16 1 0
BITMAP
1FF8
0F3C
0F1C
0E1C
0E1C
1E3C
1E70
1F80
1C70
3C78
3838
3878
7878
7078
70F0
FFC0
ENDCHAR
STARTCHAR 0413
ENCODING 1043
SWIDTH 625 0
DWIDTH 15 0
BBX 17 16 -1 0
BITMAP
07FF80
03C180
03C080
038000
078000
078000
070000
0F0000
0F0000
0F0000
0E0000
1E0000
1E0000
1C0000
3C0000
FF0000
ENDCHAR
STARTCHAR 0414
ENCODING 1044
SWIDTH 666 0
DWIDTH 16 0
BBX 21 21 -3 -5
BITMAP
00FFF8
0021E0
0021E0
0021C0
0043C0
0043C0
0043C0
008380
008780
010780
010700
020F00
020F00
040E00
081E00
3FFF00
700380
600180
400100
800100
800100
ENDCHAR
STARTCHAR 0415
ENCODING 1045
SWIDTH 666 0
DWIDTH 16 0
BBX 16 16 0 0
BITMAP
0FFF
0783
0781
0700
0F00
0F08
0E10
0FF0
1E30
1E10
1C00
3C00
3C04
380C
7838
FFF8
ENDCHAR
STARTCHAR 0416
ENCODING 1046
SWIDTH 916 0
DWIDTH 22 0
BBX 24 16 -1 0
BITMAP
071FC7
07878F
068F13
008F10
008E20
008E20
009E60
00DEC0
01FFC0
07DDC0
07BDE0
0F3CE0
1E38E0
3C78F0
7C78F0
F9FC78
ENDCHAR
STARTCHAR 0417
ENCODING 1047
SWIDTH 500 0
DWIDTH 12 0
BBX 12 16 0 0
BITMAP
0FE0
0870
1070
1070
00F0
00E0
01C0
0F00
03C0
01E0
01E0
01E0
01E0
83C0
4780
3E00
ENDCHAR
STARTCHAR 0418
ENCODING 1048
SWIDTH 791 0
DWIDTH 19 0
BBX 21 16 -1 0
BITMAP
0FF3F8
03C1E0
03C1E0
0383E0
0783C0
0787C0
070BC0
071380
0F2380
0F4780
0E8780
1F0700
1E0F00
1C0F00
3C1F00
FF3F80
ENDCHAR
STARTCHAR 0419
ENCODING 1049
SWIDTH 791 0
DWIDTH 19 0
BBX 21 21 -1 0
BITMAP
0030C0
0038C0
000F80
000000
000000
0FF3F8
03C1E0
03C1E0
0383E0
0783C0
0787C0
070BC0
071380
0F2380
0F4780
0E8780
1F0700
1E0F00
1C0F00
3C1F00
FF3F80
ENDCHAR
STARTCHAR 041A
ENCODING 1050
SWIDTH 666 0
DWIDTH 16 0
BBX 18 16 0 0
BITMAP
1FC380
0787C0
078980
070800
0F1000
0F1000
0E2000
0FC000
1FE000
1CE000
1CF000
3C7000
3C7000
387800
787800
FE3E00
ENDCHAR
STARTCHAR 041B
ENCODING 1051
SWIDTH 666 0
DWIDTH 16 0
BBX 19 16 -1 0
BITMAP
03FFE0
008780
008780
010700
010700
010F00
010F00
020E00
021E00
021E00
041C00
043C00
043C00
C83800
F07800
E1FE00
ENDCHAR
STARTCHAR 041C
ENCODING 1052
SWIDTH 875 0
DWIDTH 21 0
BBX 24 16 -1 0
BITMAP
0FC03F
03C03C
03C07C
03C0F8
05E0B8
05E178
05E370
04E270
08E4F0
08E8F0
08F8E0
10F1E0
10E1E0
10E1C0
30C3C0
FC8FF0
ENDCHAR
STARTCHAR 041D
ENCODING 1053
SWIDTH 791 0
DWIDTH 19 0
BBX 22 16 -1 0
BITMAP
0FF3FC
03C1F0
03C1E0
0381E0
0781C0
0783C0
0703C0
07FF80
0F0780
0E0780
0E0780
1E0700
1E0F00
1C0F00
3C0F00
FF3F80
ENDCHAR
STARTCHAR 041E
ENCODING 1054
SWIDTH 708 0
DWIDTH 17 0
BBX 16 16 1 0
BITMAP
00F8
030E
0E0E
1E0F
3C0F
3C0F
780F
780F
780F
F01E
F01E
F03C
7038
7070
38E0
1F80
ENDCHAR
STARTCHAR 041F
ENCODING 1055
SWIDTH 791 0
DWIDTH 19 0
BBX 22 16 -1 0
BITMAP
0FFFFC
03C0F0
03C1E0
0381E0
0781C0
0783C0
0703C0
070380
0F0380
0F0780
0E0780
1E0700
1E0F00
1C0F00
3C0F00
FF3F80
ENDCHAR
STARTCHAR 0420
ENCODING 1056
SWIDTH 625 0
DWIDTH 15 0
BBX 16 16 -1 0
BITMAP
07FC
03CF
03C7
0387
0387
078F
078F
071E
0FF8
0F00
0E00
1E00
1E00
1C00
3C00
FF00
ENDCHAR
STARTCHAR 0421
ENCODING 1057
SWIDTH 666 0
DWIDTH 16 0
BBX 15 16 2 0
BITMAP
01FE
0706
1E06
3C00
7800
7800
F000
F000
F000
E000
E000
E000
F000
7030
3840
1F80
ENDCHAR
STARTCHAR 0422
ENCODING 1058
SWIDTH 625 0
DWIDTH 15 0
BBX 14 16 2 0
BITMAP
3FFC
63CC
4384
0384
0780
0780
0700
0F00
0F00
0E00
1E00
1E00
1C00
1C00
3C00
FF00
ENDCHAR
STARTCHAR 0423
ENCODING 1059
SWIDTH 708 0
DWIDTH 17 0
BBX 17 16 2 0
BITMAP
7F0F80
3E0600
1E0400
1E0400
0E0800
0E1000
0F1000
072000
076000
07C000
078000
038000
430000
E20000
760000
3C0000
ENDCHAR
STARTCHAR 0424
ENCODING 1060
SWIDTH 833 0
DWIDTH 20 0
BBX 18 16 2 0
BITMAP
01FE00
007800
03FE00
1CF380
38F180
78E1C0
F1E1C0
F1E3C0
E1C3C0
E1C380
E3C780
E3C700
738C00
1FE000
078000
1FE000
ENDCHAR
STARTCHAR 0425
ENCODING 1061
SWIDTH 666 0
DWIDTH 16 0
BBX 19 16 -1 0
BITMAP
1FC3E0
078180
078100
03C200
03C400
01E800
01F000
00E000
00F000
01F000
037800
047800
083C00
103C00
301E00
F87F00
ENDCHAR
STARTCHAR 0426
ENCODING 1062
SWIDTH 791 0
DWIDTH 19 0
BBX 21 21 0 -5
BITMAP
1FE7F8
0783E0
0783C0
0703C0
0F0380
0F0780
0E0780
0E0780
1E0700
1E0F00
1C0F00
3C0E00
3C1E00
381E00
781E00
7FFE00
800700
000300
000200
000200
000200
ENDCHAR
STARTCHAR 0427
ENCODING 1063
SWIDTH 750 0
DWIDTH 18 0
BBX 17 16 3 0
BITMAP
FE7F80
781E00
781C00
783C00
703C00
F03800
F03800
F07800
F0F000
7F7000
00F000
00F000
00E000
01E000
01E000
07F800
ENDCHAR
STARTCHAR 0428
ENCODING 1064
SWIDTH 1125 0
DWIDTH 27 0
BBX 29 16 0 0
BITMAP
1FE7E3F8
0783C1E0
078381C0
070383C0
0F0783C0
0F078380
0E070380
0E0F0780
1E0F0780
1E0E0700
1C0E0F00
3C1E0F00
3C1E0E00
381C1E00
783C1E00
FFFFFF00
ENDCHAR
STARTCHAR 0429
ENCODING 1065
SWIDTH 1125 0
DWIDTH 27 0
BBX 29 20 0 -5
BITMAP
1FE7E3F8
0783C1E0
078381C0
070383C0
0F0783C0
0F078380
0E070380
0E0F0780
1E0F0780
1E0E0700
1C0E0F00
3C1E0F00
3C1E0E00
381C1E00
783C1E00
FFFFFF00
00000300
00000100
00000100
00000100
ENDCHAR
STARTCHAR 042A
ENCODING 1066
SWIDTH 750 0
DWIDTH 18 0
BBX 14 16 3 0
BITMAP
7FE0
E780
8780
0700
0F00
0F00
0E00
0FE0
1E78
1C38
1C3C
3C3C
3C3C
3878
78F0
FFE0
ENDCHAR
STARTCHAR 042B
ENCODING 1067
SWIDTH 958 0
DWIDTH 23 0
BBX 25 16 0 0
BITMAP
1FE07F80
07801E00
07801C00
07001C00
0F003C00
0F003C00
0E003800
0FE07800
1E787800
1C387000
1C3C7000
3C3CF000
3C3CF000
3878E000
78F1E000
FFE7F800
ENDCHAR
STARTCHAR 042C
ENCODING 1068
SWIDTH 625 0
DWIDTH 15 0
BBX 14 16 0 0
BITMAP
1FE0
0780
0780
0700
0F00
0F00
0E00
0FE0
1E78
1C38
1C3C
3C3C
3C3C
3878
78F0
FFE0
ENDCHAR
STARTCHAR 042D
ENCODING 1069
SWIDTH 666 0
DWIDTH 16 0
BBX 15 16 0 0
BITMAP
0FF0
0C38
181C
101E
001E
001E
001E
07FE
001E
001E
003C
003C
8078
40F0
31E0
1F80
ENDCHAR
STARTCHAR 042E
ENCODING 1070
SWIDTH 1041 0
DWIDTH 25 0
BBX 26 16 -1 0
BITMAP
0FF03E00
03C0C380
03C38380
038781C0
078F03C0
078F03C0
071E03C0
07FE03C0
0F3E03C0
0E3C0780
0E3C0780
1E3C0F00
1E1C0E00
1C1C1C00
3C0E3800
FF07E000
ENDCHAR
STARTCHAR 042F
ENCODING 1071
SWIDTH 708 0
DWIDTH 17 0
BBX 19 16 -1 0
BITMAP
00FFE0
03C780
078780
078700
070F00
078F00
038F00
00FE00
03DE00
079E00
0F1C00
1F3C00
1E3C00
3C3C00
783800
F8FE00
ENDCHAR
STARTCHAR 0430
ENCODING 1072
SWIDTH 500 0
DWIDTH 12 0
BBX 11 11 0 0
BITMAP
0760
0CE0
18E0
38C0
71C0
71C0
73C0
F380
F7A0
7BC0
7380
ENDCHAR
STARTCHAR 0431
ENCODING 1073
SWIDTH 500 0
DWIDTH 12 0
BBX 11 16 1 0
BITMAP
03E0
0FE0
1F80
1800
2000
2780
59C0
71C0
71C0
F1C0
E1C0
E380
E380
E700
E600
7800
ENDCHAR
STARTCHAR 0432
ENCODING 1074
SWIDTH 458 0
DWIDTH 11 0
BBX 9 11 1 0
BITMAP
0F80
1980
3180
7300
F600
FE00
E700
E700
C700
CE00
7C00
ENDCHAR
STARTCHAR 0433
ENCODING 1075
SWIDTH 375 0
DWIDTH 9 0
BBX 9 11 0 0
BITMAP
0F00
3380
0380
0300
0600
1800
7000
E000
E000
E000
7E00
ENDCHAR
STARTCHAR 0434
ENCODING 1076
SWIDTH 500 0
DWIDTH 12 0
BBX 10 16 1 1
BITMAP
0400
0300
0180
0180
01C0
0FC0
19C0
31C0
71C0
E1C0
E1C0
E380
E380
C300
E600
7800
ENDCHAR
STARTCHAR 0435
ENCODING 1077
SWIDTH 458 0
DWIDTH 11 0
BBX 10 11 1 0
BITMAP
0780
19C0
3180
7380
E700
FC00
E000
E000
E100
FE00
7800
ENDCHAR
STARTCHAR 0436
ENCODING 1078
SWIDTH 958 0
DWIDTH 23 0
BBX 23 11 0 0
BITMAP
0E1C1C
3F1C66
471CEE
0738CC
0739C0
07FF80
073980
667380
EC71C0
CC71F8
F060E0
ENDCHAR
STARTCHAR 0437
ENCODING 1079
SWIDTH 375 0
DWIDTH 9 0
BBX 9 11 0 0
BITMAP
3F00
6380
4380
0700
1C00
0600
0700
0700
0E00
9E00
7800
ENDCHAR
STARTCHAR 0438
ENCODING 1080
SWIDTH 541 0
DWIDTH 13 0
BBX 11 11 1 0
BITMAP
78E0
38E0
38E0
71C0
71C0
73C0
E5C0
E780
EBA0
F3C0
E380
ENDCHAR
STARTCHAR 0439
ENCODING 1081
SWIDTH 541 0
DWIDTH 13 0
BBX 11 16 1 0
BITMAP
0C20
0E40
0780
0000
0000
78E0
38E0
38E0
71C0
71C0
73C0
E5C0
E780
EBA0
F3C0
E380
ENDCHAR
STARTCHAR 043A
ENCODING 1082
SWIDTH 500 0
DWIDTH 12 0
BBX 12 11 0 0
BITMAP
1C30
1C70
1C80
3880
3900
3E00
3B00
7380
7180
71C0
E0E0
ENDCHAR
STARTCHAR 043B
ENCODING 1083
SWIDTH 500 0
DWIDTH 12 0
BBX 12 11 -1 0
BITMAP
0FF0
0470
0470
08E0
08E0
08E0
08E0
11C0
D1D0
E1E0
E1C0
ENDCHAR
STARTCHAR 043C
ENCODING 1084
SWIDTH 666 0
DWIDTH 16 0
BBX 16 11 -1 0
BITMAP
0F87
0787
078F
0B97
0BAE
0BAE
13CE
139C
D39D
E11E
E01C
ENDCHAR
STARTCHAR 043D
ENCODING 1085
SWIDTH 541 0
DWIDTH 13 0
BBX 12 11 0 0
BITMAP
3C70
1C70
1C70
3860
38E0
3FE0
38E0
71C0
71D0
71E0
E1C0
ENDCHAR
STARTCHAR 043E
ENCODING 1086
SWIDTH 500 0
DWIDTH 12 0
BBX 10 11 1 0
BITMAP
0780
19C0
31C0
71C0
F1C0
E1C0
E380
E380
E700
E600
7800
ENDCHAR
STARTCHAR 043F
ENCODING 1087
SWIDTH 541 0
DWIDTH 13 0
BBX 12 11 0 0
BITMAP
1C70
1CF0
1D70
3A70
3CE0
38E0
38E0
71C0
71D0
71E0
E1C0
ENDCHAR
STARTCHAR 0440
ENCODING 1088
SWIDTH 500 0
DWIDTH 12 0
BBX 14 16 -3 -5
BITMAP
07B8
0FFC
079C
071C
071C
061C
0E1C
0E38
0E30
1C60
1FC0
1C00
3800
3800
3800
FC00
ENDCHAR
STARTCHAR 0441
ENCODING 1089
SWIDTH 458 0
DWIDTH 11 0
BBX 9 11 1 0
BITMAP
0780
1880
3180
6180
E000
E000
E000
E000
E100
FE00
7800
ENDCHAR
STARTCHAR 0442
ENCODING 1090
SWIDTH 791 0
DWIDTH 19 0
BBX 17 11 0 0
BITMAP
1C6380
1DF780
1DEB80
3AF380
3CF380
38E700
39C700
71C700
71CE00
738F80
E38600
ENDCHAR
STARTCHAR 0443
ENCODING 1091
SWIDTH 458 0
DWIDTH 11 0
BBX 13 16 -2 -5
BITMAP
0E30
1E38
0E38
0E10
0E10
0620
0640
0740
0780
0700
0700
0600
0400
C800
F000
E000
ENDCHAR
STARTCHAR 0444
ENCODING 1092
SWIDTH 708 0
DWIDTH 17 0
BBX 15 21 1 -5
BITMAP
00F0
00F0
00E0
00E0
00E0
0FDC
39E6
71C6
71CE
E38E
E38E
E38E
E71C
C71C
CF38
77E0
0E00
0E00
0E00
1E00
3F00
ENDCHAR
STARTCHAR 0445
ENCODING 1093
SWIDTH 500 0
DWIDTH 12 0
BBX 13 11 -1 0
BITMAP
1C38
2E78
0E78
0780
0700
0700
0780
0B80
CB90
F1E0
E1C0
ENDCHAR
STARTCHAR 0446
ENCODING 1094
SWIDTH 541 0
DWIDTH 13 0
BBX 11 15 1 -5
BITMAP
78E0
38E0
38E0
71C0
71C0
73C0
E5C0
E780
EBA0
F3C0
E3C0
00C0
00C0
00C0
0080
ENDCHAR
STARTCHAR 0447
ENCODING 1095
SWIDTH 541 0
DWIDTH 13 0
BBX 11 11 1 0
BITMAP
78E0
71C0
71C0
71C0
7380
F380
7F80
0380
0740
0780
0300
ENDCHAR
STARTCHAR 0448
ENCODING 1096
SWIDTH 833 0
DWIDTH 20 0
BBX 18 11 1 0
BITMAP
7871C0
38E1C0
38E380
70E380
71C380
71C780
E3CF00
E5D700
EBE700
F3E780
E18700
ENDCHAR
STARTCHAR 0449
ENCODING 1097
SWIDTH 833 0
DWIDTH 20 0
BBX 18 15 1 -5
BITMAP
7871C0
38E1C0
38E380
70E380
71C380
71C780
E3CF00
E5D700
EBE700
F3E780
E18700
000100
000180
000180
000100
ENDCHAR
STARTCHAR 044A
ENCODING 1098
SWIDTH 541 0
DWIDTH 13 0
BBX 10 11 1 0
BITMAP
FE00
9C00
9C00
1C00
1F80
3CC0
39C0
39C0
31C0
3380
1F00
ENDCHAR
STARTCHAR 044B
ENCODING 1099
SWIDTH 708 0
DWIDTH 17 0
BBX 15 11 1 0
BITMAP
381E
381C
381C
701C
7718
7BB8
F3B8
E3B8
E774
E678
7C30
ENDCHAR
STARTCHAR 044C
ENCODING 1100
SWIDTH 458 0
DWIDTH 11 0
BBX 9 11 1 0
BITMAP
3800
3800
3800
7000
7700
7B80
F380
E380
E700
E600
7C00
ENDCHAR
STARTCHAR 044D
ENCODING 1101
SWIDTH 416 0
DWIDTH 10 0
BBX 9 11 0 0
BITMAP
3E00
2300
0380
0380
0380
1F80
0700
0700
0E00
9C00
7800
ENDCHAR
STARTCHAR 044E
ENCODING 1102
SWIDTH 750 0
DWIDTH 18 0
BBX 17 11 0 0
BITMAP
1C1E00
3C7300
1CE380
38C380
39C780
3FC700
3B8700
738600
738E00
739C00
E0F000
ENDCHAR
STARTCHAR 044F
ENCODING 1103
SWIDTH 500 0
DWIDTH 12 0
BBX 12 11 -1 0
BITMAP
07F0
0E70
1C70
1C60
1CE0
0FE0
0EE0
1DC0
39D0
79E0
F1C0
ENDCHAR
STARTCHAR 0450
ENCODING 1104
SWIDTH 458 0
DWIDTH 11 0
BBX 10 16 1 0
BITMAP
0E00
0700
0300
0100
0000
0780
19C0
3180
7380
E700
FC00
E000
E000
E100
FE00
7800
ENDCHAR
STARTCHAR 0451
ENCODING 1105
SWIDTH 458 0
DWIDTH 11 0
BBX 11 16 1 0
BITMAP
0CC0
1CE0
0CC0
0000
0000
0780
19C0
3180
7380
E700
FC00
E000
E000
E100
FE00
7800
ENDCHAR
STARTCHAR 0452
ENCODING 1106
SWIDTH 541 0
DWIDTH 13 0
BBX 12 21 0 -6
BITMAP
0F00
0E00
1FE0
0E00
1C00
1C60
1CF0
1DF0
3A70
3CE0
38E0
38E0
71C0
71C0
71C0
E380
0300
0300
0600
0C00
1800
ENDCHAR
STARTCHAR 0453
ENCODING 1107
SWIDTH 375 0
DWIDTH 9 0
BBX 10 16 0 0
BITMAP
01C0
0180
0300
0200
0000
3FC0
1C40
1C40
3800
3800
3800
7000
7000
7000
7000
F000
ENDCHAR
STARTCHAR 0454
ENCODING 1108
SWIDTH 416 0
DWIDTH 10 0
BBX 10 11 1 0
BITMAP
0FC0
1880
3080
7000
F000
FC00
E000
E000
E000
E000
7C00
ENDCHAR
STARTCHAR 0455
ENCODING 1109
SWIDTH 375 0
DWIDTH 9 0
BBX 9 11 0 0
BITMAP
1F80
3180
3080
3800
3C00
1E00
0F00
8700
C700
C600
FC00
ENDCHAR
STARTCHAR 0456
ENCODING 1110
SWIDTH 291 0
DWIDTH 7 0
BBX 7 16 0 0
BITMAP
0C
0E
0E
0E
00
3C
3C
38
38
38
30
70
70
78
F8
70
ENDCHAR
STARTCHAR 0457
ENCODING 1111
SWIDTH 291 0
DWIDTH 7 0
BBX 8 16 1 0
BITMAP
66
E7
66
00
00
78
78
70
70
70
70
E0
E0
F0
F0
E0
ENDCHAR
STARTCHAR 0458
ENCODING 1112
SWIDTH 291 0
DWIDTH 7 0
BBX 11 21 -4 -5
BITMAP
00E0
00E0
00E0
00E0
0000
01C0
01C0
01C0
0380
0380
0380
0380
0700
0700
0700
0700
0E00
0E00
4C00
FC00
7000
ENDCHAR
STARTCHAR 0459
ENCODING 1113
SWIDTH 666 0
DWIDTH 16 0
BBX 16 11 -1 0
BITMAP
00F0
0170
02E0
04E0
08EE
08F6
09C7
11CE
D1CE
E19C
C0F8
ENDCHAR
STARTCHAR 045A
ENCODING 1114
SWIDTH 708 0
DWIDTH 17 0
BBX 16 11 0 0
BITMAP
1C70
1C70
1C70
3860
38EE
3FF7
38E7
71C7
71CE
71CC
E0F8
ENDCHAR
STARTCHAR 045B
ENCODING 1115
SWIDTH 541 0
DWIDTH 13 0
BBX 12 16 0 0
BITMAP
1F00
0E00
1FE0
0E00
0C00
1C70
1CF0
1D70
3A70
3CE0
38E0
38E0
71C0
71D0
71E0
E1C0
ENDCHAR
STARTCHAR 045C
ENCODING 1116
SWIDTH 500 0
DWIDTH 12 0
BBX 12 16 0 0
BITMAP
00F0
00E0
00C0
0100
0000
1C30
1C70
1C80
3880
3900
3E00
3B00
7380
7180
71C0
E0E0
ENDCHAR
STARTCHAR 045D
ENCODING 1117
SWIDTH 541 0
DWIDTH 13 0
BBX 11 16 1 0
BITMAP
0E00
0700
0300
0100
0000
78E0
38E0
38E0
71C0
71C0
73C0
E5C0
E780
EBA0
F3C0
E380
ENDCHAR
STARTCHAR 045E
ENCODING 1118
SWIDTH 458 0
DWIDTH 11 0
BBX 13 21 -2 -5
BITMAP
0308
0390
01E0
0000
0000
0E30
1E38
0E30
0E10
0E10
0E20
0640
0740
0780
0700
0700
0600
0400
C800
F000
E000
ENDCHAR
STARTCHAR 045F
ENCODING 1119
SWIDTH 541 0
DWIDTH 13 0
BBX 11 15 1 -5
BITMAP
78E0
38E0
38E0
71C0
71C0
73C0
E5C0
E780
EBA0
F3C0
E380
4000
C000
C000
C000
ENDCHAR
STARTCHAR 0460
ENCODING 1120
SWIDTH 1125 0
DWIDTH 27 0
BBX 26 16 1 0
BITMAP
01F87E00
061CC700
0C1CC380
1C0003C0
380001C0
780001C0
700001C0
703F83C0
F01E03C0
F01E03C0
F01C0380
F01C0380
703C0700
783C0E00
387C1C00
0FC7E000
ENDCHAR
STARTCHAR 0461
ENCODING 1121
SWIDTH 583 0
DWIDTH 14 0
BBX 13 11 1 0
BITMAP
E398
E398
E398
E390
E790
EBA0
F3C0
73C0
6180
4100
4100
ENDCHAR
STARTCHAR 0462
ENCODING 1122
SWIDTH 625 0
DWIDTH 15 0
BBX 14 16 1 0
BITMAP
1FE0
0780
7FF8
4718
8F10
0F10
0E00
1FE0
1E78
1C38
1C3C
3C3C
3C3C
3878
78F0
FFE0
ENDCHAR
STARTCHAR 0463
ENCODING 1123
SWIDTH 666 0
DWIDTH 16 0
BBX 15 11 0 0
BITMAP
3CF0
1DF0
1E20
3C60
38DC
39EE
39CE
73CE
738E
719C
E0F0
ENDCHAR
STARTCHAR 0464
ENCODING 1124
SWIDTH 1000 0
DWIDTH 24 0
BBX 27 16 -1 0
BITMAP
0FF01FE0
03C07040
03C1E040
0383C040
03878000
078F0000
070F0000
07FFF800
0F1E0000
0F3C0000
0E3C0000
1E3C0000
1E3C0000
1C1C0400
3C0E1800
FF07E000
ENDCHAR
STARTCHAR 0465
ENCODING 1125
SWIDTH 666 0
DWIDTH 16 0
BBX 18 11 -1 0
BITMAP
1F8FC0
0E18C0
0E3880
1E7000
1C7000
1FFE00
1CE000
38E000
38E000
38E200
FC7C00
ENDCHAR
STARTCHAR 0466
ENCODING 1126
SWIDTH 666 0
DWIDTH 16 0
BBX 15 16 -1 0
BITMAP
0002
0004
000C
001C
003C
005C
009C
019C
013C
035C
059C
099C
111C
233C
633C
F73E
ENDCHAR
STARTCHAR 0467
ENCODING 1127
SWIDTH 583 0
DWIDTH 14 0
BBX 15 11 -2 0
BITMAP
0020
0060
00F0
0170
0270
0670
0AB8
0B38
1338
2338
EF7E
ENDCHAR
STARTCHAR 0468
ENCODING 1128
SWIDTH 1041 0
DWIDTH 25 0
BBX 23 16 0 0
BITMAP
1FE002
078006
07800C
07001C
07003C
0F005C
0F009C
0E011C
1FFF3C
1E07DC
1C059C
1C099C
3C111C
3C233C
38633C
FEF73E
ENDCHAR
STARTCHAR 0469
ENCODING 1129
SWIDTH 875 0
DWIDTH 21 0
BBX 21 11 -1 0
BITMAP
1F8080
0E01C0
0E03C0
1E05C0
1C09C0
1FF9E0
1C1AE0
3824E0
384CE0
388C70
FDDEF8
ENDCHAR
STARTCHAR 046A
ENCODING 1130
SWIDTH 916 0
DWIDTH 22 0
BBX 23 16 -2 0
BITMAP
00FFFE
007804
007808
003810
003C20
001C40
001E80
007FC0
03CEF0
079E70
0F1E78
0F1C78
1E3C78
3E3C78
3C3C38
F8FE3C
ENDCHAR
STARTCHAR 046B
ENCODING 1131
SWIDTH 666 0
DWIDTH 16 0
BBX 17 11 -2 0
BITMAP
01FF80
01C100
00E200
00E400
007800
03FE00
0F7700
1EE700
1CE700
38E700
FBF780
ENDCHAR
STARTCHAR 046C
ENCODING 1132
SWIDTH 1333 0
DWIDTH 32 0
BBX 32 16 -1 0
BITMAP
0FF07FFF
03C03802
03C03C04
03801C08
03801E10
07800E60
07000F80
07FFFFE0
0F01EF70
0F03CF38
0E078E38
1E0F1E38
1E0F1E3C
1C1E1C3C
3C3E3C3C
FF7CFE3E
ENDCHAR
STARTCHAR 046D
ENCODING 1133
SWIDTH 1000 0
DWIDTH 24 0
BBX 24 11 -1 0
BITMAP
1F87FE
0E0704
0E0388
1C0390
1C01E0
1FFFF8
1C1DDC
3839DC
38739C
38F39E
FDEFDF
ENDCHAR
STARTCHAR 046E
ENCODING 1134
SWIDTH 500 0
DWIDTH 12 0
BBX 14 25 -2 -5
BITMAP
00E4
00C8
0050
0050
03F8
021C
041C
041C
001C
0038
0070
03C0
00F0
0078
0078
0078
0078
0070
00E0
1FC0
7000
E000
E0E0
E370
7C20
ENDCHAR
STARTCHAR 046F
ENCODING 1135
SWIDTH 375 0
DWIDTH 9 0
BBX 12 19 -2 -5
BITMAP
0730
0640
0280
0DC0
10E0
00E0
01C0
0700
0380
01C0
01C0
01C0
0380
3F00
E000
C000
C380
CF80
F180
ENDCHAR
STARTCHAR 0470
ENCODING 1136
SWIDTH 791 0
DWIDTH 19 0
BBX 19 16 2 0
BITMAP
F1FC60
78F1E0
78F1C0
78F3C0
38E3C0
39E780
39E780
39C700
39CE00
0FF000
038000
038000
078000
078000
0F0000
3FC000
ENDCHAR
STARTCHAR 0471
ENCODING 1137
SWIDTH 666 0
DWIDTH 16 0
BBX 16 16 1 -5
BITMAP
E187
718E
711C
731C
7338
7338
7678
7670
7670
74E0
3F80
0C00
0C00
1800
1800
1800
ENDCHAR
STARTCHAR 0472
ENCODING 1138
SWIDTH 708 0
DWIDTH 17 0
BBX 16 16 1 0
BITMAP
00F8
030E
0E0E
1C0F
3C0F
380F
7F0F
79CF
70FF
F01E
F01E
F03C
7038
7070
38E0
1F80
ENDCHAR
STARTCHAR 0473
ENCODING 1139
SWIDTH 500 0
DWIDTH 12 0
BBX 10 11 1 0
BITMAP
0780
19C0
31C0
71C0
F9C0
EFC0
E380
E380
E300
E600
7800
ENDCHAR
STARTCHAR 0474
ENCODING 1140
SWIDTH 791 0
DWIDTH 19 0
BBX 17 16 3 0
BITMAP
FE0380
780780
780F80
781000
782000
786000
784000
788000
790000
720000
740000
780000
700000
700000
600000
400000
ENDCHAR
STARTCHAR 0475
ENCODING 1141
SWIDTH 541 0
DWIDTH 13 0
BBX 12 11 1 0
BITMAP
3070
F0F0
70E0
7100
3A00
3A00
3C00
3800
3000
3000
2000
ENDCHAR
STARTCHAR 0476
ENCODING 1142
SWIDTH 791 0
DWIDTH 19 0
BBX 17 22 3 0
BITMAP
036000
036000
012000
012000
000000
000000
FE0380
780780
780F80
781000
782000
786000
784000
788000
790000
720000
740000
780000
700000
700000
600000
400000
ENDCHAR
STARTCHAR 0477
ENCODING 1143
SWIDTH 541 0
DWIDTH 13 0
BBX 12 16 1 0
BITMAP
0D80
0D80
0580
0480
0000
3070
F0F0
70E0
7100
3A00
3A00
3C00
3800
3000
3000
2000
ENDCHAR
STARTCHAR 0478
ENCODING 1144
SWIDTH 1125 0
DWIDTH 27 0
BBX 26 21 1 -5
BITMAP
01F80000
071C0000
0E1E0000
1C1E0000
3C1E0000
381E7180
781EF1C0
781E71C0
F01E7080
F03C3080
F03C3100
F0383A00
70703A00
70603C00
38C03800
1F003800
00003000
00002000
00064000
00078000
00070000
ENDCHAR
STARTCHAR 0479
ENCODING 1145
SWIDTH 875 0
DWIDTH 21 0
BBX 20 16 1 -5
BITMAP
0F0C30
19BE70
31CE30
71CE10
E1CE20
E38E20
E38E40
E30E80
E70E80
E60F00
780E00
000E00
000C00
00C800
01F000
00C000
ENDCHAR
STARTCHAR 047A
ENCODING 1146
SWIDTH 833 0
DWIDTH 20 0
BBX 20 19 0 -1
BITMAP
001800
007C00
01FF80
0701C0
0E00E0
1C00F0
3C00F0
7800F0
7800F0
7000F0
F000E0
F001E0
F001C0
F003C0
700780
780E00
3D9C00
0FE000
018000
ENDCHAR
STARTCHAR 047B
ENCODING 1147
SWIDTH 583 0
DWIDTH 14 0
BBX 14 14 0 -2
BITMAP
01C0
03E0
0DF8
3818
701C
701C
E01C
E038
E038
E030
E070
7CC0
1F00
0C00
ENDCHAR
STARTCHAR 047C
ENCODING 1148
SWIDTH 1166 0
DWIDTH 28 0
BBX 27 24 1 0
BITMAP
0001E000
00063C00
000DCF80
0019C300
0001C000
0000C000
00008000
00030000
01F83F00
070C61C0
0E1C61C0
1C0001E0
3C0001E0
780001E0
780001E0
780001E0
F00001E0
F00003C0
F0000380
F0000780
70000F00
78001E00
38383800
0FEFE000
ENDCHAR
STARTCHAR 047D
ENCODING 1149
SWIDTH 791 0
DWIDTH 19 0
BBX 20 19 1 0
BITMAP
007E00
0083F0
0300E0
003800
003800
001800
006000
000000
0E0300
180180
300180
6001C0
E001C0
E00180
E00380
E00380
E10700
FEFE00
787800
ENDCHAR
STARTCHAR 047E
ENCODING 1150
SWIDTH 1125 0
DWIDTH 27 0
BBX 26 21 1 0
BITMAP
003FF800
003FF800
00111000
00000000
00000000
01F87E00
061CC700
0C1CC380
1C0003C0
380001C0
780001C0
700001C0
703F83C0
F01E03C0
F01E03C0
F01C0380
F01C0380
703C0700
783C0E00
387C1C00
0FC7E000
ENDCHAR
STARTCHAR 047F
ENCODING 1151
SWIDTH 583 0
DWIDTH 14 0
BBX 14 16 1 0
BITMAP
3FFC
1FF8
1088
0000
0000
E398
E398
E398
E390
E790
EBA0
F3C0
73C0
6180
4100
4100
ENDCHAR
STARTCHAR 0480
ENCODING 1152
SWIDTH 666 0
DWIDTH 16 0
BBX 15 21 2 -5
BITMAP
01FE
0706
1E06
3C00
7800
7800
F000
F000
F000
E000
E000
E000
F000
7000
7C80
1F00
0700
0F00
0F00
0E00
3F80
ENDCHAR
STARTCHAR 0481
ENCODING 1153
SWIDTH 458 0
DWIDTH 11 0
BBX 9 16 1 -5
BITMAP
0780
1880
3180
7180
E000
E000
E000
E000
E000
FC00
7800
3800
3800
3800
7000
F000
ENDCHAR
STARTCHAR 0482
ENCODING 1154
SWIDTH 416 0
DWIDTH 10 0
BBX 11 16 0 0
BITMAP
0020
0060
00C0
00C0
0D80
0F00
0380
66C0
3C40
0C00
1F00
1100
3000
6000
4000
C000
ENDCHAR
STARTCHAR 0483
ENCODING 1155
SWIDTH 0 0
DWIDTH 0 0
BBX 8 4 -1 12
BITMAP
06
07
FE
C0
ENDCHAR
STARTCHAR 0484
ENCODING 1156
SWIDTH 0 0
DWIDTH 0 0
BBX 8 3 -1 13
BITMAP
1E
FA
E1
ENDCHAR
STARTCHAR 0485
ENCODING 1157
SWIDTH 0 0
DWIDTH 0 0
BBX 3 5 1 10
BITMAP
E0
E0
C0
80
80
ENDCHAR
STARTCHAR 0486
ENCODING 1158
SWIDTH 0 0
DWIDTH 0 0
BBX 3 5 1 11
BITMAP
60
E0
60
40
80
ENDCHAR
STARTCHAR 0487
ENCODING 1159
SWIDTH 0 0
DWIDTH 0 0
BBX 13 3 -4 15
BITMAP
1F00
61F0
C078
ENDCHAR
STARTCHAR 0488
ENCODING 1160
SWIDTH 0 0
DWIDTH 0 0
BBX 23 22 -12 -4
BITMAP
001800
002400
006400
1C0038
260044
220044
000000
000000
000000
30000C
480012
C80012
000000
000000
000000
000000
1C0038
260064
220044
003800
002400
004400
ENDCHAR
STARTCHAR 0489
ENCODING 1161
SWIDTH 0 0
DWIDTH 0 0
BBX 22 23 -11 -5
BITMAP
003000
002000
003000
003030
200040
1800E0
1C0040
080000
000000
000000
000038
B00034
700000
000000
000000
000040
0800E0
1C0060
080020
303000
003000
001000
002000
ENDCHAR
STARTCHAR 048A
ENCODING 1162
SWIDTH 791 0
DWIDTH 19 0
BBX 21 25 -1 -5
BITMAP
0020C0
0031C0
001F00
000000
000000
0FF3F8
03C1E0
03C1E0
0383E0
0783C0
0787C0
070BC0
071380
0F2380
0F4780
0E8780
1F0700
1E0F00
1C0F00
3C1F00
FF3F80
000380
000100
000100
000200
ENDCHAR
STARTCHAR 048B
ENCODING 1163
SWIDTH 541 0
DWIDTH 13 0
BBX 11 20 1 -5
BITMAP
0C20
0E40
0780
0000
0000
78E0
38E0
38E0
71C0
71C0
73C0
F5C0
E780
EBA0
F3C0
E380
0080
0180
0100
0300
ENDCHAR
STARTCHAR 048C
ENCODING 1164
SWIDTH 625 0
DWIDTH 15 0
BBX 14 16 0 0
BITMAP
0380
0780
1FE0
0700
0F00
0F00
0E00
0FE0
1E78
1C38
1C3C
3C3C
3C3C
3878
78F0
FFE0
ENDCHAR
STARTCHAR 048D
ENCODING 1165
SWIDTH 458 0
DWIDTH 11 0
BBX 9 16 1 0
BITMAP
0E00
7F00
1C00
1C00
3800
3800
3800
7800
7000
7700
7B80
F380
E380
E700
E600
7C00
ENDCHAR
STARTCHAR 048E
ENCODING 1166
SWIDTH 625 0
DWIDTH 15 0
BBX 16 16 -1 0
BITMAP
07FC
03CF
03C7
0387
0387
078F
07BF
071E
0FFC
0F04
0E00
0E00
1E00
1C00
3C00
FF00
ENDCHAR
STARTCHAR 048F
ENCODING 1167
SWIDTH 500 0
DWIDTH 12 0
BBX 14 16 -3 -5
BITMAP
03B8
07FC
079C
071C
071C
061C
0E1C
0EF8
0E70
1C60
1FF0
1C10
3800
3800
3800
FC00
ENDCHAR
STARTCHAR 0490
ENCODING 1168
SWIDTH 458 0
DWIDTH 11 0
BBX 15 19 -1 1
BITMAP
0002
0002
000C
07FC
03C0
0380
0380
0780
0780
0700
0F00
0F00
0E00
0E00
1E00
1E00
1C00
3C00
FF00
ENDCHAR
STARTCHAR 0491
ENCODING 1169
SWIDTH 375 0
DWIDTH 9 0
BBX 9 13 1 1
BITMAP
0080
0180
7F00
3800
3800
7000
7000
7000
E000
E000
E800
F000
E000
ENDCHAR
STARTCHAR 0492
ENCODING 1170
SWIDTH 625 0
DWIDTH 15 0
BBX 17 16 -1 0
BITMAP
07FF80
03C180
03C080
038000
078000
078000
070000
1FF000
0F0000
0F0000
0E0000
1E0000
1E0000
1C0000
3C0000
FF0000
ENDCHAR
STARTCHAR 0493
ENCODING 1171
SWIDTH 375 0
DWIDTH 9 0
BBX 9 11 0 0
BITMAP
0F00
3380
1380
1300
0E00
1800
6400
E200
E000
E000
7E00
ENDCHAR
STARTCHAR 0494
ENCODING 1172
SWIDTH 750 0
DWIDTH 18 0
BBX 18 21 -1 -5
BITMAP
07FF80
03C180
03C080
038000
078000
078000
073E00
0FC780
0F0380
0E03C0
0E03C0
1E03C0
1E03C0
1C0380
3C0380
FF0700
000700
080E00
080C00
0C1800
13E000
ENDCHAR
STARTCHAR 0495
ENCODING 1173
SWIDTH 500 0
DWIDTH 12 0
BBX 11 16 0 -5
BITMAP
3FC0
1C40
1C40
3800
3800
3F80
70C0
70E0
70E0
70E0
F0E0
00C0
01C0
0180
E300
7C00
ENDCHAR
STARTCHAR 0496
ENCODING 1174
SWIDTH 916 0
DWIDTH 22 0
BBX 24 21 -1 -5
BITMAP
071FC7
07878F
068F13
008F10
008E20
008E20
009E40
00FF80
03DDC0
07BDE0
0F3CE0
1E38E0
1E38E0
3C78F0
7878F0
F9FC78
000018
000018
000008
000010
000010
ENDCHAR
STARTCHAR 0497
ENCODING 1175
SWIDTH 958 0
DWIDTH 23 0
BBX 23 15 0 -5
BITMAP
0E1C1C
3F1C66
471CCE
0738CC
0739C0
07FF80
073980
667380
EC71C0
CC71F8
F060F0
000030
000030
000030
000020
ENDCHAR
STARTCHAR 0498
ENCODING 1176
SWIDTH 500 0
DWIDTH 12 0
BBX 12 21 0 -5
BITMAP
0FE0
0870
1070
1070
0070
00E0
01C0
0F00
03C0
01E0
01E0
01E0
01E0
83C0
C780
3F00
0C00
0C00
0C00
1C00
7800
ENDCHAR
STARTCHAR 0499
ENCODING 1177
SWIDTH 375 0
DWIDTH 9 0
BBX 9 16 0 -5
BITMAP
3F00
2380
4380
0300
0700
1C00
0600
0700
0700
0E00
FC00
3000
1000
3800
7000
E000
ENDCHAR
STARTCHAR 049A
ENCODING 1178
SWIDTH 666 0
DWIDTH 16 0
BBX 18 20 0 -5
BITMAP
1FE380
0787C0
078980
070800
0F1000
0F1000
0E2000
0FC000
1FE000
1CE000
1CF000
3C7000
3C7000
387800
787800
FE3E00
000C00
000400
000400
000400
ENDCHAR
STARTCHAR 049B
ENCODING 1179
SWIDTH 500 0
DWIDTH 12 0
BBX 12 14 0 -5
BITMAP
1C30
1C70
1C80
3880
3900
3E00
3B00
7380
7190
71E0
E0E0
0020
0060
0020
ENDCHAR
STARTCHAR 049C
ENCODING 1180
SWIDTH 666 0
DWIDTH 16 0
BBX 18 16 0 0
BITMAP
1FE380
0787C0
078980
070800
0F5000
0F5000
0E6000
0FC000
1FE000
1CE000
1DF000
3D7000
3D7000
387800
787800
FE3E00
ENDCHAR
STARTCHAR 049D
ENCODING 1181
SWIDTH 500 0
DWIDTH 12 0
BBX 12 11 0 0
BITMAP
1C30
1C70
1D80
3A80
3B00
3E00
3B00
7780
7580
71C0
E0E0
ENDCHAR
STARTCHAR 049E
ENCODING 1182
SWIDTH 666 0
DWIDTH 16 0
BBX 18 16 0 0
BITMAP
1FC380
0787C0
070980
1FC800
0F1000
0F1000
0E6000
1FC000
1FE000
1CF000
1CF000
3C7000
3C7000
387800
787800
FE3E00
ENDCHAR
STARTCHAR 049F
ENCODING 1183
SWIDTH 500 0
DWIDTH 12 0
BBX 12 16 0 0
BITMAP
0F00
0E00
0E00
3F80
0E00
1C30
1C70
1C80
3880
3900
3E00
3B00
7380
7180
71C0
E0E0
ENDCHAR
STARTCHAR 04A0
ENCODING 1184
SWIDTH 833 0
DWIDTH 20 0
BBX 18 16 3 0
BITMAP
7FE3C0
6387C0
C784C0
878800
070800
0F1000
0F2000
0FC000
0EE000
1EF000
1E7000
1C7000
1C7800
3C3800
3C3C00
FE3E00
ENDCHAR
STARTCHAR 04A1
ENCODING 1185
SWIDTH 583 0
DWIDTH 14 0
BBX 13 11 1 0
BITMAP
FE38
9E58
1C40
1C80
1C80
3F00
3B80
39C0
39C0
70E0
70F0
ENDCHAR
STARTCHAR 04A2
ENCODING 1186
SWIDTH 791 0
DWIDTH 19 0
BBX 22 19 -1 -5
BITMAP
0FF3FC
03C1F0
03C1E0
0381E0
0781C0
0783C0
0703C0
07FF80
0F0780
0E0780
0E0780
1E0700
1E0F00
1C0F00
3C0F00
FF3F80
000380
000180
000100
ENDCHAR
STARTCHAR 04A3
ENCODING 1187
SWIDTH 541 0
DWIDTH 13 0
BBX 12 15 0 -5
BITMAP
3C70
1C70
1C70
3860
38E0
3FE0
38E0
71C0
71D0
71E0
E1E0
0060
0060
0060
0040
ENDCHAR
STARTCHAR 04A4
ENCODING 1188
SWIDTH 1000 0
DWIDTH 24 0
BBX 27 16 -1 0
BITMAP
0FF3FFE0
03C1E0C0
03C1E040
0381E040
0781C000
0783C000
0703C000
07FF8000
0F078000
0E078000
0E078000
1E070000
1E0F0000
1C0F0000
3C0F0000
FF3F8000
ENDCHAR
STARTCHAR 04A5
ENCODING 1189
SWIDTH 625 0
DWIDTH 15 0
BBX 16 11 0 0
BITMAP
1C7F
1C71
1C71
3860
38E0
3FE0
38E0
71C0
71D0
71E0
E1C0
ENDCHAR
STARTCHAR 04A6
ENCODING 1190
SWIDTH 1125 0
DWIDTH 27 0
BBX 27 21 -1 -5
BITMAP
0FFFFC00
03C0F000
03C1E000
0381E000
0781C000
0783C000
0703CF80
0703F1C0
0F0381E0
0F0780E0
0E0780E0
1E0700E0
1E0F01E0
1C0F01E0
3C0F01C0
FF3F81C0
00000380
00040300
00040700
00060C00
0009F800
ENDCHAR
STARTCHAR 04A7
ENCODING 1191
SWIDTH 750 0
DWIDTH 18 0
BBX 17 16 0 -5
BITMAP
1C7000
1CF000
1D7000
3A7000
3CE000
38FE00
38E380
71C380
71D380
71E380
E1C380
000380
000700
000600
038C00
01F000
ENDCHAR
STARTCHAR 04A8
ENCODING 1192
SWIDTH 708 0
DWIDTH 17 0
BBX 17 16 1 0
BITMAP
00EE00
07BB00
0E7380
1C7380
3CE380
78E380
79E780
71C700
F1C700
F1CE00
F1CE00
F1DC00
71D800
79F000
3CE200
1FFC00
ENDCHAR
STARTCHAR 04A9
ENCODING 1193
SWIDTH 500 0
DWIDTH 12 0
BBX 12 11 1 0
BITMAP
06E0
1B60
3370
7670
E660
EE60
EEE0
EEC0
EF80
E720
7FC0
ENDCHAR
STARTCHAR 04AA
ENCODING 1194
SWIDTH 666 0
DWIDTH 16 0
BBX 15 21 2 -5
BITMAP
01FE
0706
1E06
3C00
7800
7800
F000
F000
F000
E000
E000
E000
F000
7030
7860
1F80
0200
0300
0700
0E00
1C00
ENDCHAR
STARTCHAR 04AB
ENCODING 1195
SWIDTH 458 0
DWIDTH 11 0
BBX 9 16 1 -5
BITMAP
0780
1880
3180
7180
E000
E000
E000
E000
E000
E100
FE00
3000
1000
3800
7000
E000
ENDCHAR
STARTCHAR 04AC
ENCODING 1196
SWIDTH 625 0
DWIDTH 15 0
BBX 14 20 2 -5
BITMAP
3FFC
63CC
4384
0384
0780
0780
0700
0F00
0F00
0E00
1E00
1E00
1C00
1C00
3C00
FF00
0700
0200
0200
0200
ENDCHAR
STARTCHAR 04AD
ENCODING 1197
SWIDTH 791 0
DWIDTH 19 0
BBX 17 15 0 -5
BITMAP
1C6380
1DF780
1DEB80
3AF380
3CF380
38E700
39E700
71C700
71CE80
738F00
E38700
000200
000600
000600
000400
ENDCHAR
STARTCHAR 04AE
ENCODING 1198
SWIDTH 625 0
DWIDTH 15 0
BBX 15 16 2 0
BITMAP
7FBE
3E0C
1C18
1E10
1E20
0E20
0E40
0E80
0F00
0F00
0E00
0E00
1E00
1E00
3C00
FF00
ENDCHAR
STARTCHAR 04AF
ENCODING 1199
SWIDTH 500 0
DWIDTH 12 0
BBX 13 16 0 -5
BITMAP
3E78
1C20
1C20
1C40
1C80
1C80
1D00
1E00
1E00
1C00
1C00
1C00
3800
3800
3800
FC00
ENDCHAR
STARTCHAR 04B0
ENCODING 1200
SWIDTH 625 0
DWIDTH 15 0
BBX 15 16 2 0
BITMAP
7FBE
3E0C
1C18
1E10
1E20
0E60
0E40
0E80
0F00
FFF0
0E00
0E00
1E00
1E00
3C00
FF00
ENDCHAR
STARTCHAR 04B1
ENCODING 1201
SWIDTH 500 0
DWIDTH 12 0
BBX 13 16 0 -5
BITMAP
3E78
1C20
1C20
1C40
1C80
1C80
1D00
1D00
1E00
1C00
FFC0
1C00
3800
3800
3800
FC00
ENDCHAR
STARTCHAR 04B2
ENCODING 1202
SWIDTH 666 0
DWIDTH 16 0
BBX 19 21 -1 -5
BITMAP
1FC3E0
078180
038100
03C200
03C400
01E800
01F000
00E000
00F000
01F000
037800
047800
083C00
103C00
301C00
F87F00
000700
000300
000200
000200
000200
ENDCHAR
STARTCHAR 04B3
ENCODING 1203
SWIDTH 500 0
DWIDTH 12 0
BBX 13 15 -1 -5
BITMAP
1C18
0E78
0E78
0780
0700
0700
0780
0B80
DB90
F1E0
E1E0
0020
0020
0020
0020
ENDCHAR
STARTCHAR 04B4
ENCODING 1204
SWIDTH 791 0
DWIDTH 19 0
BBX 21 21 0 -5
BITMAP
7FFBF8
679BE0
4713C0
8713C0
0F0380
0F0780
0E0780
0E0780
1E0700
1E0F00
1C0F00
3C0E00
3C1E00
381E00
381E00
7FFE00
800700
000300
000100
000200
000200
ENDCHAR
STARTCHAR 04B5
ENCODING 1205
SWIDTH 541 0
DWIDTH 13 0
BBX 11 20 1 -5
BITMAP
0720
0FE0
09C0
0000
0000
78E0
38E0
38E0
71C0
71C0
73C0
E5C0
E780
EBA0
F3C0
E3C0
00C0
00C0
00C0
0080
ENDCHAR
STARTCHAR 04B6
ENCODING 1206
SWIDTH 750 0
DWIDTH 18 0
BBX 17 20 3 -5
BITMAP
FE7F80
781E00
781C00
783C00
703C00
F03800
F03800
F07800
F0F000
7F7000
00F000
00F000
00E000
01E000
01E000
07F800
003000
001000
001000
002000
ENDCHAR
STARTCHAR 04B7
ENCODING 1207
SWIDTH 541 0
DWIDTH 13 0
BBX 11 15 1 -5
BITMAP
78E0
71C0
71C0
71C0
7380
F380
7F80
0380
0740
0780
0300
0100
0300
0300
0200
ENDCHAR
STARTCHAR 04B8
ENCODING 1208
SWIDTH 750 0
DWIDTH 18 0
BBX 17 16 3 0
BITMAP
FE7F80
781E00
781C00
783C00
713C00
F23800
F23800
F27800
F2F000
7F7000
04F000
04F000
00E000
01E000
01E000
07F000
ENDCHAR
STARTCHAR 04B9
ENCODING 1209
SWIDTH 541 0
DWIDTH 13 0
BBX 11 11 1 0
BITMAP
F8E0
71C0
75C0
75C0
7B80
FB80
7F80
0B80
1740
0780
0300
ENDCHAR
STARTCHAR 04BA
ENCODING 1210
SWIDTH 750 0
DWIDTH 18 0
BBX 17 16 -1 0
BITMAP
07F000
03C000
03C000
038000
038000
078000
073F00
07C780
0F0780
0F0780
0E0780
1E0700
1E0700
1C0F00
3C0F00
FF3F80
ENDCHAR
STARTCHAR 04BB
ENCODING 1211
SWIDTH 541 0
DWIDTH 13 0
BBX 12 16 0 0
BITMAP
0F00
0E00
0E00
0E00
0E00
1C60
1CF0
1D70
3A70
3CE0
38E0
38E0
71C0
71D0
71E0
E1C0
ENDCHAR
STARTCHAR 04BC
ENCODING 1212
SWIDTH 875 0
DWIDTH 21 0
BBX 20 16 1 0
BITMAP
001F80
00F0E0
01C0E0
7380F0
F780F0
F700F0
8F00F0
7FFFE0
0F0000
0F0000
0F0000
0F0000
070000
070180
038200
00FC00
ENDCHAR
STARTCHAR 04BD
ENCODING 1213
SWIDTH 541 0
DWIDTH 13 0
BBX 13 11 0 0
BITMAP
0078
3198
F338
F638
8E70
8EC0
7D00
1C00
1E10
1FE0
0F80
ENDCHAR
STARTCHAR 04BE
ENCODING 1214
SWIDTH 875 0
DWIDTH 21 0
BBX 20 20 1 -4
BITMAP
001F80
00F0E0
01C0E0
7380F0
F780F0
F700F0
8F00F0
7FFFE0
0F0000
0F0000
0F0000
0F0000
070000
070080
038300
01FC00
006000
006000
004000
004000
ENDCHAR
STARTCHAR 04BF
ENCODING 1215
SWIDTH 541 0
DWIDTH 13 0
BBX 13 15 0 -4
BITMAP
0078
3198
F338
F638
8E70
8EE0
7F00
1C00
1C10
1E20
0FC0
0200
0600
0600
0400
ENDCHAR
STARTCHAR 04C0
ENCODING 1216
SWIDTH 375 0
DWIDTH 9 0
BBX 12 16 -1 0
BITMAP
0FF0
03C0
03C0
0380
0780
0780
0700
0700
0F00
0F00
0E00
1E00
1E00
1C00
3C00
FF00
ENDCHAR
STARTCHAR 04C1
ENCODING 1217
SWIDTH 916 0
DWIDTH 22 0
BBX 24 20 -1 1
BITMAP
001C70
000C60
000780
000000
071FC7
07878F
068F13
008F10
008E20
008E20
009E60
00DEC0
01FFC0
07DDC0
07BDE0
0F3CE0
1E38E0
3C78F0
7C78F0
F9FC78
ENDCHAR
STARTCHAR 04C2
ENCODING 1218
SWIDTH 958 0
DWIDTH 23 0
BBX 23 16 0 0
BITMAP
0060C0
007180
001E00
000000
000000
0E1C1C
3F1C66
471CEE
0738CC
0739C0
07FF80
073980
667380
EC71C0
CC71F8
F060E0
ENDCHAR
STARTCHAR 04C3
ENCODING 1219
SWIDTH 666 0
DWIDTH 16 0
BBX 18 21 0 -5
BITMAP
1FC380
0787C0
070980
070800
0F1000
0F1000
0E6000
0FF800
1E0E00
1C0E00
1C0F00
3C0F00
3C0F00
380E00
780E00
FE0E00
001C00
201C00
203800
706000
4F8000
ENDCHAR
STARTCHAR 04C4
ENCODING 1220
SWIDTH 500 0
DWIDTH 12 0
BBX 12 16 0 -5
BITMAP
1C30
1C70
1C80
3880
3900
3F80
38C0
70E0
70E0
70E0
E0E0
00C0
01C0
0180
E300
7C00
ENDCHAR
STARTCHAR 04C5
ENCODING 1221
SWIDTH 666 0
DWIDTH 16 0
BBX 19 20 -1 -5
BITMAP
03FFE0
008780
008780
010700
010700
010F00
010F00
020E00
021E00
021E00
041C00
043C00
043C00
C83800
F07800
E1FE00
000E00
000600
000400
000400
ENDCHAR
STARTCHAR 04C6
ENCODING 1222
SWIDTH 500 0
DWIDTH 12 0
BBX 12 15 -1 -5
BITMAP
0FF0
0470
0470
08E0
08E0
08E0
08E0
11C0
51D0
E1E0
E1C0
0040
00C0
00C0
0180
ENDCHAR
STARTCHAR 04C7
ENCODING 1223
SWIDTH 791 0
DWIDTH 19 0
BBX 22 21 -1 -5
BITMAP
0FF3FC
03C1F0
03C1E0
0381E0
0781C0
0783C0
0703C0
07FFC0
0F0780
0E0780
0E0780
1E0700
1E0F00
1C0F00
3C0E00
FF1E00
001E00
201C00
203800
307000
4FC000
ENDCHAR
STARTCHAR 04C8
ENCODING 1224
SWIDTH 541 0
DWIDTH 13 0
BBX 13 16 -1 -5
BITMAP
1E38
0E38
0E38
1C30
1C70
1FF0
1C70
38E0
38E0
38E0
70C0
01C0
0180
0300
C600
F800
ENDCHAR
STARTCHAR 04C9
ENCODING 1225
SWIDTH 791 0
DWIDTH 19 0
BBX 22 19 -1 -5
BITMAP
0FF3FC
03C1F0
03C1E0
0381E0
0781C0
0783C0
0703C0
07FF80
0F0780
0E0780
0E0780
1E0700
1E0F00
1C0F00
3C0F00
FF3F80
000380
000180
000100
ENDCHAR
STARTCHAR 04CA
ENCODING 1226
SWIDTH 541 0
DWIDTH 13 0
BBX 12 15 0 -5
BITMAP
3C70
1C70
1C70
3860
38E0
3FE0
38E0
71C0
71D0
71E0
E1E0
0060
0060
0060
0040
ENDCHAR
STARTCHAR 04CB
ENCODING 1227
SWIDTH 750 0
DWIDTH 18 0
BBX 17 21 3 -5
BITMAP
FE7F80
781E00
781C00
783C00
703C00
F03800
F03800
F07800
F0F000
7F7000
00F000
00F000
00E000
01E000
01E000
07F800
070000
0C0000
080000
100000
100000
ENDCHAR
STARTCHAR 04CC
ENCODING 1228
SWIDTH 541 0
DWIDTH 13 0
BBX 11 15 1 -5
BITMAP
78E0
71C0
71C0
71C0
7380
F380
7F80
0380
0740
0780
0700
0800
1800
1800
1000
ENDCHAR
STARTCHAR 04CD
ENCODING 1229
SWIDTH 875 0
DWIDTH 21 0
BBX 24 20 -1 -5
BITMAP
0FC03F
03C03C
03C07C
03C0F8
03E0B8
05E178
05E370
04E270
08E4F0
08E8F0
08F8E0
10F1E0
10E1E0
10E1C0
30C3C0
FC8FF0
000060
000060
000040
000040
ENDCHAR
STARTCHAR 04CE
ENCODING 1230
SWIDTH 666 0
DWIDTH 16 0
BBX 16 15 -1 -5
BITMAP
0F87
0787
078F
0B97
0BAE
0BAE
13CE
139C
D39D
E11E
E01C
0004
000C
000C
0008
ENDCHAR
STARTCHAR 04CF
ENCODING 1231
SWIDTH 291 0
DWIDTH 7 0
BBX 7 16 0 0
BITMAP
0E
0E
0E
0E
1C
1C
1C
38
38
38
70
70
70
74
F8
70
ENDCHAR
STARTCHAR 04D0
ENCODING 1232
SWIDTH 666 0
DWIDTH 16 0
BBX 19 20 -1 1
BITMAP
001860
0018E0
000F80
000000
000200
000600
000C00
001C00
003C00
007C00
00DC00
009C00
011C00
021C00
07FC00
081C00
101C00
101C00
203C00
F07E00
ENDCHAR
STARTCHAR 04D1
ENCODING 1233
SWIDTH 500 0
DWIDTH 12 0
BBX 13 16 0 0
BITMAP
0418
0638
03E0
0000
0000
0760
0CE0
18E0
38C0
71C0
71C0
73C0
F380
F7A0
7BC0
7380
ENDCHAR
STARTCHAR 04D2
ENCODING 1234
SWIDTH 666 0
DWIDTH 16 0
BBX 18 21 -1 0
BITMAP
001CC0
001DC0
001CC0
000000
000000
000200
000600
000C00
001C00
003C00
007C00
00DC00
009C00
011C00
021C00
07FC00
081C00
101C00
101C00
203C00
F07E00
ENDCHAR
STARTCHAR 04D3
ENCODING 1235
SWIDTH 500 0
DWIDTH 12 0
BBX 12 16 0 0
BITMAP
0670
0770
0670
0000
0000
0760
0CE0
18E0
38C0
71C0
71C0
73C0
F380
F7A0
7BC0
7380
ENDCHAR
STARTCHAR 04D4
ENCODING 1236
SWIDTH 958 0
DWIDTH 23 0
BBX 24 16 -1 0
BITMAP
003FFF
000B87
001F82
003702
002700
004F08
008F18
018FF0
030E30
021E10
07FC00
081C00
103C04
303808
203838
F0FFF8
ENDCHAR
STARTCHAR 04D5
ENCODING 1237
SWIDTH 708 0
DWIDTH 17 0
BBX 17 11 0 0
BITMAP
077780
0CFB80
18F380
38E380
70E700
71DC00
71E000
F3C000
F5C100
79FE00
70F800
ENDCHAR
STARTCHAR 04D6
ENCODING 1238
SWIDTH 666 0
DWIDTH 16 0
BBX 16 20 0 1
BITMAP
0186
01C6
0078
0000
0FFF
0783
0781
0700
0F00
0F08
0E10
0FF0
1E30
1E10
1C00
3C00
3C04
380C
7838
FFF8
ENDCHAR
STARTCHAR 04D7
ENCODING 1239
SWIDTH 458 0
DWIDTH 11 0
BBX 11 16 1 0
BITMAP
1860
1C60
0780
0000
0000
0780
19C0
3180
7380
E300
EC00
F000
E000
E100
FE00
7800
ENDCHAR
STARTCHAR 04D8
ENCODING 1240
SWIDTH 708 0
DWIDTH 17 0
BBX 16 16 1 0
BITMAP
07F8
061C
080E
080F
000F
000F
000F
7FFF
780F
F00F
F01E
F01E
703C
7038
38F0
1F80
ENDCHAR
STARTCHAR 04D9
ENCODING 1241
SWIDTH 458 0
DWIDTH 11 0
BBX 10 11 0 0
BITMAP
0F80
1FC0
21C0
41C0
01C0
0FC0
3380
6380
E700
E400
F800
ENDCHAR
STARTCHAR 04DA
ENCODING 1242
SWIDTH 708 0
DWIDTH 17 0
BBX 16 21 1 0
BITMAP
0198
039C
0198
0000
0000
07F8
061C
080E
080F
000F
000F
000F
7FFF
780F
F00F
F01E
F01E
703C
7038
38F0
1F80
ENDCHAR
STARTCHAR 04DB
ENCODING 1243
SWIDTH 458 0
DWIDTH 11 0
BBX 11 16 0 0
BITMAP
0CE0
0EE0
0CE0
0000
0000
0F80
1FC0
21C0
41C0
01C0
0FC0
3380
6380
E700
E400
F800
ENDCHAR
STARTCHAR 04DC
ENCODING 1244
SWIDTH 916 0
DWIDTH 22 0
BBX 24 21 -1 0
BITMAP
000CC0
001CE0
000CC0
000000
000000
071FC7
07878F
068F13
008F10
008E20
008E20
009E60
00DEC0
01FFC0
07DDC0
07BDE0
0F3CE0
1E38E0
3C78F0
7C78F0
F9FC78
ENDCHAR
STARTCHAR 04DD
ENCODING 1245
SWIDTH 958 0
DWIDTH 23 0
BBX 23 16 0 0
BITMAP
003980
003B80
003980
000000
000000
0E1C1C
3F1C66
471CEE
0738CC
0739C0
07FF80
073980
667380
EC71C0
CC71F8
F060E0
ENDCHAR
STARTCHAR 04DE
ENCODING 1246
SWIDTH 500 0
DWIDTH 12 0
BBX 12 21 0 0
BITMAP
0630
0770
0630
0000
0000
0FE0
0870
1070
1070
00F0
00E0
01C0
0F00
03C0
01E0
01E0
01E0
01E0
83C0
4780
3E00
ENDCHAR
STARTCHAR 04DF
ENCODING 1247
SWIDTH 375 0
DWIDTH 9 0
BBX 10 16 0 0
BITMAP
1980
39C0
1980
0000
0000
3F00
4380
0380
0700
1C00
0600
0700
0700
0E00
9E00
7800
ENDCHAR
STARTCHAR 04E0
ENCODING 1248
SWIDTH 541 0
DWIDTH 13 0
BBX 15 16 0 0
BITMAP
0FFE
187C
10F8
01F0
03E0
07C0
0F80
0F80
01C0
01E0
01E0
01E0
01E0
83C0
4780
3E00
ENDCHAR
STARTCHAR 04E1
ENCODING 1249
SWIDTH 458 0
DWIDTH 11 0
BBX 14 16 -2 -5
BITMAP
0FFC
0878
00F0
01C0
0380
0700
0780
01C0
01E0
00E0
01E0
01C0
01C0
8180
8300
7E00
ENDCHAR
STARTCHAR 04E2
ENCODING 1250
SWIDTH 791 0
DWIDTH 19 0
BBX 21 20 -1 0
BITMAP
003FC0
007FC0
000000
000000
0FF3F8
03C1E0
03C1E0
0383E0
0783C0
0787C0
070BC0
071380
0F2380
0F4780
0E8780
1F0700
1E0F00
1C0F00
3C1F00
FF3F80
ENDCHAR
STARTCHAR 04E3
ENCODING 1251
SWIDTH 541 0
DWIDTH 13 0
BBX 12 15 1 0
BITMAP
0FF0
1FF0
0000
0000
78E0
38E0
38E0
71C0
71C0
73C0
E5C0
E780
EBA0
F3C0
E380
ENDCHAR
STARTCHAR 04E4
ENCODING 1252
SWIDTH 791 0
DWIDTH 19 0
BBX 21 21 -1 0
BITMAP
003380
003B80
003380
000000
000000
0FF3F8
03C1E0
03C1E0
0383E0
0783C0
0787C0
070BC0
071380
0F2380
0F4780
0E8780
1F0700
1E0F00
1C0F00
3C1F00
FF3F80
ENDCHAR
STARTCHAR 04E5
ENCODING 1253
SWIDTH 541 0
DWIDTH 13 0
BBX 11 16 1 0
BITMAP
0CE0
0EE0
0CE0
0000
0000
78E0
38E0
38E0
71C0
71C0
73C0
E5C0
E780
EBA0
F3C0
E380
ENDCHAR
STARTCHAR 04E6
ENCODING 1254
SWIDTH 708 0
DWIDTH 17 0
BBX 16 21 1 0
BITMAP
00CE
01EE
00CE
0000
0000
00F8
030E
0E0E
1E0F
3C0F
3C0F
780F
780F
780F
F01E
F01E
F03C
7038
7070
38E0
1F80
ENDCHAR
STARTCHAR 04E7
ENCODING 1255
SWIDTH 500 0
DWIDTH 12 0
BBX 11 16 1 0
BITMAP
0CC0
1EE0
0CC0
0000
0000
0780
19C0
31C0
71C0
F1C0
E1C0
E380
E380
E700
E600
7800
ENDCHAR
STARTCHAR 04E8
ENCODING 1256
SWIDTH 708 0
DWIDTH 17 0
BBX 16 16 1 0
BITMAP
00F8
030E
0E0E
1C0F
3C0F
380F
780F
7FFF
780F
F01E
F01E
F03C
7038
7070
38E0
1F80
ENDCHAR
STARTCHAR 04E9
ENCODING 1257
SWIDTH 500 0
DWIDTH 12 0
BBX 10 11 1 0
BITMAP
0780
19C0
31C0
71C0
F1C0
FFC0
E380
E380
E300
E600
7800
ENDCHAR
STARTCHAR 04EA
ENCODING 1258
SWIDTH 708 0
DWIDTH 17 0
BBX 16 21 1 0
BITMAP
00CE
01EE
00CE
0000
0000
00F8
030E
0E0E
1C0F
3C0F
380F
780F
7FFF
780F
F01E
F01E
F03C
7038
7070
38E0
1F80
ENDCHAR
STARTCHAR 04EB
ENCODING 1259
SWIDTH 500 0
DWIDTH 12 0
BBX 11 16 1 0
BITMAP
0CC0
1EE0
0CC0
0000
0000
0780
19C0
31C0
71C0
F1C0
FFC0
E380
E380
E300
E600
7800
ENDCHAR
STARTCHAR 04EC
ENCODING 1260
SWIDTH 666 0
DWIDTH 16 0
BBX 15 21 0 0
BITMAP
0398
03B8
0398
0000
0000
0FF0
0C38
181C
101E
001E
001E
001E
07FE
001E
001E
003C
003C
8078
40F0
31E0
1F80
ENDCHAR
STARTCHAR 04ED
ENCODING 1261
SWIDTH 416 0
DWIDTH 10 0
BBX 10 16 0 0
BITMAP
1980
39C0
1980
0000
0000
3E00
2300
0380
0380
0380
1F80
0700
0700
0E00
9C00
7800
ENDCHAR
STARTCHAR 04EE
ENCODING 1262
SWIDTH 708 0
DWIDTH 17 0
BBX 17 20 2 0
BITMAP
01FE00
03FC00
000000
000000
7F0F80
3E0600
1E0400
1E0400
0E0800
0E1000
0F1000
072000
076000
07C000
078000
038000
430000
E20000
760000
3C0000
ENDCHAR
STARTCHAR 04EF
ENCODING 1263
SWIDTH 458 0
DWIDTH 11 0
BBX 14 20 -2 -5
BITMAP
03FC
07FC
0000
0000
0E30
1E38
0E38
0E10
0E10
0620
0640
0740
0780
0700
0700
0600
0400
C800
F000
E000
ENDCHAR
STARTCHAR 04F0
ENCODING 1264
SWIDTH 708 0
DWIDTH 17 0
BBX 17 21 2 0
BITMAP
019800
039C00
019800
000000
000000
7F0F80
3E0600
1E0400
1E0400
0E0800
0E1000
0F1000
072000
076000
07C000
078000
038000
430000
E20000
760000
3C0000
ENDCHAR
STARTCHAR 04F1
ENCODING 1265
SWIDTH 458 0
DWIDTH 11 0
BBX 14 21 -2 -5
BITMAP
0398
03BC
0398
0000
0000
0E30
1E38
0E38
0E10
0E10
0620
0640
0740
0780
0700
0700
0600
0400
C800
F000
E000
ENDCHAR
STARTCHAR 04F2
ENCODING 1266
SWIDTH 708 0
DWIDTH 17 0
BBX 17 22 2 0
BITMAP
00EC00
00DC00
019800
019000
011000
000000
7F0F80
1C0600
1E0400
1E0C00
0E0800
0F1000
0F1000
072000
074000
07C000
078000
038000
630000
E20000
760000
3C0000
ENDCHAR
STARTCHAR 04F3
ENCODING 1267
SWIDTH 458 0
DWIDTH 11 0
BBX 14 21 -2 -5
BITMAP
01DC
01D8
0198
0110
0000
0E30
1E38
0E38
0E10
0E10
0620
0640
0740
0780
0700
0700
0600
0400
C800
F000
E000
ENDCHAR
STARTCHAR 04F4
ENCODING 1268
SWIDTH 750 0
DWIDTH 18 0
BBX 17 21 3 0
BITMAP
073000
077800
073000
000000
000000
FE7F80
781E00
781C00
783C00
703C00
F03800
F03800
F07800
F0F000
7F7000
00F000
00F000
00E000
01E000
01E000
07F800
ENDCHAR
STARTCHAR 04F5
ENCODING 1269
SWIDTH 541 0
DWIDTH 13 0
BBX 11 16 1 0
BITMAP
1CC0
1DE0
1CC0
0000
0000
78E0
71C0
71C0
71C0
7380
F380
7F80
0380
0740
0780
0300
ENDCHAR
STARTCHAR 04F6
ENCODING 1270
SWIDTH 625 0
DWIDTH 15 0
BBX 17 20 -1 -5
BITMAP
07FF80
03C180
03C080
038000
078000
078000
070000
0F0000
0F0000
0F0000
0E0000
1E0000
1E0000
1C0000
3C0000
FF0000
070000
020000
020000
020000
ENDCHAR
STARTCHAR 04F7
ENCODING 1271
SWIDTH 375 0
DWIDTH 9 0
BBX 9 15 0 -5
BITMAP
0F00
1380
0380
0300
0600
1800
6000
E000
E000
F200
7C00
0800
1800
1800
1000
ENDCHAR
STARTCHAR 04F8
ENCODING 1272
SWIDTH 958 0
DWIDTH 23 0
BBX 25 21 0 0
BITMAP
001CC000
001DE000
001CC000
00000000
00000000
1FE07F80
07801E00
07801C00
07001C00
0F003C00
0F003C00
0E003800
0FE07800
1E787800
1C387000
1C3C7000
3C3CF000
3C3CF000
3878E000
78F1E000
FFE7F800
ENDCHAR
STARTCHAR 04F9
ENCODING 1273
SWIDTH 708 0
DWIDTH 17 0
BBX 15 16 1 0
BITMAP
0730
0770
0730
0000
0000
381E
381C
381C
701C
7718
7BB8
F3B8
E3B8
E774
E678
7C30
ENDCHAR
STARTCHAR 04FA
ENCODING 1274
SWIDTH 625 0
DWIDTH 15 0
BBX 17 21 -1 -5
BITMAP
07FF80
03C180
03C080
038000
078000
078000
070000
1FF000
0F0000
0F0000
0E0000
1E0000
1E0000
1C0000
3C0000
FF0000
010000
020000
3A0000
340000
380000
ENDCHAR
STARTCHAR 04FB
ENCODING 1275
SWIDTH 375 0
DWIDTH 9 0
BBX 9 16 0 -5
BITMAP
0F00
3380
1380
1300
0E00
1800
6400
E200
E000
E100
7E00
0200
0200
7400
6400
3800
ENDCHAR
STARTCHAR 04FC
ENCODING 1276
SWIDTH 666 0
DWIDTH 16 0
BBX 19 21 -1 -5
BITMAP
1FC3E0
078180
038100
03C200
03C400
01E800
01F000
00E000
00F000
01F000
037800
047800
083C00
103C00
301C00
F81E00
000E00
000E00
006E00
006600
003C00
ENDCHAR
STARTCHAR 04FD
ENCODING 1277
SWIDTH 500 0
DWIDTH 12 0
BBX 13 16 -1 -5
BITMAP
1C18
0E78
0E78
0780
0700
0700
0780
0B80
DB80
F1C0
E1C0
01C0
01C0
0CC0
0CC0
0780
ENDCHAR
STARTCHAR 04FE
ENCODING 1278
SWIDTH 666 0
DWIDTH 16 0
BBX 19 16 -1 0
BITMAP
1FC3E0
078180
038100
03C200
01C400
01F800
01F000
1FFF00
00F000
017000
027800
043800
083C00
103C00
303E00
F87F00
ENDCHAR
STARTCHAR 04FF
ENCODING 1279
SWIDTH 500 0
DWIDTH 12 0
BBX 13 11 -1 0
BITMAP
1C18
0E78
0E78
0780
0700
3FE0
0780
0B80
DB90
F1E0
E1C0
ENDCHAR
STARTCHAR 0500
ENCODING 1280
SWIDTH 625 0
DWIDTH 15 0
BBX 16 16 1 0
BITMAP
00FF
0038
0038
0078
0078
0070
00F0
1FF0
78E0
F1E0
F1E0
E1C0
E1C0
E3C0
F3C0
3FE0
ENDCHAR
STARTCHAR 0501
ENCODING 1281
SWIDTH 500 0
DWIDTH 12 0
BBX 13 16 0 0
BITMAP
0038
0078
0070
0070
0070
0760
0CE0
18E0
38E0
71C0
71C0
73C0
7580
F7A0
7BC0
7380
ENDCHAR
STARTCHAR 0502
ENCODING 1282
SWIDTH 791 0
DWIDTH 19 0
BBX 18 16 1 0
BITMAP
00FF00
003800
003800
007800
007000
007000
00F000
1FF1C0
78E380
F1E380
F1E380
E1C380
E1C700
E3C700
F3CE00
3EF800
ENDCHAR
STARTCHAR 0503
ENCODING 1283
SWIDTH 750 0
DWIDTH 18 0
BBX 16 16 0 0
BITMAP
0038
0078
0070
0070
0070
0760
0CE0
18E0
38E0
71C0
71C7
73C7
F587
F78E
7B8C
71F0
ENDCHAR
STARTCHAR 0504
ENCODING 1284
SWIDTH 791 0
DWIDTH 19 0
BBX 15 16 3 0
BITMAP
7F00
4380
8380
8380
0380
0700
0E00
780E
0E0E
0F0E
0F1E
0F1C
0F1C
0E38
0E30
07E0
ENDCHAR
STARTCHAR 0505
ENCODING 1285
SWIDTH 666 0
DWIDTH 16 0
BBX 14 11 1 0
BITMAP
7E00
C700
8700
0E00
3800
0C1C
0E38
0E38
0E30
0C60
07C0
ENDCHAR
STARTCHAR 0506
ENCODING 1286
SWIDTH 541 0
DWIDTH 13 0
BBX 9 20 3 -5
BITMAP
7F00
4380
8380
8380
0380
0700
0E00
7800
1E00
0F00
0F00
0F00
0F00
0E00
1E00
1E00
0780
0100
0100
0100
ENDCHAR
STARTCHAR 0507
ENCODING 1287
SWIDTH 375 0
DWIDTH 9 0
BBX 8 15 1 -5
BITMAP
7E
C7
87
0E
38
0C
0E
0E
0F
1E
0E
04
0C
0C
08
ENDCHAR
STARTCHAR 0508
ENCODING 1288
SWIDTH 875 0
DWIDTH 21 0
BBX 21 16 -1 0
BITMAP
03FFE0
008780
008780
008700
010700
010F00
010E00
020E00
021E38
021E38
041C38
043C70
043C70
C83860
F038C0
E01F80
ENDCHAR
STARTCHAR 0509
ENCODING 1289
SWIDTH 750 0
DWIDTH 18 0
BBX 17 11 -1 0
BITMAP
0FF000
047000
047000
08E000
08E000
08E380
08E380
11C300
51C700
E1C600
E0F800
ENDCHAR
STARTCHAR 050A
ENCODING 1290
SWIDTH 1000 0
DWIDTH 24 0
BBX 24 16 -1 0
BITMAP
0FF3FC
03C1F0
03C1E0
0381E0
0781C0
0783C0
0703C0
07FF87
0F078E
0E078E
0E078E
1E070E
1E0F1C
1C0F1C
3C0738
FF03E0
ENDCHAR
STARTCHAR 050B
ENCODING 1291
SWIDTH 750 0
DWIDTH 18 0
BBX 17 11 0 0
BITMAP
3C7000
1C7000
1C7000
386000
38E000
3FE380
38E380
71C380
71C700
71C600
E0F800
ENDCHAR
STARTCHAR 050C
ENCODING 1292
SWIDTH 708 0
DWIDTH 17 0
BBX 16 16 2 0
BITMAP
01FF
0707
1E02
3C02
7802
7800
F000
F0FE
F03C
E038
E038
E078
F070
7070
38E0
1F80
ENDCHAR
STARTCHAR 050D
ENCODING 1293
SWIDTH 500 0
DWIDTH 12 0
BBX 11 11 1 0
BITMAP
0FE0
3860
7000
E000
E000
E3E0
C1C0
C180
E380
6380
3E00
ENDCHAR
STARTCHAR 050E
ENCODING 1294
SWIDTH 708 0
DWIDTH 17 0
BBX 13 16 3 0
BITMAP
7FF8
C798
8708
0708
0F00
0F00
0E00
1E38
1E38
1C38
3C70
3C70
3870
38E0
38C0
1F00
ENDCHAR
STARTCHAR 050F
ENCODING 1295
SWIDTH 958 0
DWIDTH 23 0
BBX 23 11 0 0
BITMAP
1C6380
1DF780
1DEB80
3AF380
3CF380
38E70E
39C71C
71C71C
71C618
738630
E383E0
ENDCHAR
STARTCHAR 0510
ENCODING 1296
SWIDTH 500 0
DWIDTH 12 0
BBX 14 16 0 0
BITMAP
01FC
0788
0F08
0E08
0E00
0E00
0700
07C0
1E00
3800
7000
F000
F000
F000
F1C0
3E00
ENDCHAR
STARTCHAR 0511
ENCODING 1297
SWIDTH 416 0
DWIDTH 10 0
BBX 10 11 0 0
BITMAP
0FC0
3840
3000
3800
1C00
7000
7000
E000
E000
E100
7E00
ENDCHAR
STARTCHAR 0512
ENCODING 1298
SWIDTH 666 0
DWIDTH 16 0
BBX 19 21 -1 -5
BITMAP
03FFE0
008780
008780
010700
010700
010F00
010F00
020E00
021E00
021E00
041C00
041C00
043C00
C83C00
F03800
E07800
007000
007000
00E000
06E000
078000
ENDCHAR
STARTCHAR 0513
ENCODING 1299
SWIDTH 500 0
DWIDTH 12 0
BBX 12 16 -1 -5
BITMAP
0FF0
0470
0470
08E0
08E0
08E0
08E0
11C0
51C0
E1C0
E380
0380
0380
0300
3600
3C00
ENDCHAR
STARTCHAR 0514
ENCODING 1300
SWIDTH 1000 0
DWIDTH 24 0
BBX 27 16 -1 0
BITMAP
03FFC3E0
008F8180
00878100
0083C200
0103C400
0101C800
0101F000
0200E000
0200F000
0201F000
04027800
04047800
04083800
C8103C00
F0303E00
E0F87F00
ENDCHAR
STARTCHAR 0515
ENCODING 1301
SWIDTH 750 0
DWIDTH 18 0
BBX 19 11 -1 0
BITMAP
0FF0C0
0479E0
043BC0
083C00
081C00
081C00
081C00
103E00
D34E40
E78F80
E30700
ENDCHAR
STARTCHAR 0516
ENCODING 1302
SWIDTH 875 0
DWIDTH 21 0
BBX 23 16 -1 0
BITMAP
07FC3E
03CF18
03C710
038720
038740
078F80
070F00
071E00
0FFF00
0F0F00
0E0780
0E0780
1E0380
1C03C0
3C03E0
FF07F0
ENDCHAR
STARTCHAR 0517
ENCODING 1303
SWIDTH 666 0
DWIDTH 16 0
BBX 20 16 -3 -5
BITMAP
0FB8F0
03FCC0
071D00
071E00
071E00
0E1E00
0E1E00
0E3F00
0E3700
1C6380
1FC7C0
1C0000
380000
380000
380000
FC0000
ENDCHAR
STARTCHAR 0518
ENCODING 1304
SWIDTH 958 0
DWIDTH 23 0
BBX 24 16 -1 0
BITMAP
00FFFF
03C783
078781
078701
070F00
078F08
078F18
01FFF0
03DE10
079E10
0F1C00
1F3C00
1E3C04
3C3C0C
783838
F8FFF8
ENDCHAR
STARTCHAR 0519
ENCODING 1305
SWIDTH 708 0
DWIDTH 17 0
BBX 18 11 -1 0
BITMAP
07F780
0E79C0
1C7180
1C7380
1CE300
0FE400
0EF800
1CE000
38E100
78FE00
F07800
ENDCHAR
ENDFONT
